<svg id="Layer_21" data-name="Layer 21" xmlns="http://www.w3.org/2000/svg" viewBox="0 0 713.68 127.34"><defs><style>.cls-1{fill:#a0b455;}</style></defs><title>LogoText</title><path class="cls-1" d="M294,344.88a6.32,6.32,0,0,1-6.35,6c-3.59,0-6.68-2.79-6.68-6v-75.4l-26.22,53.26a6.8,6.8,0,0,1-6.35,3.72,6.73,6.73,0,0,1-6.19-3.72L216,269.48v75.4c0,3.25-3.1,6-6.84,6a6.17,6.17,0,0,1-6.19-6V245.17a6.52,6.52,0,0,1,6.84-6.5,7.45,7.45,0,0,1,7,4l31.76,64.72,31.76-64.87a7.44,7.44,0,0,1,6.84-3.87,6.61,6.61,0,0,1,6.84,6.5Z" transform="translate(-51.49 -226.13)"/><path class="cls-1" d="M323.87,244.86c0-3.25,3.42-6.19,7.61-6.19s7.6,2.94,7.6,6.19v99.87c0,3.25-3.42,6.19-7.6,6.19s-7.61-2.94-7.61-6.19Z" transform="translate(-51.49 -226.13)"/><path class="cls-1" d="M444.4,347.36l-54.75-82.52v79.73c0,3.41-3.61,6.35-7.79,6.35s-7.41-2.94-7.41-6.35V245.48c0-3.87,3.42-6.81,8.17-6.81,3.23,0,6.46,1.39,8,3.71l54.74,82.38V245c0-3.41,3.62-6.35,7.8-6.35s7.41,2.94,7.41,6.35v99.09c0,3.71-3.42,6.81-8.36,6.81C449.15,350.92,445.92,349.53,444.4,347.36Z" transform="translate(-51.49 -226.13)"/><path class="cls-1" d="M552.24,350.18H497a6.72,6.72,0,0,1-6.76-6.81,12.88,12.88,0,0,1,1.61-5l49.58-85H496.86a6.1,6.1,0,0,1-6.28-6.19,6.29,6.29,0,0,1,6.28-6.19h54.57a6.64,6.64,0,0,1,6.92,6.65,9.48,9.48,0,0,1-1.61,4.8l-49.9,85.32h45.4a6.19,6.19,0,1,1,0,12.38Z" transform="translate(-51.49 -226.13)"/><path class="cls-1" d="M596.61,346.28a8.36,8.36,0,0,1-7.22,4.64c-4.38,0-8-2.48-8-6.19a8.66,8.66,0,0,1,.38-2.32l37.07-95.54c1.71-4.64,4.37-8.2,9.88-8.2,5.7,0,8.17,3.4,10.07,8.2l37.07,95.54a8.66,8.66,0,0,1,.38,2.32c0,3.71-3.42,6.19-8,6.19-2.85,0-6.46-1.86-7.41-4.64l-8.17-21.52H604.59Zm12.54-33.6h39.16l-19.58-52.49Z" transform="translate(-51.49 -226.13)"/><path class="cls-1" d="M755.69,350.92l-55.49-.77c-6,0-11.22-3.1-11.22-7V245.64a7.78,7.78,0,0,1,8-7.64,7.49,7.49,0,0,1,7.74,7.64v92.58l50.92.78c5,0,9.48,2.63,9.48,5.88C765.17,348.29,760.93,350.92,755.69,350.92Z" transform="translate(-51.49 -226.13)"/><path class="cls-1" d="M184.19,289.57c-1.94-5.22-4.92-10-7.33-15-2.6-5.39-4.66-10.91-5.16-16.87a17.84,17.84,0,0,1,.39-5.87c1-4,3.82-5.56,8-4.52a20.6,20.6,0,0,1,3.51,1.24c.33.15.63.48,1.14.24a24.54,24.54,0,0,0-2.64-3.63c-4.74-5.84-11.07-9.67-18-12.79-15.75-7.13-32.08-7.79-48.78-3.83-13.65,3.23-25.55,9.64-36.2,18.26-8,6.5-14.9,13.89-19.83,22.81a61.21,61.21,0,0,0-7.27,23.07,69.49,69.49,0,0,0-.08,17,63.13,63.13,0,0,0,7.3,21.61c5.32,9.94,13.68,16.93,23.95,22a4,4,0,0,0,.59.14A39.24,39.24,0,0,1,78,338.86a30.55,30.55,0,0,1,.49-11.93,51,51,0,0,1,9.69-21.17c.12-.15.23-.3.34-.46,1.29-1.8,1.28-1.78-.39-3.13a23.19,23.19,0,0,1-8-13c-1.49-6.15-1-12.15,2.23-17.73a18.31,18.31,0,0,0,1.91-4.94A15.12,15.12,0,0,1,89,258.81a3.75,3.75,0,0,1,6.07,1,5.93,5.93,0,0,1,.83,4.29c-.23,1,.16.92.84.58a29.39,29.39,0,0,1,7.85-3.06,48.63,48.63,0,0,1,9.14-1.54,66.84,66.84,0,0,1,11.23,0,49.84,49.84,0,0,1,12.29,2.47,24.28,24.28,0,0,1,3.71,1.57.59.59,0,0,0,.19.13c.54.19,1.08.84,1.53.62s-.05-.91,0-1.41a7.25,7.25,0,0,1,1.33-4.21,3.66,3.66,0,0,1,5.42-.64,15.48,15.48,0,0,1,5.21,9,3.84,3.84,0,0,0,.84,1.9c1.91,2.19,2.54,4.9,3.12,7.58a25.69,25.69,0,0,1-4.71,21.8,15.26,15.26,0,0,1-4.13,3.91.87.87,0,0,0-.32,1.41c.63.94,1.28,1.86,1.94,2.78,6.93,9.72,10.41,20.39,9.58,32.16a22.85,22.85,0,0,1-6,14.22c.37.06.61-.19.88-.32a56.12,56.12,0,0,0,28.49-29.91C188.91,312,188.31,300.72,184.19,289.57Z" transform="translate(-51.49 -226.13)"/><path class="cls-1" d="M129.17,286.66c-2.43-1.12-5.12-1.21-7.78-1.32-.74,0-1.48,0-2.23,0a28.87,28.87,0,0,0-9.25,1.05,9,9,0,0,0-2.19,1c-1.18.8-1.34,1.25-.71,2.51a24.43,24.43,0,0,0,3.9,5.39,45,45,0,0,0,7.3,6.74,1.4,1.4,0,0,0,2,0,47,47,0,0,0,10.12-10.29c.17-.24.32-.51.47-.76C132.19,288.55,132.29,288.1,129.17,286.66Z" transform="translate(-51.49 -226.13)"/><path class="cls-1" d="M101.42,277.63c-1.07-.11-2.17,1.11-2.52,2.8a4.25,4.25,0,0,0,.46,3,1.91,1.91,0,0,0,3.32.27,4.19,4.19,0,0,0,.93-2.64C103.55,279.08,102.64,277.75,101.42,277.63Z" transform="translate(-51.49 -226.13)"/><path class="cls-1" d="M136.24,278.77a4.43,4.43,0,0,0-.54,2.41,4.27,4.27,0,0,0,.92,2.54,1.92,1.92,0,0,0,3.28-.17,4.65,4.65,0,0,0-.28-4.95A1.9,1.9,0,0,0,136.24,278.77Z" transform="translate(-51.49 -226.13)"/><path class="cls-1" d="M133.39,341.32a8.27,8.27,0,0,1-3.32.27,6.24,6.24,0,0,1-5.72-4.15,7,7,0,0,1,1.1-5.74,16.49,16.49,0,0,1,7.63-6.57,1.56,1.56,0,0,0,1.12-1.8,11.52,11.52,0,0,0-.77-3.58c-2.51-5.66-7-9.4-12.75-11.77a5,5,0,0,0-4,.2,23.94,23.94,0,0,0-10.32,8.14,13.48,13.48,0,0,0-2.67,7,1.52,1.52,0,0,0,1.12,1.79,11.61,11.61,0,0,1,2.9,1.61c2.58,1.91,4.76,4.12,5.74,7.2a5.41,5.41,0,0,1-2.68,6.77,8,8,0,0,1-6.15.64c-1-.23-1,0-.78.76a5.76,5.76,0,0,0,2.13,3.09,5,5,0,0,0,.94.89,20.57,20.57,0,0,0,3.92,2.23c1.12.5,2.19,1.18,3.52.91h0a2.72,2.72,0,0,0,1-1.05,22.37,22.37,0,0,0,2.57-10.29c0-2.58-.43-5.16-.39-7.76a3,3,0,0,0-.43-1.48,26.12,26.12,0,0,0-5.53-7.2c-.24-.2-.65-.41-.36-.81s.55-.16.85-.07a7.08,7.08,0,0,1,2.59,1.43,25.57,25.57,0,0,1,2.91,2.58c.18-1.21.32-2.16.45-3.1a52.65,52.65,0,0,0,.47-8.87c0-.38-.15-1,.44-1s.5.54.5.92a51.13,51.13,0,0,0,.23,6.89c.21,1.63.43,3.27.65,4.92.49-.11.63-.45.89-.65,1.46-1.14,2.71-2.57,4.59-3.12.34-.1.71-.28.93.09s-.17.61-.42.8a25.23,25.23,0,0,0-5.07,6.44,3.54,3.54,0,0,0-.8,1.71c0,3.08-.53,6.15-.44,9.21a23.12,23.12,0,0,0,2.27,8.79c.28.61.53,1.33,1.3,1.6,1.33.27,3.52-.91,3.52-.91h0A20.51,20.51,0,0,0,131,346l1-.82h0a5.68,5.68,0,0,0,2.14-3.2C134.25,341.32,134.18,341.06,133.39,341.32Z" transform="translate(-51.49 -226.13)"/></svg>