<svg id="Layer_22" data-name="Layer 22" xmlns="http://www.w3.org/2000/svg" viewBox="0 0 582.06 544.83"><defs><style>.cls-1{fill:#a0b455;}</style></defs><title>LogoVerde</title><path class="cls-1" d="M682,294.49c-8.27-22.34-21-42.72-31.36-64.15-11.1-23-19.92-46.68-22.08-72.16a76.29,76.29,0,0,1,1.68-25.11c4.25-17,16.35-23.81,34.21-19.36A91.15,91.15,0,0,1,679.46,119c1.41.63,2.7,2.06,4.88,1-3.09-5.66-7.26-10.56-11.3-15.54-20.28-25-47.39-41.4-76.9-54.74-67.36-30.48-137.26-33.31-208.68-16.4-58.41,13.83-109.35,41.28-154.92,78.15-34.36,27.8-63.73,59.44-84.84,97.58-17.16,31-27.17,63.91-31.08,98.71-2.74,24.29-3.56,48.45-.35,72.72,4.32,32.67,15.58,63.22,31.22,92.43C170.26,515.52,206,545.43,250,567.32a14.33,14.33,0,0,0,2.52.59c-13-19.56-20.52-40.47-24.72-62.51-3.26-17.15-1.3-34.16,2.13-51.07a217.46,217.46,0,0,1,41.46-90.56c.5-.64.95-1.3,1.43-2,5.52-7.7,5.46-7.64-1.65-13.39-18.26-14.76-28.72-33.89-34-55.69-6.37-26.3-4.41-52,9.53-75.86a77.76,77.76,0,0,0,8.16-21.13,64.77,64.77,0,0,1,20-32.87c8.75-7.84,20.36-6,26,4.17,3.17,5.73,5.09,11.88,3.57,18.37-1,4.29.65,3.91,3.58,2.44,10.32-6.34,21.86-9.88,33.56-13.06a206,206,0,0,1,39.12-6.6,287.55,287.55,0,0,1,48,0c18.09,1.06,35.52,5.07,52.61,10.55a103.23,103.23,0,0,1,15.86,6.75,3.81,3.81,0,0,0,.81.54c2.31.8,4.64,3.58,6.56,2.66,2.28-1.1-.22-3.92-.15-6,.21-6.52,1.73-12.63,5.69-18a15.7,15.7,0,0,1,23.22-2.73c12.08,10.3,19.23,23.34,22.28,38.38a16.42,16.42,0,0,0,3.57,8.1c8.17,9.4,10.89,21,13.37,32.44,7.3,33.74,1.06,65-20.15,93.27a65.16,65.16,0,0,1-17.66,16.75c-2.73,1.69-3,3.68-1.41,6,2.7,4,5.5,7.94,8.31,11.87,29.68,41.59,44.54,87.24,41,137.61-1.54,21.79-9.72,44.3-25.64,60.86,1.55.23,2.6-.84,3.77-1.39,57.27-27.12,98.62-71.43,121.88-128C702.16,390.26,699.61,342.21,682,294.49Z" transform="translate(-114.19 -23.08)"/><path class="cls-1" d="M446.56,282.05c-10.38-4.8-21.91-5.18-33.27-5.66-3.17-.14-6.36,0-9.54,0-13.4-.07-26.73.25-39.59,4.48a37.35,37.35,0,0,0-9.36,4.42c-5.07,3.43-5.75,5.33-3.05,10.74C356,304.52,362,312,368.44,319.06c9.48,10.49,19.51,20.46,31.24,28.82,3.11,2.22,5.28,2.21,8.34,0a199.91,199.91,0,0,0,43.29-44c.75-1,1.38-2.16,2-3.26C459.48,290.13,459.93,288.22,446.56,282.05Z" transform="translate(-114.19 -23.08)"/><path class="cls-1" d="M327.83,243.39c-4.57-.47-9.25,4.77-10.77,12a18.18,18.18,0,0,0,1.95,12.9c3.27,5.89,9.92,6.4,14.23,1.17a17.88,17.88,0,0,0,3.95-11.3C336.93,249.59,333.05,243.94,327.83,243.39Z" transform="translate(-114.19 -23.08)"/><path class="cls-1" d="M476.84,248.3c-1.81,2.95-2.34,6.23-2.34,10.29a18.43,18.43,0,0,0,3.92,10.86c4.2,5.08,10.56,4.74,14.05-.71,3.78-5.88,3.23-15.54-1.19-21.19S480.6,242.17,476.84,248.3Z" transform="translate(-114.19 -23.08)"/><path class="cls-1" d="M464.61,515.92c-4.6,1.56-9.42,1.47-14.21,1.16-11.61-.77-21.73-8-24.47-17.8-2.49-8.85,0-17,4.7-24.56a70.66,70.66,0,0,1,32.69-28.1c3.83-1.65,5.17-3.86,4.78-7.7-.52-5.23-1.17-10.44-3.31-15.29-10.74-24.24-29.71-40.23-54.56-50.38-6-2.44-11.59-1.51-17.15.87-18,7.7-32.89,19.11-44.15,34.84-6.52,9.1-10.65,18.87-11.43,30-.27,3.85.85,6.25,4.81,7.69a49.43,49.43,0,0,1,12.38,6.88c11.06,8.16,20.38,17.63,24.58,30.81,3.85,12.08-.28,22.49-11.46,29-8.29,4.79-17.3,5-26.32,2.74-4.05-1-4.24,0-3.32,3.25a24.7,24.7,0,0,0,9.07,13.23,21.65,21.65,0,0,0,4,3.78s10.5,7.51,16.8,9.57c4.78,2.13,9.35,5,15.05,3.88h0a11.58,11.58,0,0,0,4.27-4.52c6.9-13.91,11.23-28.64,11-44-.18-11-1.82-22.11-1.68-33.23a12,12,0,0,0-1.83-6.32c-6.56-11.21-13.37-22.25-23.66-30.82-1-.85-2.78-1.75-1.51-3.46.93-1.25,2.32-.7,3.63-.31a30.5,30.5,0,0,1,11.05,6.14c4,3.4,8.37,6.38,12.47,11,.76-5.19,1.36-9.24,1.93-13.28a222.93,222.93,0,0,0,2-37.94c-.05-1.61-.64-4.08,1.89-4.21s2.15,2.34,2.15,4c0,9.83-.35,19.67.95,29.46l2.8,21.08c2.09-.47,2.69-1.94,3.82-2.81,6.25-4.85,11.56-11,19.64-13.33,1.44-.42,3-1.21,4,.4s-.77,2.58-1.8,3.42c-9.35,7.64-15.46,17.63-21.69,27.53-1.45,2.29-3.43,4.63-3.42,7.31,0,13.18-2.27,26.31-1.88,39.4s4.24,25.65,9.69,37.65c1.18,2.58,2.26,5.66,5.56,6.83,5.71,1.16,15.06-3.88,15.06-3.88h0c6.28-2.16,16.72-9.84,16.72-9.84l4.1-3.51h0a24.55,24.55,0,0,0,9.18-13.7C468.29,515.89,468,514.78,464.61,515.92Z" transform="translate(-114.19 -23.08)"/></svg>