<svg id="Layer_14" data-name="Layer 14" xmlns="http://www.w3.org/2000/svg" viewBox="0 0 694.87 127.14"><defs><style>.cls-1{fill:#a1b456;}.cls-2{fill:#4b6c35;}</style></defs><title>Buttom</title><g id="CMipxR.tif"><path class="cls-1" d="M48.56,326.06c1.62-8.15,2.68-16.46,5-24.43,7.75-27.1,22.75-48.17,50.24-58.48,11.72-4.4,23.82-2.89,35.86-3q81.4-.93,162.79-2.17,105.29-1.44,210.59-2.9,109.23-1.61,218.45-3.42c8.37-.13,9.07,1,11.14,9.27,1.62,6.53.75,45.4-1.2,52.68-10,37.31-38.35,59.05-76.85,59.14-98.26.23-196.5,2.18-294.75,3.22-72.83.76-145.67,1.11-218.5,1.76-8.81.08-17.68-.66-26.43,1.06H53.41C49.85,352.79,48.56,330.5,48.56,326.06Zm373.55-70.3v.9c-16.94,0-33.89,0-50.84,0-72.64.23-145.28,2.18-217.93,1.63-42.55-.32-71.87,31.11-68.88,73.49.76,10.75,1.45,11.51,12.31,11.48q147.11-.4,294.22-2.14c80.91-1,161.84-1.29,242.76-1.84a152.31,152.31,0,0,0,19.91-1.05c39.53-5.5,64.38-41.83,53.9-78.65-1.45-5.07-4.06-7.45-9.42-7.26-10.48.37-21,.54-31.46.66Q544.4,254.4,422.11,255.76Z" transform="translate(-48.56 -231.62)"/><path class="cls-2" d="M422.11,255.76q122.28-1.38,244.57-2.77c10.49-.12,21-.29,31.46-.66,5.36-.19,8,2.19,9.42,7.26,10.48,36.82-14.37,73.15-53.9,78.65a152.31,152.31,0,0,1-19.91,1.05c-80.92.55-161.85.87-242.76,1.84q-147.1,1.75-294.22,2.14c-10.86,0-11.55-.73-12.31-11.48-3-42.38,26.33-73.81,68.88-73.49,72.65.55,145.29-1.4,217.93-1.63,17-.05,33.9,0,50.84,0Z" transform="translate(-48.56 -231.62)"/></g></svg>