<svg id="Layer_12" data-name="Layer 12" xmlns="http://www.w3.org/2000/svg" viewBox="0 0 792.03 472.78"><defs><style>.cls-1{fill:#4c6b32;}</style></defs><title>Curva_VF_Down</title><g id="_13taYh.tif" data-name="13taYh.tif"><path class="cls-1" d="M706.93,610.15c0,1.7-1.11,1.88-2.51,1.87-2.67,0-5.34.09-8,.15H584.72l-17,0H537.4c-41.16-.36-82.52.43-123.69,0-138.74.12-278.53-.53-413.71,0C0,607,0,241.46,0,170.81c0-10.11,0-20.23,0-31.29,3.25,2.07,6.46,4.16,6.5,6.33C7.92,216.58,40.29,271,97,311.94c40.1,28.91,85.21,46.87,134.21,54.63,30.62,4.84,61.4,8.69,92.08,13.11,23.84,3.43,47.23,9.13,70.77,14.06,31.84,6.66,64,12.05,95.38,20.63,32.19,8.79,63.41,20.27,93.14,35.49,13.25,6.79,25,15.75,36.27,25.31,32.57,27.72,58,61,77.57,98.8A92.43,92.43,0,0,1,706.93,610.15Z" transform="translate(0.03 -139.52)"/><path class="cls-1" d="M754.14,612c-3-13.2-5.92-26.38-10.83-39.08C723.84,522.61,692.05,481,651,446.1c-32.5-27.65-68.83-48.49-110.67-59.29-11.3-2.91-22.24-7.14-33.34-10.77-.23-1-7-1.25,1.14-1.18a366.69,366.69,0,0,1,45.19,11.29c19.41,6.29,39.41,11.2,57.81,20,64,30.63,118.27,72.55,154.58,134.46C778.16,561.8,787.58,587.83,792,612,789.33,612,766.45,612.05,754.14,612Z" transform="translate(0.03 -139.52)"/></g></svg>