<svg id="Layer_13" data-name="Layer 13" xmlns="http://www.w3.org/2000/svg" viewBox="0 0 792.78 497.73"><defs><style>.cls-1{fill:#9eb356;}</style></defs><title>Curva_VClaro</title><g id="kXmKvN.tif"><path class="cls-1" d="M25.16,566.35c.36-.72.71-1.44,1.06-2.16,4.48-5,8.56-10.35,13.81-14.7a77.93,77.93,0,0,1,9.12-7.11c10.73-7.66,22.51-13.64,34.24-19.73,13.24-8.19,27.81-13.44,42.86-17.57,10.19-2.8,20.28-6,30.63-8.23,15.27-3.35,30.78-5.45,46.19-8.06,15.81-2.69,31.84-3.17,47.83-4.12,24.36-1.45,48.68-3.42,73.14-3.38,11.75,0,23.57.19,35.32-1,53.89-5.45,106.92-15,157.67-33.48,37.9-13.76,72.77-33.3,106.05-55.34,11.11-7.36,22-15,32.38-23.23,35.17-27.72,66.94-58.44,92.46-94.7C756.8,261,784.23,177.22,785.62,166c1.15-9.24,1.76-18.53,2.37-27.82.42-6.36.22-12.7.39-19.06,0-1.3,2.61-2.69,3.62-4,1.53.45.41,172.93,0,213.26-.53,46.29,0,277.9,0,283.6-63.5.36-132.25-.1-194.87.14-112.2.43-224.39,1.26-336.59.26-82.44-.74-164.87.11-247.31-.58-.85,0-1.71,0-2.56.07-6.45,0-8.29.11-10.67.11,4.53-8.67,12.16-25.25,17.68-33.48C20.39,574.58,23.42,570.83,25.16,566.35Z" transform="translate(0 -115.14)"/></g></svg>