<svg id="Layer_25" data-name="Layer 25" xmlns="http://www.w3.org/2000/svg" viewBox="0 0 792.03 472.78"><defs><style>.cls-1{fill:#4c6b32;}</style></defs><title>Curva_VF_Up</title><g id="_13taYh.tif" data-name="13taYh.tif"><path class="cls-1" d="M707,2.15c0-1.71-1.11-1.88-2.52-1.87-2.66,0-5.33-.1-8-.16h-159c-41.17.35-82.53-.44-123.69,0C275,0,135.19.64,0,.12c0,5.2,0,370.72,0,441.37,0,10.11,0,20.23,0,31.29,3.26-2.07,6.46-4.16,6.51-6.34C7.94,395.72,40.31,341.26,97,300.36c40.1-28.91,85.21-46.88,134.21-54.63,30.62-4.84,61.39-8.7,92.08-13.11,23.84-3.43,47.22-9.13,70.76-14.06,31.84-6.67,64-12.05,95.39-20.63,32.18-8.79,63.41-20.28,93.13-35.49,13.25-6.79,25-15.76,36.28-25.31,32.57-27.72,58-61,77.57-98.81A92.51,92.51,0,0,0,707,2.15Z" transform="translate(0.02)"/><path class="cls-1" d="M754.16.25c-3,13.2-5.92,26.39-10.83,39.08-19.48,50.36-51.26,92-92.28,126.87-32.5,27.65-68.83,48.49-110.68,59.28-11.29,2.92-22.23,7.15-33.34,10.78-.23,1-7,1.25,1.14,1.17a364.57,364.57,0,0,0,45.2-11.28c19.41-6.3,39.4-11.2,57.81-20,64-30.64,118.26-72.55,154.58-134.47C778.18,50.5,787.59,24.46,792,.3,789.35.3,766.47.24,754.16.25Z" transform="translate(0.02)"/></g></svg>