<svg id="Layer_26" data-name="Layer 26" xmlns="http://www.w3.org/2000/svg" viewBox="0 0 792.78 497.73"><defs><style>.cls-1{fill:#9eb356;}</style></defs><title>Curva_VC_Up</title><g id="kXmKvN.tif"><path class="cls-1" d="M24.77,46.52c.36.72.71,1.44,1.06,2.16,4.48,5,8.56,10.35,13.81,14.7a77.93,77.93,0,0,0,9.12,7.11C59.49,78.15,71.27,84.13,83,90.22c13.24,8.19,27.81,13.44,42.86,17.57,10.19,2.8,20.28,6,30.63,8.23,15.27,3.35,30.78,5.45,46.19,8.06,15.81,2.69,31.84,3.17,47.83,4.12,24.36,1.45,48.68,3.42,73.14,3.39,11.75,0,23.57-.2,35.32.94C412.86,138,465.89,147.58,516.64,166c37.9,13.76,72.77,33.3,106.05,55.34,11.11,7.36,22,15,32.38,23.23C690.24,272.3,722,303,747.53,339.28c8.88,12.63,36.31,96.37,37.7,107.58,1.15,9.23,1.76,18.52,2.37,27.81.42,6.36.22,12.71.39,19.06,0,1.3,2.61,2.69,3.62,4,1.53-.45.41-172.93-.05-213.26-.53-46.29.05-277.9.05-283.6C728.11.51,659.36,1,596.74.73,484.54.3,372.35-.53,260.15.47c-82.44.74-164.87-.11-247.31.58C12,1.06,11.13,1,10.28,1,3.83,1,2,.87-.39.87,4.14,9.54,11.77,26.12,17.29,34.35,20,38.29,23,42,24.77,46.52Z" transform="translate(0.39)"/></g></svg>