<svg id="Layer_24" data-name="Layer 24" xmlns="http://www.w3.org/2000/svg" viewBox="0 0 57.94 535.48"><defs><style>.cls-1{fill:#fffffe;}.cls-2{fill:#9fb256;}.cls-3{fill:#4d6d35;}</style></defs><title>Oval_Right</title><g id="gvnUrk.tif"><path class="cls-1" d="M713.81,130.63q0-36.4,0-72.8c0-1.59.4-3.29-.78-5.17-4.07,8.21-7.49,16.39-10.77,24.63a635.59,635.59,0,0,0-32,107.78c-4.68,22.77-7.93,45.78-10.4,68.92-3.51,32.93-4.17,65.93-3.2,99,.55,18.72,2.33,37.4,4.58,56a644.71,644.71,0,0,0,14.52,80.46,456.73,456.73,0,0,0,29.74,84.21c2.28,4.82,4.53,9.65,6.78,14.45l.19,0c0-.08-.13-.18-.12-.25a19.1,19.1,0,0,0,.41-2.77q.09-31.93.13-63.87.09-57.79.18-115.59.24-132.55.49-265.09c0-2.38,0-4.76-.06-7.14A26.54,26.54,0,0,0,713.81,130.63Z" transform="translate(-656.29 -52.66)"/><path class="cls-2" d="M713.53,133.43a26.54,26.54,0,0,0,.28-2.8q0-36.4,0-72.8c0-1.59.4-3.29-.78-5.17-4.07,8.21-7.49,16.39-10.77,24.63a635.59,635.59,0,0,0-32,107.78c-4.68,22.77-7.93,45.78-10.4,68.92-3.51,32.93-4.17,65.93-3.2,99,.55,18.72,2.33,37.4,4.58,56a644.71,644.71,0,0,0,14.52,80.46,456.73,456.73,0,0,0,29.74,84.21c2.28,4.82,4.53,9.65,6.78,14.45l.19,0c0-.08-.13-.18-.12-.25a19.1,19.1,0,0,0,.41-2.77q.09-31.93.13-63.87c-2.06-.52-2-2.55-2.5-3.94-4.9-13.37-9.5-26.84-13.09-40.63a628,628,0,0,1-17.37-96q-2.44-24.6-3.24-49.26c-.58-18,0-36.08,1.1-54.11,1-16.2,2.4-32.34,4.37-48.44,1.64-13.4,3.79-26.7,6.25-40a648,648,0,0,1,16.83-69c2.18-7.2,4.74-14.29,7.12-21.42.69,9.26.65,18.39.73,27.52C713.14,128.51,712.58,131,713.53,133.43Z" transform="translate(-656.29 -52.66)"/><path class="cls-3" d="M714.07,127.65c-.08-9.13.51-24.74-.18-34-2.39,7.14-6.44,19.12-8.62,26.32a648,648,0,0,0-16.83,69c-2.46,13.26-4.61,26.56-6.25,40-2,16.1-3.36,32.24-4.37,48.44-1.13,18-1.68,36.08-1.1,54.11q.79,24.66,3.24,49.26a628,628,0,0,0,17.37,96c3.59,13.79,8.19,27.26,13.09,40.63.51,1.39.44,3.42,2.5,3.94q.09-57.79.18-115.59.24-132.55.49-265.09C713.6,138.19,714.09,130.1,714.07,127.65Z" transform="translate(-656.29 -52.66)"/></g></svg>