<svg id="Layer_15" data-name="Layer 15" xmlns="http://www.w3.org/2000/svg" viewBox="0 0 686.85 130.45"><defs><style>.cls-1{fill:#4b6c35;}.cls-2{fill:#a1b557;}</style></defs><title>Oval_Up</title><g id="yOQ1Yc.tif"><path class="cls-1" d="M99.76,265l97.4-.55q187.52-1,375-2.07,49.26-.27,98.53-.45c3.37,0,6.74.11,10.11.17-3,3.89-7.18,6.55-11,9.44-27.9,20.89-58.86,35.93-91.61,47.52C542.08,331.81,505,339.86,467,344.64c-20.66,2.6-41.38,4.08-62.15,4.83-13,.48-25.94.26-38.93-.31q-22.41-1-44.71-3.11c-16.5-1.57-32.85-4.07-49.11-7.13a500.46,500.46,0,0,1-74.63-20c-31.42-11.17-61.23-25.51-88.23-45.26C105.82,271.13,101.54,269.36,99.76,265Z" transform="translate(-41.03 -261.92)"/><path class="cls-2" d="M99.76,265c1.78,4.37,6.06,6.14,9.48,8.64,27,19.75,56.81,34.09,88.23,45.26a500.46,500.46,0,0,0,74.63,20c16.26,3.06,32.61,5.56,49.11,7.13q22.32,2.13,44.71,3.11c13,.57,26,.79,38.93.31,20.77-.75,41.49-2.23,62.15-4.83,37.95-4.78,75.08-12.83,111.17-25.59,32.75-11.59,63.71-26.63,91.61-47.52,3.86-2.89,8-5.55,11-9.44,15.11-.09,30.18,1,45.28,1.41.57,0,1.47.16,1.64.52.51,1.09-.49,1.83-1.07,2.56a207.26,207.26,0,0,1-24.73,26.05c-22.85,20.27-48.48,36.38-76,49.46-38.78,18.43-79.46,31-121.61,39a648.64,648.64,0,0,1-80.53,10,636,636,0,0,1-74.48.37c-56.5-3.12-111.77-12.83-165.17-31.95-37.48-13.41-72.8-31-104.34-55.55a226.06,226.06,0,0,1-37.36-36.06c-.57-.71-1.85-1.28-1.26-2.44.45-.88,1.57-.54,2.4-.54Q71.66,264.93,99.76,265Z" transform="translate(-41.03 -261.92)"/></g></svg>