<svg id="Layer_4" data-name="Layer 4" xmlns="http://www.w3.org/2000/svg" viewBox="0 0 755.3 507.45"><defs><style>.cls-1{fill:#4e6d36;}.cls-2{fill:#9eb357;}.cls-3{fill:#fefefd;}</style></defs><title>Failure</title><path class="cls-1" d="M385.5,566.91c-68.6-.58-135.15-11.71-198.47-39-45-19.43-85.45-45.56-117.51-83.17C47.3,418.61,29.24,390.07,22.1,355.81c-10-47.77.37-91.68,25.3-132.74,18.07-29.75,42.27-53.86,69.9-74.72,5.86-4.42,5.92-4.45.31-9.23-7.81-6.67-14.87-14-20-22.93-11.95-20.65-5.79-40.29,16-50C130,58.93,147.49,58.66,165,60.31c26.64,2.51,52,10,76.48,20.6a21.2,21.2,0,0,0,15,.9c99.81-27.42,199.65-27.92,299.36.43A25.13,25.13,0,0,0,574,81.08c24.63-10.71,50.18-18.17,77-20.6,15.07-1.36,30-1,44.64,3.4a55.09,55.09,0,0,1,11.23,4.79c16.25,9.25,21.59,25.21,14,42.31-6.06,13.65-16.5,23.57-28.18,32.36-5.47,4.11-5.5,4.12-.15,8.61,30.81,25.8,55.65,56.12,69.66,94.21,21.92,59.58,11.46,115-23.24,166.67-26.84,40-63.28,69.48-104.87,92.84-62,34.84-129.2,52.59-199.67,59A486.77,486.77,0,0,1,385.5,566.91ZM294.32,101.1l.07,0c-6.68-.77-13,1.51-18.86,3.75-11.52,4.38-21.84,3.22-33-1.64-13.87-6-27.86-12.1-42.7-15.64s-30-6.61-45.35-7.48c-11.76-.65-23.35.2-34.32,4.84-9,3.79-11.46,10.53-7.41,19.41,3.59,7.9,9.22,14.23,15.6,20S142.1,135,146.5,142.85c5,8.94,3.34,16.82-5.12,22.57a238.5,238.5,0,0,0-33.69,28c-18.9,18.76-34.86,39.72-45.77,64.29C48.77,287.31,44.64,318,50.81,349.8c8.3,42.72,31.06,76.8,64.15,104.27a319.6,319.6,0,0,0,72,44.71,445.08,445.08,0,0,0,95.46,30.65,490.24,490.24,0,0,0,61.95,8.65c13.22,1,26.5,2.33,39.81,1,22.49.66,44.85-1,67.13-3.8,62-7.83,120.77-25.44,174.82-57.31,37.07-21.87,69.43-49.07,91.94-86.34,28.43-47.08,33.84-96.32,11.09-147.3-13.76-30.83-35.67-55.29-61.89-76.09-10.26-8.15-10.4-18.43,0-26.68,10.85-8.63,21.94-17.17,30.5-28.32,12.71-16.52,8.76-27.27-11.6-31.44-17.22-3.52-34.38-1.89-51.35,1.62C608,89,582.43,98.37,556.41,106.33c-3.92,1.2-7.68,2.29-11.93,1.06-56-16.18-113.15-21.59-171.22-18.06-26.13,1.58-52.06,4.78-77.58,10.84A1,1,0,0,0,294.32,101.1Z" transform="translate(-18.35 -59.48)"/><path class="cls-2" d="M425.74,514.08c-3.41,5.1-8,5.87-13,2.33-3.07-2.15-4.74-5.52-7.7-9.11-4.65,12.67-10.83,23.57-20.86,31.82-13.32,1.29-26.6,0-39.82-1a490.24,490.24,0,0,1-61.95-8.65,445.08,445.08,0,0,1-95.46-30.65A319.6,319.6,0,0,1,115,454.07C81.87,426.6,59.11,392.52,50.81,349.8c-6.17-31.8-2-62.49,11.11-92.11,10.91-24.57,26.87-45.53,45.77-64.29a238.5,238.5,0,0,1,33.69-28c8.46-5.75,10.14-13.63,5.12-22.57-4.4-7.84-11.75-12.73-18.18-18.54s-12-12.11-15.6-20c-4-8.88-1.55-15.62,7.41-19.41,11-4.64,22.56-5.49,34.32-4.84,15.39.87,30.41,3.92,45.35,7.48s28.83,9.62,42.7,15.64c11.19,4.86,21.51,6,33,1.64,5.87-2.24,12.18-4.52,18.86-3.75-9.78,12.71-23.19,19.76-38.16,24.29-29.35,8.88-57.49,5.67-84.49-8.6-1-.5-2-.91-3.48-1.61.87,4.66,1.92,8.74,2.36,12.9,2.2,20.75-2.3,40.55-9.3,59.84C155,205.22,146.63,221.52,135.13,236c-2.8,3.53-2.81,7.66-3.25,11.56-7.36,64.47,13.24,118.79,60.83,162.47,38.17,35,84.17,53.84,135,61.49,7.87,1.18,15.74,2.38,23.74,2.24.92-2.28-1.07-3.06-2-4.16q-38.32-43.32-76.83-86.48c-3.19-3.56-3.91-7.4-2.76-11.24,2.06-6.91,5.34-13.34,11.69-17.55-1,4.54-3.17,8.83,1.37,13.21,15.2,14.68,28.95,30.75,43.3,46.25,23,24.89,45.88,50,70.16,73.69,2.25,2.2,2.19,3.44.2,5.84-3.4,4.11-6.64,8.44-8.39,13.64-.94,2.79-.54,5.12,1.94,6.86s4.76.78,6.54-1c2.9-2.85,5.59-5.93,8.21-9,2.1-2.5,3.66-3.12,6,0s5.35,5.65,7.95,8.54C420.78,514.58,423,515.27,425.74,514.08Z" transform="translate(-18.35 -59.48)"/><path class="cls-2" d="M295.68,100.17l-1.36.93A1,1,0,0,1,295.68,100.17Z" transform="translate(-18.35 -59.48)"/><path class="cls-1" d="M425.74,514.08c-2.74,1.19-5,.5-6.94-1.7-2.6-2.89-5.65-5.43-7.95-8.54s-3.88-2.5-6,0c-2.62,3.11-5.31,6.19-8.21,9-1.78,1.76-4.1,2.69-6.54,1s-2.88-4.07-1.94-6.86c1.75-5.2,5-9.53,8.39-13.64,2-2.4,2.05-3.64-.2-5.84-24.28-23.72-47.12-48.8-70.16-73.69-14.35-15.5-28.1-31.57-43.3-46.25-4.54-4.38-2.41-8.67-1.37-13.21l0,0a1.17,1.17,0,0,0,1.22-1.23c15.65-21.19,38.23-31.29,62.6-37.55,47.84-12.28,95.43-11.32,142.21,5.54A110.91,110.91,0,0,1,522.16,341a58,58,0,0,1,12.27,15c2.29,3.9,2.23,7.74-1.11,11.17-38.41,39.48-74.18,81.46-113.43,120.16-2.31,2.27-2.87,3.48-.56,6.18a70.37,70.37,0,0,1,7.38,11.07C428.57,507.79,429.05,511.21,425.74,514.08Z" transform="translate(-18.35 -59.48)"/><path class="cls-1" d="M601.1,275.87c0,8.49.79,17-1.84,25.33a35.16,35.16,0,0,1-8,13.82c-7.83,8.28-19.37,8-26.85-.56-13.09-15-11.48-47.08,3.37-60.32,3.09-2.74,2.34-3.81,0-6.12a128.13,128.13,0,0,1-21-26.47c-2.39-4-4.27-8.28-3.29-13.17.9-4.49,4.59-7.27,8.82-6.58,4.52.73,6.34,3.8,5.68,8-.53,3.39,1,5.79,2.86,8.05,16.36,19.61,34.47,37.25,56.73,50.19,3.75,2.18,8.74,3.89,6.86,9.74-1.22,3.8-6.85,4.57-12.89,2.15-3.4-1.37-6.7-3-10-4.46-.16-.22-.33-.44-.5-.65-.11.11-.33.28-.31.34A5.17,5.17,0,0,0,601.1,275.87Z" transform="translate(-18.35 -59.48)"/><path class="cls-1" d="M190.49,276.62c.34-4,3.18-6.07,6.33-7.8C219,256.68,236.47,239.13,253,220.5c3-3.38,5.87-6.85,4.84-12.31-.54-2.84,1.62-5.64,5.11-6.28a7.42,7.42,0,0,1,8.7,4.37c2.27,4.68.68,9.1-1.53,13.26-5.71,10.75-13.5,19.92-22.07,28.45-2.29,2.28-3.15,3.2-.14,6.14,12.3,12,14,27.16,11.19,43.22a41.22,41.22,0,0,1-3.23,10c-5.24,11.4-12.79,15.09-25.09,12.57-16.23-10.93-17.24-27.39-15.84-45-4.29,1.92-8.09,3.73-12,5.33C197.91,282.32,193.58,281.54,190.49,276.62Z" transform="translate(-18.35 -59.48)"/><path class="cls-2" d="M190.49,276.62c3.09,4.92,7.42,5.7,12.48,3.6,3.89-1.6,7.69-3.41,12-5.33-1.4,17.65-.39,34.11,15.84,45-10.68.91-23.32-7.63-27.86-18.86-.94-2.34-1.2-4.94-5-4.39-5,.73-10.21.64-12.72-5.09C183.12,286.85,185.29,281.11,190.49,276.62Z" transform="translate(-18.35 -59.48)"/><path class="cls-2" d="M207.63,386c-2.4,5.17-7.07,7.63-12.11,7-4.75-.57-6.75-5.44-8.07-9.73-2.66-8.59,4.8-25.85,12.77-30,2-1,4.09-1.83,6.12,0-6.93,6.51-7.71,15-7.29,23.71C199.3,382.09,201.86,385.8,207.63,386Z" transform="translate(-18.35 -59.48)"/><path class="cls-1" d="M207.63,386c-5.77-.2-8.33-3.91-8.58-9-.42-8.67.36-17.2,7.29-23.71,3.07-.29,4.93,1.46,6,4A29.65,29.65,0,0,1,212,382,8.42,8.42,0,0,1,207.63,386Z" transform="translate(-18.35 -59.48)"/><path class="cls-2" d="M282.81,353.16a1.17,1.17,0,0,1-1.22,1.23Z" transform="translate(-18.35 -59.48)"/><path class="cls-3" d="M601.1,275.87a5.17,5.17,0,0,1-.46-.69c0-.06.2-.23.31-.34.17.21.34.43.5.65Z" transform="translate(-18.35 -59.48)"/></svg>