<svg id="Layer_3" data-name="Layer 3" xmlns="http://www.w3.org/2000/svg" viewBox="0 0 659.8 460.83"><defs><style>.cls-1{fill:#4e6d36;}.cls-2{fill:#9eb357;}</style></defs><title>Success</title><path class="cls-1" d="M389.59,552.3c-60.91-.35-117.4-9.65-171.32-32.06-42.06-17.48-79.73-41.49-109.35-76.73-20.71-24.64-35.59-52.2-40.76-84.44-2.88-17.89-1.69-35.83-1-53.74C69.7,239,95,180.78,132,126.91A104.86,104.86,0,0,1,157.28,101a57.26,57.26,0,0,1,12.25-6.85c15.26-6.08,29.13-1.62,37.8,12.3,6.41,10.29,8.68,21.85,9.8,33.7.85,8.89.81,8.87,9,5.5,63-25.95,128.61-36.42,196.47-34,52.37,1.88,103.11,11.74,151.71,31.7,3.11,1.27,4.12.88,4.41-2.68.83-10.36,2.75-20.52,7.41-30,9.17-18.56,25.68-24.14,44.12-14.76,12.67,6.43,22.41,16.37,31.37,27.1,28.59,34.2,46.12,73.8,56.51,116.78a281.89,281.89,0,0,1,6.31,97.78c-4.8,43.59-24.59,79.64-54.64,110.55-35.48,36.49-78.66,60.72-126.22,77.63C492.89,543.79,440.52,552,389.59,552.3Zm-52-412.21,0,0c-2.47-.71-4.78.35-7.15.72a388.38,388.38,0,0,0-94.78,26.73c-8.54,3.66-16.94,6.32-26.2,3.42-4.35-1.36-7.16-3.94-8-8.7-1.15-6.22-1.21-12.51-1.7-18.77-.66-8.59-1.79-17-5.21-25-2.18-5.08-5.29-9.47-11.29-10.28-4.52-.61-8.54,1.31-12.33,3.57-10.85,6.46-18.09,16.57-25.56,26.25-21.47,27.81-34.79,59.59-43.84,93.28a358.58,358.58,0,0,0-11.87,72.44c-1,17.46-1.46,34.79,2.12,52.08,7.07,34.13,21.77,64.05,47.34,88.2a261.82,261.82,0,0,0,61.3,42.91,364.68,364.68,0,0,0,80.39,29.29,445.33,445.33,0,0,0,84.11,11.9c15.14.7,30.35.34,45.55-.45a470.05,470.05,0,0,0,66.63-8.31c5.07-1,10.59-.83,15.07-4.12a20.24,20.24,0,0,0,6.7-.86c29.4-7.64,57.7-18.14,84.51-32.48,32.3-17.28,61.07-38.92,83.35-68.4,9.53-12.61,19.5-24.94,25.23-40,14.62-38.37,16.49-77.81,10.16-118-3-19.22-9.57-37.29-16.57-55.46a254.33,254.33,0,0,0-47.48-77.69A50.19,50.19,0,0,0,623.71,111c-10.62-5.56-17.86-3-22.6,8a55,55,0,0,0-2.44,7.35c-2,7.38-1.82,15.09-3.14,22.54-2.2,12.43-8.88,20.67-21.27,19.88-3.84-.24-7-2.28-10.47-3.69-56.93-23.42-116.37-32-177.58-29.9-15.83.56-31.66,1.6-47.29,4.47C338.3,139.25,337.86,139.43,337.6,140.09Z" transform="translate(-66.32 -91.47)"/><path class="cls-2" d="M337.65,140.06c-15.64,8.07-31.89,14.84-47.89,22.16-18.37,8.41-36.77,16.8-56,23.2-25.55,8.52-46.21-3.59-51.71-30.17-.19-.92,0-2-1.21-2.82-2.38,1.59-3.61,4.26-5.35,6.46-19,24-33.43,50.41-39.86,80.61-9.69,45.53-1.2,88.19,22.2,127.89,25.82,43.8,63.71,74.29,109.1,96a292,292,0,0,0,95.29,26.74c1.23.14,2.5,0,4.73,0-5.23-6.14-10-11.78-14.77-17.34-22.55-26.05-44.45-52.65-67.62-78.15-2-2.22-2.79-4.4-1.5-6.94,3.13-6.12,5.36-12.81,10.73-17.56-.84,4.36.75,7.81,3.76,10.92q10.1,10.47,20,21.13c10.35,11.1,20.49,22.4,31,33.34,15.66,16.3,30.4,33.53,47.83,48.05,2.13,1.77,2.15,2.48.37,4.32-6.38,6.59-13.21,7.72-22.43,3.43-1.3-.61-2.66-1.74-4-.61s-.75,2.68-.43,4.1c1.34,6,5.23,9.51,11,11,8.42,2.23,15.63-.12,21.64-6.22,2.09-2.12,3.28-3.11,6-.24,8,8.35,17.51,9.38,27.69,3.74.84,1.85,2.64,1.58,4.18,1.87q23.08,4.31,46.18,8.62c1.89.36,3.72,1,5.58,1.53-4.48,3.29-10,3.13-15.07,4.12a470.05,470.05,0,0,1-66.63,8.31c-15.2.79-30.41,1.15-45.55.45a445.33,445.33,0,0,1-84.11-11.9,364.68,364.68,0,0,1-80.39-29.29A261.82,261.82,0,0,1,139.14,444c-25.57-24.15-40.27-54.07-47.34-88.2-3.58-17.29-3.12-34.62-2.12-52.08a358.58,358.58,0,0,1,11.87-72.44c9-33.69,22.37-65.47,43.84-93.28,7.47-9.68,14.71-19.79,25.56-26.25,3.79-2.26,7.81-4.18,12.33-3.57,6,.81,9.11,5.2,11.29,10.28,3.42,8,4.55,16.41,5.21,25,.49,6.26.55,12.55,1.7,18.77.88,4.76,3.69,7.34,8,8.7,9.26,2.9,17.66.24,26.2-3.42a388.38,388.38,0,0,1,94.78-26.73C332.87,140.41,335.18,139.35,337.65,140.06Z" transform="translate(-66.32 -91.47)"/><path class="cls-2" d="M338.92,139.64l-1.32.45C337.86,139.43,338.3,139.25,338.92,139.64Z" transform="translate(-66.32 -91.47)"/><path class="cls-1" d="M436.25,503.2c-10.18,5.64-19.68,4.61-27.69-3.74-2.75-2.87-3.94-1.88-6,.24-6,6.1-13.22,8.45-21.64,6.22-5.76-1.53-9.65-5.05-11-11-.32-1.42-.85-3,.43-4.1s2.71,0,4,.61c9.22,4.29,16.05,3.16,22.43-3.43,1.78-1.84,1.76-2.55-.37-4.32-17.43-14.52-32.17-31.75-47.83-48.05-10.52-10.94-20.66-22.24-31-33.34q-9.92-10.63-20-21.13c-3-3.11-4.6-6.56-3.76-10.92,15.32-14.53,33-25.12,52.75-32.63,32.27-12.25,65-14.94,98.46-6.3,25.15,6.5,48.27,17.33,68.11,34.52,6.08,5.26,6.72,8.73,1.27,14.55-30,32-59.41,64.44-90.31,95.51-3,3-5.88,6.08-9.58,8.15-2.35,1.32-1.34,2.23-.13,3.54,6.29,6.85,13.94,8.22,22.38,4,1.24-.62,2.5-2.13,3.89-1.21s1,2.95.75,4.49A12,12,0,0,1,436.25,503.2Z" transform="translate(-66.32 -91.47)"/><path class="cls-1" d="M517.57,211.25c17.72,1.11,33.47,8.06,48.52,16.77,17.31,10,33,22.1,46.07,37.37a69.41,69.41,0,0,1,11.39,17.35c1.1,2.53,2.38,5.6-.58,7.42-3.21,2-5.16-.6-7.06-3.05-22.67-29.2-52.29-48-87.58-58.19a28,28,0,0,0-13.89-.88,16.87,16.87,0,0,1-5.31.17,7.42,7.42,0,0,1-6.83-6,7.59,7.59,0,0,1,3.19-8.5C509.14,211.19,513.3,210.93,517.57,211.25Z" transform="translate(-66.32 -91.47)"/><path class="cls-1" d="M186.74,287.39c1.71-9.81,7.45-17.68,14-24.37,22.4-22.89,47.94-41.1,79.39-49.68a54.71,54.71,0,0,1,18.19-2.09c9,.64,13.31,6.58,10,13.93-3.34,3.28-7.55,3.83-11.72,2.85-4.81-1.12-9.34-.25-13.82.91-25.84,6.71-48,20.19-68.19,37.3A113,113,0,0,0,195,287.57C192,291.89,189.13,291.68,186.74,287.39Z" transform="translate(-66.32 -91.47)"/><path class="cls-1" d="M521.05,278.45c17.05,2.2,32.83,10.78,46.38,23.74,7.78,7.44,14.4,15.73,17.2,26.47a17.33,17.33,0,0,1,.49,6.24c-.26,2.42-1.3,4.45-3.81,5.06s-4.42-.71-5.51-2.94c-7.91-16.21-21.72-26.14-36.93-34.49-6-3.27-12.19-5.51-19.41-4.67-6.66.77-11.39-3.81-11.26-9.76C508.32,282.31,513,278.21,521.05,278.45Z" transform="translate(-66.32 -91.47)"/><path class="cls-1" d="M296.77,278.8c5.76,3.83,7.66,8,5.86,12.78s-6.23,7.09-12.78,6.21c-4.93-.67-9.34.86-13.49,2.91-16.76,8.24-31.67,18.63-40.57,35.85-2.22,4.29-4.68,4.62-9,1.75a23.42,23.42,0,0,1,1.6-14.56c4.69-11,12.35-19.65,21.61-26.85C263.74,286.22,278.52,277.94,296.77,278.8Z" transform="translate(-66.32 -91.47)"/><path class="cls-2" d="M186.74,287.39c2.39,4.29,5.26,4.5,8.29.18a113,113,0,0,1,19.57-21.33c20.17-17.11,42.35-30.59,68.19-37.3,4.48-1.16,9-2,13.82-.91,4.17,1,8.38.43,11.72-2.85.78,3.62-1,6.59-2.52,9.61A3.82,3.82,0,0,1,302,237.2c-21-1.89-38.22,8-55.36,17.74-18,10.21-34.2,22.7-47.4,38.84-2.34,2.87-5,6.08-9.31,3.73C185.78,295.28,185.48,291.48,186.74,287.39Z" transform="translate(-66.32 -91.47)"/><path class="cls-2" d="M296.77,278.8c-18.25-.86-33,7.42-46.75,18.09-9.26,7.2-16.92,15.83-21.61,26.85a23.42,23.42,0,0,0-1.6,14.56c-5.23-5.65-4.61-12.49-3.27-19.11,2.38-11.73,9.41-20.71,18.56-28,13.54-10.85,29-16.49,46.46-16.18C291.8,275,295.1,275.25,296.77,278.8Z" transform="translate(-66.32 -91.47)"/></svg>