<svg id="Layer_7" data-name="Layer 7" xmlns="http://www.w3.org/2000/svg" viewBox="0 0 711.31 569.77"><defs><style>.cls-1{fill:#4e6d36;}.cls-2{fill:#9eb357;}.cls-3{fill:#fefefd;}</style></defs><title>Warning</title><g id="pbPqIi.tif"><path class="cls-1" d="M357.28,593.11c-60.62-.51-121.24-10.67-178.92-35.55-41-17.69-77.84-41.49-107-75.74-20.25-23.75-36.65-49.76-43.22-80.95-8.86-42-.16-80.92,20.79-117.52,17.5-30.59,42.52-54.32,70.68-74.94a323.31,323.31,0,0,1,51.86-30.64c3.84-1.84,5.7-4.13,6.36-8.62,3.84-26.15,11.67-51,25.9-73.5,4.16-6.59,9-12.71,15.23-17.51,14.22-10.94,28.89-6.28,33.69,11,4,14.54,2.09,29.17-.53,43.7a88.82,88.82,0,0,1-2.62,11.34c-1.36,4.24-.22,5,3.86,3.88a451.53,451.53,0,0,1,55.18-10.77C376.67,128.16,444,132,510.41,150.39c1.41.39,3.13,1.72,4.25.66,1.42-1.36-.17-3.14-.57-4.69-4.38-16.77-7.51-33.68-5-51.07,1.37-9.51,4.29-18.55,14.53-22,10.46-3.5,18.35,2.08,25.19,9.08,13.44,13.74,21,30.88,27.25,48.67a178.24,178.24,0,0,1,10,45.89c.24,3.12,1.91,4.35,4.24,5.61,21.75,11.85,42,25.82,60,42.91,30.83,29.23,52.93,63.51,60,106.14,6.94,41.9-3.36,80.15-25.68,115.55-23.24,36.85-55.42,64.32-92.53,86.3-52.31,31-109.34,47.81-169.3,55.55A499.21,499.21,0,0,1,357.28,593.11Zm12.91-25.57c13.71.47,27.33-.81,40.92-2.29,53.07-5.8,103.83-19.56,151.32-44.34,34.84-18.18,65.81-41.22,89.72-72.87,44.49-58.89,43.36-128.09-3-185.27-19.32-23.82-43.3-42-69.83-57-2.77-1.57-5.81-2.83-7.52-5.79-3.88-6.74-7-13.72-8.13-21.56-1.64-11-3-22.1-6-32.84-4.82-17.32-11.11-34-22.14-48.53-1.57-2.06-3.36-5.33-6-4.58-2.28.65-2.18,4.26-2.54,6.73-2,13.78.15,27.27,3,40.69,2.08,9.79,3.95,19.48.39,29.4-2.84,7.9-8,10.94-16,8.42-49.31-15.59-99.89-21.76-151.46-20.25-11,.32-22,.54-32.81,2.45-10.12.1-20,2-30,3.62-18,2.87-35.81,6.43-53.13,12-9.87,3.2-17.81-2-17.85-12.47a63.83,63.83,0,0,1,2-13.95c3.38-15.29,6.76-30.59,5.37-46.44-.33-3.7.05-9.16-2.88-10.15-3.32-1.12-5.68,3.8-7.79,6.72-7.51,10.35-12.42,22-16.73,33.94-5.22,14.51-7.71,29.64-10.32,44.75-1.36,7.88-5,14.26-11.71,18.69-3.8,2.5-7.74,4.82-11.74,7-29.88,16.1-57.41,35.25-80.11,60.84-11.37,12.82-21.24,26.71-28.6,42.12-11.6,24.31-17,49.84-14,77,2.55,22.89,10.23,43.93,21.75,63.57,8.23,14,19.54,25.63,31.39,36.76,19.52,18.33,41.9,32.34,65.75,44a358.54,358.54,0,0,0,64.35,24,429.35,429.35,0,0,0,69.36,13.14c10.37,1,20.75,2.35,31.15,2.74C347.61,568.25,358.92,568.71,370.19,567.54Z" transform="translate(-24.65 -23.35)"/><path class="cls-1" d="M607.25,29.62c11.16-7.45,23-7.84,35.3-3.4,15,5.43,26.63,14.88,34.63,28.81,15.67,27.24,26.77,55.88,27.89,87.77.46,13.25-2,26.19-3.24,39.26-.19,2-1.91,3.09-2.56,4.79-6.27,3.13-11.55-.28-16.61-3-19.13-10.34-37.56-21.66-53.81-36.41C612.8,132.84,599,116.75,591,96.38c-8.46-21.63-8-42.17,9.09-60a3.09,3.09,0,0,0,1.17-2.66l0,0a1.23,1.23,0,0,0,1.33-1l.25-.16c1.67.14,2.87-.39,3.21-2.19l.09-.06A.84.84,0,0,0,607.25,29.62Z" transform="translate(-24.65 -23.35)"/><path class="cls-1" d="M701.46,200.75c7.35-4.86,15.1-6.75,23.2-2.18,8.38,4.72,11.32,12.45,11,21.71-2.24,7.68-5.55,14.54-14,17.15-8.66,2.69-16.26.45-21.77-6.47s-6.89-15.21-2.77-23.66c.65-1.35,1.77-2.49,1.62-4.14l0,0c1,0,1.63-.36,1.64-1.45l.29.26-.3-.25A.9.9,0,0,0,701.46,200.75Z" transform="translate(-24.65 -23.35)"/><path class="cls-2" d="M601.28,33.67a3.09,3.09,0,0,1-1.17,2.66C583,54.21,582.56,74.75,591,96.38c8,20.37,21.78,36.46,37.83,51,16.25,14.75,34.68,26.07,53.81,36.41,5.06,2.74,10.34,6.15,16.61,3-1,4.4-4.25,5.34-8.07,5.11a59.27,59.27,0,0,1-21.47-5.38c-46-21.46-76.18-55.82-85.23-106.72a50.39,50.39,0,0,1,5.59-34.32C592.83,40.73,595.9,36.07,601.28,33.67Z" transform="translate(-24.65 -23.35)"/><path class="cls-2" d="M698.77,203.16c.15,1.65-1,2.79-1.62,4.14-4.12,8.45-2.85,16.61,2.77,23.66s13.11,9.16,21.77,6.47c8.41-2.61,11.72-9.47,14-17.15,2.15,12.8-7.15,25.78-19.6,27.36-11.81,1.5-23.62-9.14-24.59-22.43C690.86,216.93,691.89,209,698.77,203.16Z" transform="translate(-24.65 -23.35)"/><path class="cls-2" d="M606,30.38c-.34,1.8-1.54,2.33-3.21,2.19A4,4,0,0,1,606,30.38Z" transform="translate(-24.65 -23.35)"/><path class="cls-2" d="M700.39,201.73c0,1.09-.67,1.45-1.64,1.45A1.69,1.69,0,0,1,700.39,201.73Z" transform="translate(-24.65 -23.35)"/><path class="cls-2" d="M701.46,200.75a.9.9,0,0,1-1.08,1Z" transform="translate(-24.65 -23.35)"/><path class="cls-2" d="M602.57,32.73a1.23,1.23,0,0,1-1.33,1C601.36,32.94,601.86,32.69,602.57,32.73Z" transform="translate(-24.65 -23.35)"/><path class="cls-2" d="M607.25,29.62a.84.84,0,0,1-1.13.7Z" transform="translate(-24.65 -23.35)"/><path class="cls-2" d="M330.06,159.87c-22.51,16.47-47,28.59-74.87,32.58-12,1.72-24.05,1.27-34.23-6.94-2.05-1.65-2.89-.38-4,1-28.52,34.65-50.61,72.48-58,117.56-7.64,46.83,1.39,89.84,30.89,127.46,26.78,34.14,62.69,54.22,104.41,64.49a122.19,122.19,0,0,0,16.09,2.73c-8.36-8.38-16.27-17-24.26-25.59q-22-23.52-43.76-47.18c-1.3-1.4-3.4-2.62-1.23-5,7.42-8.12,15.25-15.74,25.2-20.8-2.32,7.45.48,13,6.44,17.37a25.29,25.29,0,0,1,3.53,3.63c27.79,30.85,55.93,61.38,85,91,2.11,2.15,2.83,3.39.33,6-6,6.33-6.56,15.93-2,24,4.16,7.34,14.08,12.42,21.72,11.14,11.83-2,17.91-8.06,20.87-20.83,3,15.52-14.69,31.58-30.85,28.13-3.65-.78-6.92-2.51-10.39-3.7a1.57,1.57,0,0,0-.22-.38c-.05,0-.18,0-.27,0l.55.33c1.54,4.84,6.15,7.06,9.12,10.69-11.27,1.17-22.58.71-33.85.28-10.4-.39-20.78-1.7-31.15-2.74a429.35,429.35,0,0,1-69.36-13.14,358.54,358.54,0,0,1-64.35-24c-23.85-11.67-46.23-25.68-65.75-44-11.85-11.13-23.16-22.73-31.39-36.76-11.52-19.64-19.2-40.68-21.75-63.57-3-27.15,2.38-52.68,14-77,7.36-15.41,17.23-29.3,28.6-42.12,22.7-25.59,50.23-44.74,80.11-60.84,4-2.16,7.94-4.48,11.74-7,6.69-4.43,10.35-10.81,11.71-18.69,2.61-15.11,5.1-30.24,10.32-44.75,4.31-11.94,9.22-23.59,16.73-33.94,2.11-2.92,4.47-7.84,7.79-6.72,2.93,1,2.55,6.45,2.88,10.15,1.39,15.85-2,31.15-5.37,46.44a63.83,63.83,0,0,0-2,13.95c0,10.44,8,15.67,17.85,12.47,17.32-5.62,35.16-9.18,53.13-12C310,161.9,319.94,160,330.06,159.87Z" transform="translate(-24.65 -23.35)"/><path class="cls-1" d="M402.25,532.5c-3,12.77-9,18.83-20.87,20.83-7.64,1.28-17.56-3.8-21.72-11.14-4.57-8.05-4-17.65,2-24,2.5-2.64,1.78-3.88-.33-6-29.1-29.63-57.24-60.16-85-91a25.29,25.29,0,0,0-3.53-3.63c-6-4.41-8.76-9.92-6.44-17.37l.07,0c.86.51,1.06.05,1.06-.71v0a1.05,1.05,0,0,0,1.25-1c14.5-13.18,32.6-18.66,50.91-23.41,48.48-12.57,96.26-10,143.21,7.42,7.59,2.81,15,6.18,21.53,11.07a32.15,32.15,0,0,1,7.44,7.51c3,4.41,2.81,8-.85,11.85-31.14,32.86-61.13,66.79-92.87,99.09-1.8,1.83-2.49,3-.54,5.31C401.2,521.63,402.08,527,402.25,532.5Zm-19.88-7c-3.25-2.28-6.05-1.12-8.23,1.52-1.95,2.34-1.55,5.12.43,7.24,1.74,1.87,3.39,5.06,6.82,2.27C387.51,532.34,387.86,528.33,382.37,525.51Z" transform="translate(-24.65 -23.35)"/><path class="cls-1" d="M557.22,333c.21,8.38-1.1,16.45-5.3,23.86-7.73,13.59-23,14-31.3.85-8.12-12.85-7.25-34.41,1.86-46.53,9.24-12.29,24.21-10.78,30.79,3.15C556.06,320.25,557,326.56,557.22,333Z" transform="translate(-24.65 -23.35)"/><path class="cls-1" d="M216,303.59c11.47-1.63,18.61,2,23.48,12.74,6.63,14.58,6.22,29-1.92,43-1.77,3-4.59,4.81-7.06,7-15.12,1.67-22.78-3.51-26.81-17.58a52.58,52.58,0,0,1-.73-25.89C204.71,314.78,208.07,307.59,216,303.59Z" transform="translate(-24.65 -23.35)"/><path class="cls-1" d="M500.23,225c1.83-.9,3.11.52,4.51,1.14,18,7.92,32.43,20.46,45.31,34.95,14,15.72,26.22,32.64,33.75,52.52,2,5.38,3.66,10.88,3.3,16.76-.14,2.33-1.2,4-3.53,4.21-2,.18-3.15-1.3-3.37-3.12-1.32-10.69-6.57-19.89-11.9-28.8-17.45-29.2-38.17-55.65-66.55-75.25a7,7,0,0,1-1.44-1.39C500.15,225.8,500.25,225.39,500.23,225Z" transform="translate(-24.65 -23.35)"/><path class="cls-1" d="M178.32,333.65c-4.21,2.17-6,.23-6.36-3.85a26.61,26.61,0,0,1,1.72-11.94c16.09-40.2,41.83-72,80.89-92,1.12-.58,2.35-.94,4.65-1.85-2.25,4.86-6.75,5.54-9.13,8.46-3.29,2.6-6.8,5-9.83,7.84a275.66,275.66,0,0,0-46.35,56.52c-4.43,7.26-9.41,14.36-11.18,23l.05-.07C179.23,323.72,178.92,328.73,178.32,333.65Z" transform="translate(-24.65 -23.35)"/><path class="cls-2" d="M216,303.59c-7.94,4-11.3,11.19-13,19.3a52.58,52.58,0,0,0,.73,25.89c4,14.07,11.69,19.25,26.81,17.58-7.82,6-17.83,5.48-25.06-1.93-11-11.32-12.47-25.18-9.32-39.9,1.54-7.18,4.46-13.83,10.21-18.69C209,303.58,211.93,300.56,216,303.59Z" transform="translate(-24.65 -23.35)"/><path class="cls-2" d="M182.73,319.81c1.77-8.6,6.75-15.7,11.18-23a275.66,275.66,0,0,1,46.35-56.52c3-2.87,6.54-5.24,9.83-7.84,2.17,2.61,2.4,4.92-.53,7.3-27.28,22.1-50.21,47.82-66.07,79.42C183.36,319.47,183,319.61,182.73,319.81Z" transform="translate(-24.65 -23.35)"/><path class="cls-2" d="M178.32,333.65c.6-4.92.91-9.93,4.46-13.91-.39,4.12-2.54,7.88-2.44,12.13A1.89,1.89,0,0,1,178.32,333.65Z" transform="translate(-24.65 -23.35)"/><path class="cls-2" d="M268.71,398.48a1.05,1.05,0,0,1-1.25,1Z" transform="translate(-24.65 -23.35)"/><path class="cls-2" d="M267.45,399.44c0,.76-.2,1.22-1.06.71A.81.81,0,0,1,267.45,399.44Z" transform="translate(-24.65 -23.35)"/><path class="cls-3" d="M361.07,556.85l-.55-.33c.09,0,.22,0,.27,0a1.57,1.57,0,0,1,.22.38Z" transform="translate(-24.65 -23.35)"/><path class="cls-2" d="M381.39,536.54c-3.43,2.79-5.08-.4-6.82-2.27-2-2.12-2.38-4.9-.43-7.24,2.18-2.64,5-3.8,8.23-1.52A12.72,12.72,0,0,0,381.39,536.54Z" transform="translate(-24.65 -23.35)"/><path class="cls-3" d="M381.39,536.54a12.72,12.72,0,0,1,1-11C387.86,528.33,387.51,532.34,381.39,536.54Z" transform="translate(-24.65 -23.35)"/></g></svg>