<svg id="Layer_23" data-name="Layer 23" xmlns="http://www.w3.org/2000/svg" viewBox="0 0 728.01 371.58"><defs><style>.cls-1{fill:#506f38;}.cls-2{fill:#8ba24f;}</style></defs><title>Friends</title><g id="thSJtP.tif"><path class="cls-1" d="M169.83,479.16c-33.05,10.37-63.47,5.86-89-18.29C63.29,444.22,59,422,60.43,398.59c2.09-34.33,15.74-64.72,33.05-93.72a217.37,217.37,0,0,1,21-30.1c4.79-5.62,4.91-11.51,1.16-17.82A40.34,40.34,0,0,0,105.79,246c-7.16-5.67-15.81-4.44-21.19,3-4.95,6.81-5.61,14.45-2.93,22.19,1.85,5.3,4,10.7,9.52,13.56a1.88,1.88,0,0,1,1.2,2.17,2.34,2.34,0,0,1-2,1.53,32.15,32.15,0,0,1-11.57.22C45.47,283.42,25.34,251.82,34,218.11c5.84-22.68,19.75-39.77,38.75-52.57,26.76-18,56-25,87.79-16.23a59.15,59.15,0,0,1,31.88,21.28c2.37,3.09,3.23,2.19,4.73-.54A68.83,68.83,0,0,1,209.25,154a36.27,36.27,0,0,1,9-6.6c11.76-5.94,22.34-.74,24.17,12.25.61,4.33,1.47,4.76,5.31,2.68,15-8.13,31.47-11.19,48.26-12.23,17.22-1.06,34.37-.47,50.74,6,2.08.83,3.1.45,3.39-1.77a8.58,8.58,0,0,1,.34-1.3c3-9.6,10.91-13.5,20.44-10,6.5,2.37,11.58,6.69,16,11.87a86.81,86.81,0,0,1,16.23,28.18,22.82,22.82,0,0,0,7.12,10.25C424,205.19,431,220.76,433.21,238.6a80.93,80.93,0,0,1-3,34.1c-.94,3.11-.24,4.29,2.86,4.68a78.54,78.54,0,0,1,16,4.26c1,.36,2.26,1.54,3.25.42s-.14-2.24-.54-3.3c-6.09-16.25-8.53-33-5.89-50.18,2.72-17.77,9.5-33.31,26-42.8a3.12,3.12,0,0,0,1.7-3.66,31.78,31.78,0,0,1-.45-6.22c.63-11.1,8.86-17.59,19.83-15.86a32.69,32.69,0,0,1,16,7.48c1.35,1.12,2.35,1.84,4.29.94,15.92-7.41,32.84-8.27,50-7.26a119.27,119.27,0,0,1,29.86,5.43c3.09,1,4.45.28,6-2.31a95.08,95.08,0,0,1,38.66-35.69c32.93-16.63,73.88-8,98,20.44,17.73,20.91,24.77,45.14,24.18,72-.32,14.48-3.64,28.3-9,41.77s-14.22,23.69-24.8,32.93a24.36,24.36,0,0,0-2.92,2.72c-1.48,1.8-3.14,3-5.35,1.57s-1.72-3.68-.8-5.63a29.81,29.81,0,0,0,3-12.52c0-1,.05-2.09,0-3.13-1-10.9-8.63-19.53-17.71-20.17-10.34-.73-19.78,6.61-22.61,17.34-1,3.91-2.17,7.7-1.65,11.84a21.47,21.47,0,0,0,4.7,11.34,92,92,0,0,1,20.69,52.08c2.2,31-2.6,60.65-21.34,86.4-20.65,28.38-48.25,44.56-84.09,44.28-12-.1-23.75-2.49-34.17-9.09-1.5-.95-2.49-.38-3.68.19-7.25,3.41-14.58,4.35-22,.5-1.75-.91-2.69-.12-3.9.9-2.83,2.38-5.72,4.69-9.35,5.79-1.8-.4-3.48-1-4.23-2.9-.62-1.57-1.78-1.75-3.27-1.48-7.72,1.4-15.43,2.87-23.18,4.1-10.95,1.73-21.78,5.2-32.12-3.37-4.21-3.49-6.56-6.88-7.23-11.9-.22-1.62-.21-3.27-.39-4.9-1.61-14.44-3.29-28.88-4.84-43.33-.27-2.46,1.37-3.84,3.66-4.33,1.89-.4,3.8-.71,5.71-1,19.45-2.42,38.73-6.35,58.33-7.21,6.93-.3,10.19-2.66,10.59-9.56.14-2.44,1.47-4.81,2.26-7.21,1.28-1.44,2.47-3.29,4.8-2.08,2,1.05,1.62,3.08,1.41,4.8-1,7.84-2.33,15.64-3,23.5-1.2,13.25-1.06,26.45,3.07,39.31,5.18,12.19,12.55,14.52,22.85,6.4,11-8.69,19.09-19.93,25.75-32.25,9.35-17.29,15.65-35.68,20-54.76,2.33-10.14,3.25-20.52,3.84-30.9.09-1.55.74-4.13-2.52-3.13-10.92,3.37-22.16,4.13-33.5,4.13-1.29-.33-2.6-.6-3.87-1-1.88-.59-3.72-1.32-4-3.64a4,4,0,0,1,2.74-4.55c8.48,0,17,.8,25.42-.76,17.48-3.23,33.53-9,42.83-25.68C649,283.41,652.8,259,644.86,233.41c-2.35-7.54-.38-12.91,4.54-18,6-6.2,7.43-12.65,3.88-19-3.18-5.65-11.33-8.49-18.79-7.1-4.66.87-8.46,3.67-12.92,4.88-1.54-1.14-3.43-2-4.55-3.47-4.62-6-10.83-9.76-17.62-12.68-14.3-6.15-29.36-8.92-44.83-9.41s-30.73.87-45.1,7.36c-2.68,1.21-4.93.27-7-1.43a30.31,30.31,0,0,0-10.91-6c-3.75-1-7.14-.36-9.55,3s-3.24,10.5-1.42,13.07c2.66,3.75,2.36,6.26-1.7,8.3-12.1,6.08-18.37,16.51-21.07,29.08-6.05,28.2-.06,53.88,17.53,76.78a58.93,58.93,0,0,1,5.74,8.53c.85,1.62,1.64,3.22.77,5.08a8,8,0,0,1-9.16-1c-3.25-2.61-6.79-4.9-9.78-7.77a63.86,63.86,0,0,0-33.61-17.3c-2.54-.46-3.9-.26-5.18,2.32a106.34,106.34,0,0,1-19.35,27.09c-1.69,1.74-2.08,3.32-.06,5.33a66.68,66.68,0,0,1,6.32,7.5c12.19,16.47,19,35.37,24.16,54.89,6.66,25.05,9.37,50.55,7.15,76.44a64.09,64.09,0,0,1-2.58,14.9c-1,3.06-3,4.78-6.4,4.24s-3.65-3-3.54-5.75A39.93,39.93,0,0,1,430,468c2.56-15.11,2-30.28.53-45.41-.47-4.75-.26-9.79-2.56-14.29-.05-.42-.1-.84-.16-1.26.33-1.46.63-2.91-.68-4.1-.08-.43-.15-.86-.23-1.3.36-1.17.45-2.29-.62-3.19-3.4-17.54-10.88-33.75-16.67-50.5a77,77,0,0,0-13.44-23.12,12.55,12.55,0,0,0-1.47-1.69c-4.35-3.76-4.56-4.08-.75-8.4,7.55-8.53,14.8-17.36,19.94-27.47,12.55-24.68,14.31-61.75-9.25-84.42-.76-.73-1.43-1.87-2.31-2.07-6.35-1.44-7.06-6.83-8.74-11.75-4.09-12-9.69-23.13-19.1-32a39.29,39.29,0,0,0-3.78-3.16c-2.77-2-6-3.65-9.1-1.55a10.28,10.28,0,0,0-4.32,10.18c.32,2.42,1.27,4.83-1.25,6.44s-4.84.26-7-1.19c-8.36-5.54-18-7.26-27.6-8.33a160.13,160.13,0,0,0-65,6.27,65.63,65.63,0,0,0-17.76,8.37c-2.32,1.56-3.92,2-4.08-2-.12-2.92-.69-5.89-.82-8.86-.2-4,0-8.36-4.37-10.47s-7.47.9-10.62,3c-8.29,5.43-13.12,13.72-17.21,22.35-2.79,5.88-6.08,12.18-5.37,18.65.56,5.05-1.55,7.49-4.54,10.19-16.16,14.64-23.24,32.73-21.86,54.55,1.35,21.22,10.68,38.06,26.48,51.69,2.19,1.89,4.51,4,7.79,4,1.75,2.39,4.48,4.34,3.5,7.93a1.85,1.85,0,0,0-.68,2.27l-.12.31c-2.54.46-5.53-.8-7.49,1.84-5.05,6.82-10.17,13.6-14.27,21.07-10.41,19-16.65,39.41-20.3,60.69-.92,5.36-.5,9.85,4.17,13.9,4.46,3.86,8.07,8.71,12.71,12.49,7.33,6,14.88,11.51,24.4,13.42,5.75,1.15,10.85.06,15.12-4.43,5.32-5.59,6.59-12.56,7-19.74.77-12.89-2.62-25.09-7-37-.95-2.56-1.27-5.57-3.83-7.34l0,.05a1.56,1.56,0,0,0-.35-1.94c-2.85-7.46-7.29-14-11.75-20.55a34.88,34.88,0,0,1-2.29-3.31c-1.45-2.76-1.74-5.66,1.07-7.62s5.5-1.16,7.58,1.32a91.47,91.47,0,0,1,10.63,15.49c1.78,3.34,2.92,2.79,4.67.1,2.91-4.47,6.07-8.77,9-13.24,2.42-3.7,9-6.29,12.78-4.28,16.62,8.91,33.15,18,49.71,27,3,1.62,2.65,3.29,1.07,6.11-15.89,28.34-35,54.59-52.5,81.91-4,6.25-4.55,6.42-11.49,3.81a7.71,7.71,0,0,0-1.74-.28c-4.82-4.29-9.53-8.47-16.84-5.05-2.78,1.3-6,1.12-9.22.64-13.12-2-23.63-8.7-32.84-17.76-3.86-3.81-7.3-8.05-10.95-12.11-1.54,1.2-1,2.66-1,3.89a124.33,124.33,0,0,0,3,24.74C167.1,467.37,170.88,472.73,169.83,479.16Zm307.41-58.33c1.62.21,3.24.47,4.65-.7l17.57-2.92c7.75,0,15.31-1.72,22.95-2.74,2.21-.3,2.06-2.67,2.29-4.35.19-1.38-1-1.94-2.07-1.56-4.88,1.72-10.23,1.49-15,3.68a3.45,3.45,0,0,0-.88-.12l-49.09,7.19c-1.27.19-1.9.82-1.7,2.08q1.69,11.16,3.44,22.31c.46,8,2.74,15.79,2.84,23.85,0,2.15,1.48,1.57,2.88,1.29,10.76-2.15,21.52-4.35,32.39-5.91,8.66-1.25,17.27-2.81,25.91-4.24,1-.17,2.32-.14,2.14-1.65-.16-1.33-.59-2.75-2.27-2.88a14.62,14.62,0,0,0-3.56.15q-22,3.54-43.9,7.15c-5.47.89-6.27.43-7.52-5.16-2.23-10-3.41-20.17-4.67-30.33a.38.38,0,0,1,.05-.5c2.25-2.29,6-1.43,8.17-3.88l0,.06c1.9.21,3.86.76,5.48-.85Zm-219-50.45c-.36,1.15.46,1.24,1.24,1.38,6.37,4.63,13.35,8.28,20.09,12.32,2.52,1.51,3.88,2.68,1.95,6.24-9.52,17.62-20.87,34.11-31.24,51.2-2.76,4.55-5.08,9.41-8.69,13.41-2.85.12-5.73,1.35-8.36-1.22-1.43-1.41-2.81.17-3.57,1.42-.91,1.48.49,2,1.49,2.64,2.39,1.48,4.76,3,7.14,4.49,2.74,1.12,2.72-1.59,3.51-2.75C259.51,433.38,276,406.42,295,380.84c-3.81-2.22-7.58-4.56-11.48-6.66-9.94-5.35-19-12.28-29.3-16.92-5.49-4.69-6-4.65-9.8.76-.51.73-1,1.44-1.58,2.16-4.24,5.74-8.46,11.5-12.74,17.21-.94,1.25-1.38,2.5-.07,3.52s2-.37,2.7-1.29c2.84-3.82,5.73-7.6,8.5-11.47,2-2.74,4-3.36,7.23-1.77s5.82,4.2,9.68,3.88Zm383.1-235.59c-15.77,7.1-27.27,18.91-36.56,33.17-1.29,2-.53,2.8,1.3,3.68,5.67,2.72,11.17,5.83,15.37,10.6,2.11,2.4,3.89,2.76,6.38.93a9.29,9.29,0,0,1,2.45-1.07c12.4-4.58,26.42.16,32.36,10.91s2.53,23.27-8.65,31.32c-2.59,1.87-2.19,3.72-1.08,5.71,2.68,4.83,3.68,10.23,5.55,15.33.74,5.89,2.08,11.77,1.59,17.72-.83,10.08-1.92,20.15-5.24,29.8-5.45,15.83-12.63,30.38-28.84,38-1.93.91-2.77,2.19-2.39,4.23,1.27,7,.73,13.88,0,20.89-2.16,20.74-8.58,40.17-18.16,58.52-9.22,17.67-17.64,35.94-32.8,49.75-2.08,1.9-1.06,2.82,1.36,3.45a84,84,0,0,0,17.17,2.46c10.31.52,20.53-.88,30.57-2.93,8.43-1.72,17-3.56,24.61-7.79,18.11-10,29.78-25.91,38.44-44.05,10.92-22.85,15.21-46.93,10.38-72.11-2.06-10.72-5-21.08-13-29.39-3.75-3.9-7.41-8.24-9.33-13.51-3.83-10.54-2.31-21,1.86-30.92,5.14-12.22,16.42-19.07,28.18-18,11.93,1.13,20.79,9.76,24.09,23.09.84,3.43-.25,7,1,10.52a14.16,14.16,0,0,0,4.22-4.36c18.53-25.56,24.78-54.06,18.41-84.73-6.09-29.36-21.89-52.08-50.46-63.88C680.3,124,660.55,125.36,641.34,134.79Zm-542,29a8.9,8.9,0,0,0-2.61.35c-21.3,9.65-38.56,23.78-48.68,45.32-11.93,25.41-4.74,49.84,18.43,64,1,.59,1.9,1.9,3.15,1.13,1.53-.93.41-2.35.28-3.61-.72-7-1-14,1.43-20.77,6-17,25.15-23.5,39.24-13.44,9.11,6.51,15.16,15,16.92,26.18,1,6.5.77,13.11-3.3,18.46C107,304,92,328,82,354.76c-8.37,22.42-14,45.33-8.9,69.46,4.19,20,15.67,34.24,34.4,42.83,15.34,7,31.68,7.5,48,8.66,4.39.31,4.47-1.17,3.19-4.77a106.55,106.55,0,0,1-5.8-34.17c-.27-17.13,2.54-33.86,7.32-50.17,6.29-21.48,14.95-41.86,31.52-57.84,3.82-3.68,3.8-3.75-.66-7-9.12-6.55-15.94-15-21.35-24.83-8.12-14.71-10.57-30.53-9.68-47.07.21-1,.47-2,.63-3.07,2.75-18.11,10.12-33.58,25.44-44.5.69-.5,1.73-1.31,1.68-1.91-.44-6.11,4.1-11.95-1-18.51-5-6.41-9.67-13-16.88-16.89C146.67,152.52,123.05,153.47,99.33,163.74Z" transform="translate(-32 -120.21)"/><path class="cls-2" d="M428,408.33c2.3,4.5,2.09,9.54,2.56,14.29,1.51,15.13,2,30.3-.53,45.41a39.93,39.93,0,0,0-.2,5.37c-.11,2.71.24,5.22,3.54,5.75s5.39-1.18,6.4-4.24a64.09,64.09,0,0,0,2.58-14.9c2.22-25.89-.49-51.39-7.15-76.44-5.18-19.52-12-38.42-24.16-54.89a66.68,66.68,0,0,0-6.32-7.5c-2-2-1.63-3.59.06-5.33a106.34,106.34,0,0,0,19.35-27.09c1.28-2.58,2.64-2.78,5.18-2.32a63.86,63.86,0,0,1,33.61,17.3c3,2.87,6.53,5.16,9.78,7.77a8,8,0,0,0,9.16,1c1,3.73,2.14,7.43,2.9,11.21,3.44,17,12.17,31.52,22.12,45.33a45.75,45.75,0,0,0,16.58,14c2.38,1.21,4.58,2.76,6.87,4.16-.79,2.4-2.12,4.77-2.26,7.21-.4,6.9-3.66,9.26-10.59,9.56-19.6.86-38.88,4.79-58.33,7.21-1.91.24-3.82.55-5.71,1-2.29.49-3.93,1.87-3.66,4.33,1.55,14.45,3.23,28.89,4.84,43.33.18,1.63.17,3.28.39,4.9.67,5,3,8.41,7.23,11.9,10.34,8.57,21.17,5.1,32.12,3.37,7.75-1.23,15.46-2.7,23.18-4.1,1.49-.27,2.65-.09,3.27,1.48.75,1.91,2.43,2.5,4.23,2.9-11.95,9.09-25.39,12.31-40.33,11.44-16.39-.95-32.83-1.24-49.26-1.29-22.25-.07-44.47-1.79-66.73-1.13a27.11,27.11,0,0,1-17-4.8c-6.9-4.91-7.72-12.34-2.18-18.86A29.36,29.36,0,0,0,371,473.83c11.6-.13,21.8-4.54,31.52-10.2a83,83,0,0,0,18.84-15c2.45-2.62,2.77-5.84.21-8.4-2.41-2.41-5.4-2-8,.18-1.72,1.42-3.46,2.82-5.13,4.3-9,7.95-19.17,13.87-30.94,16.11-10.76,2.05-20,.28-24.62-10.09a33,33,0,0,1-2.54-17.47,14.18,14.18,0,0,1,2.16,2.8c4.09,9.63,12.83,12.4,21.8,14.31,7.4,1.58,13.75-1.93,19.36-6.3a204.34,204.34,0,0,0,22.54-21c3.26-3.44,6.11-7.37,10.51-9.56C429.09,412.33,427.26,410,428,408.33Z" transform="translate(-32 -120.21)"/><path class="cls-1" d="M257.94,279.19c-.28-3.22,1-5.46,3.46-7.68,8.42-7.45,18.54-10.68,29.26-12.43,15-2.45,29.75-1.73,43.95,4.28a32.55,32.55,0,0,1,8.49,4.95c4.26,3.59,4.62,6.84,1.16,11.14-11.33,14.08-23.51,27.43-35.46,41-2.22,2.5-4.65,3.7-7.89,2.1-1.45-1-3-1.86-4.34-2.9-8.39-6.31-14.55-14.79-21.74-22.27C269.1,291.4,264.12,284.73,257.94,279.19Z" transform="translate(-32 -120.21)"/><path class="cls-2" d="M217.23,382.5c2.56,1.77,2.88,4.78,3.83,7.34,4.41,11.93,7.8,24.13,7,37-.43,7.18-1.7,14.15-7,19.74-4.27,4.49-9.37,5.58-15.12,4.43-9.52-1.91-17.07-7.46-24.4-13.42-4.64-3.78-8.25-8.63-12.71-12.49-4.67-4.05-5.09-8.54-4.17-13.9,3.65-21.28,9.89-41.68,20.3-60.69,4.1-7.47,9.22-14.25,14.27-21.07,2-2.64,4.95-1.38,7.49-1.84-.22,3.29-2.18,5.83-3.95,8.33-15.47,21.78-18.3,45.71-12.21,71.14a42,42,0,0,0,8.1,17.26c4.9,6,11.88,4.72,14.11-2.78C216.6,408.74,219.39,395.94,217.23,382.5Z" transform="translate(-32 -120.21)"/><path class="cls-1" d="M350.27,433.3a33,33,0,0,0,2.54,17.47c4.59,10.37,13.86,12.14,24.62,10.09,11.77-2.24,22-8.16,30.94-16.11,1.67-1.48,3.41-2.88,5.13-4.3,2.64-2.18,5.63-2.59,8-.18,2.56,2.56,2.24,5.78-.21,8.4a83,83,0,0,1-18.84,15c-9.72,5.66-19.92,10.07-31.52,10.2a29.36,29.36,0,0,1-21.41-8.26c-15.15-15.06-12.92-32.79-6.77-50.41A107.66,107.66,0,0,1,385.51,360c2.59-1.73,5.18-3.6,8.42-3.94,1.18-.12,2.48-.21,3.24,1a2.75,2.75,0,0,1-.57,3.66c-1.81,1.75-3.7,3.44-5.66,5-19,15.63-33.27,34.49-39.35,58.78A89.07,89.07,0,0,0,350.27,433.3Z" transform="translate(-32 -120.21)"/><path class="cls-2" d="M169.83,479.16c1-6.43-2.73-11.79-4-17.7a124.33,124.33,0,0,1-3-24.74c0-1.23-.56-2.69,1-3.89,3.65,4.06,7.09,8.3,10.95,12.11,9.21,9.06,19.72,15.78,32.84,17.76,3.21.48,6.44.66,9.22-.64,7.31-3.42,12,.76,16.84,5.05-8.16,10.3-19.5,15-31.88,17.27C190.62,486.43,179.76,485.21,169.83,479.16Z" transform="translate(-32 -120.21)"/><path class="cls-2" d="M204,317.11c-3.28,0-5.6-2.07-7.79-4-15.8-13.63-25.13-30.47-26.48-51.69-1.38-21.82,5.7-39.91,21.86-54.55,3-2.7,5.1-5.14,4.54-10.19-.71-6.47,2.58-12.77,5.37-18.65,4.09-8.63,8.92-16.92,17.21-22.35,3.15-2.06,6.42-5,10.62-3s4.17,6.45,4.37,10.47c-6.18-.41-12.1-.1-16.95,4.64a37.45,37.45,0,0,0-8.61,12.93c-4.13,10.35-9.61,20.2-11.47,31.39-.4,2.37-2.36,4.12-3.95,5.89a28.23,28.23,0,0,0-6.21,9.76c-7,21-9.75,42,2.06,62.28,4.42,7.57,9.68,14.65,13.63,22.53C203,314.09,204.24,315.3,204,317.11Z" transform="translate(-32 -120.21)"/><path class="cls-1" d="M349.66,204.48c7.51.19,14.22,2.91,20.6,6.61a64.42,64.42,0,0,1,23.22,22.43c1.15,1.9,2.73,4.17.52,6s-4.25,0-5.83-1.57c-2.19-2.23-4.27-4.57-6.26-7-9.35-11.3-20.7-19.59-35-23.51-1-.27-2.38-.37-2.31-1.64.1-1.7,1.72-1.22,2.82-1.33C348.16,204.42,348.91,204.48,349.66,204.48Z" transform="translate(-32 -120.21)"/><path class="cls-2" d="M257.94,279.19c6.18,5.54,11.16,12.21,16.89,18.17,7.19,7.48,13.35,16,21.74,22.27,1.39,1,2.89,1.94,4.34,2.9-2.69,1.58-5.47,1-8.19.22a27,27,0,0,1-9.53-4.72c-11.12-8.85-19.91-19.5-25.17-32.84C257.25,283.24,256.71,281.2,257.94,279.19Z" transform="translate(-32 -120.21)"/><path class="cls-1" d="M350.94,228.52c2.85.11,5.19.65,7.11,2.17a35.28,35.28,0,0,1,12.41,18.12c.57,2,.71,4-1.46,5.07-2,1-3.46-.37-4.61-1.77-2.93-3.56-5.82-7.16-8.59-10.85-2.42-3.23-5.51-3.79-9.11-2.7-2.71.82-5.36,1.83-8.1,2.54-1.38.36-3,.77-4.08-.8-1.18-1.82-.44-3.64.79-4.93C339.64,230.83,345.29,229.17,350.94,228.52Z" transform="translate(-32 -120.21)"/><path class="cls-1" d="M248.46,232.51c5,.78,10.21,2.79,13.54,8,1.06,1.63,1.64,3.83,0,5.39s-3-.22-4.41-.9c-2-1-3.9-2.22-6-3.06-5.32-2.17-9-1.31-12.76,3.11-2.88,3.41-5.75,6.89-7,11.32-.44,1.53-1.08,2.89-3,2.74-2-.17-2.09-1.78-2.21-3.3C225.85,245.1,237.29,232.45,248.46,232.51Z" transform="translate(-32 -120.21)"/><path class="cls-1" d="M251.59,211.08c-11.13,3.12-21,8.32-28.85,17-3.67,4.07-6.7,8.35-8.15,13.68-.43,1.55-.84,3.53-3.07,3s-1.85-2.49-1.71-4.08a19.1,19.1,0,0,1,1-4.34c4.87-14.75,25.16-28.1,40.79-26.89Z" transform="translate(-32 -120.21)"/><path class="cls-2" d="M427.14,403c1.31,1.19,1,2.64.68,4.1A5.37,5.37,0,0,1,427.14,403Z" transform="translate(-32 -120.21)"/><path class="cls-2" d="M251.59,211.08v-1.54c.69-.2,1,.18,1,.77A.72.72,0,0,1,251.59,211.08Z" transform="translate(-32 -120.21)"/><path class="cls-2" d="M426.29,398.48c1.07.9,1,2,.62,3.19A3.52,3.52,0,0,1,426.29,398.48Z" transform="translate(-32 -120.21)"/><path class="cls-2" d="M206.85,327.31a1.85,1.85,0,0,1,.68-2.27A2,2,0,0,1,206.85,327.31Z" transform="translate(-32 -120.21)"/><path class="cls-2" d="M216.91,380.61a1.56,1.56,0,0,1,.35,1.94C216.46,382,216.52,381.35,216.91,380.61Z" transform="translate(-32 -120.21)"/><path class="cls-2" d="M160.07,249.9c-.89,16.54,1.56,32.36,9.68,47.07,5.41,9.8,12.23,18.28,21.35,24.83,4.46,3.21,4.48,3.28.66,7-16.57,16-25.23,36.36-31.52,57.84-4.78,16.31-7.59,33-7.32,50.17a106.55,106.55,0,0,0,5.8,34.17c1.28,3.6,1.2,5.08-3.19,4.77-16.32-1.16-32.66-1.62-48-8.66-18.73-8.59-30.21-22.82-34.4-42.83-5.06-24.13.53-47,8.9-69.46C92,328,107,304,124.19,281.36c4.07-5.35,4.32-12,3.3-18.46-1.76-11.21-7.81-19.67-16.92-26.18-14.09-10.06-33.19-3.52-39.24,13.44-2.43,6.81-2.15,13.77-1.43,20.77.13,1.26,1.25,2.68-.28,3.61-1.25.77-2.17-.54-3.15-1.13-23.17-14.16-30.36-38.59-18.43-64,10.12-21.54,27.38-35.67,48.68-45.32a8.9,8.9,0,0,1,2.61-.35c-7.55,6.76-14.89,13.72-21.85,21.1-11.34,12-19.19,25.84-21.83,42.29-1.4,8.75-1.28,17.45,2.69,26.41,2-6.34,3.72-12,6.56-17.31,9.58-17.76,26.62-26,46.42-22.51,10.25,1.84,19,6.81,27.19,13C147.08,233.17,153.5,241.6,160.07,249.9Z" transform="translate(-32 -120.21)"/><path class="cls-2" d="M641.34,134.79c19.21-9.43,39-10.76,58.76-2.59,28.57,11.8,44.37,34.52,50.46,63.88,6.37,30.67.12,59.17-18.41,84.73a14.16,14.16,0,0,1-4.22,4.36c-1.21-3.52-.12-7.09-1-10.52-3.3-13.33-12.16-22-24.09-23.09-11.76-1.11-23,5.74-28.18,18-4.17,10-5.69,20.38-1.86,30.92,1.92,5.27,5.58,9.61,9.33,13.51,8,8.31,10.92,18.67,13,29.39,4.83,25.18.54,49.26-10.38,72.11-8.66,18.14-20.33,34-38.44,44.05-7.64,4.23-16.18,6.07-24.61,7.79-10,2-20.26,3.45-30.57,2.93A84,84,0,0,1,574,467.76c-2.42-.63-3.44-1.55-1.36-3.45,15.16-13.81,23.58-32.08,32.8-49.75,9.58-18.35,16-37.78,18.16-58.52.73-7,1.27-13.93,0-20.89-.38-2,.46-3.32,2.39-4.23,16.21-7.65,23.39-22.2,28.84-38,3.32-9.65,4.41-19.72,5.24-29.8.49-5.95-.85-11.83-1.59-17.72,1.54-.4,2.41-1.71,3.55-2.63,17.56-14.17,37.58-21.83,60.16-22,4.58,0,5.29-1.32,4.74-5.26-5-36.21-24.62-61.61-57.33-77.14a32.63,32.63,0,0,0-21.84-2.47A7.06,7.06,0,0,1,641.34,134.79Z" transform="translate(-32 -120.21)"/><path class="cls-2" d="M536.55,452.7c12.72-2.88,22-10.52,28.42-21.52,11.51-19.85,20.39-40.77,24.59-63.51a145,145,0,0,1,4.3-16.44c1.09-3.5-.08-4.36-3.4-4.53-6.09-.32-12.17-1-17.47-4.51,11.34,0,22.58-.76,33.5-4.13,3.26-1,2.61,1.58,2.52,3.13-.59,10.38-1.51,20.76-3.84,30.9-4.37,19.08-10.67,37.47-20,54.76-6.66,12.32-14.74,23.56-25.75,32.25C549.1,467.22,541.73,464.89,536.55,452.7Z" transform="translate(-32 -120.21)"/><path class="cls-2" d="M567.84,333c1-2.44,3.3-2.86,5.4-3.48,35.06-10.53,55.09-35,64-69.5,2-7.71,1.68-15.7.17-23.55-1.25-6.47-1.35-12.42,3.44-18a22.57,22.57,0,0,0,5.22-14.93c0-7.28-4.18-10.63-11.36-9a48.07,48.07,0,0,0-5.12,1.58c-3.12,1.14-5.85.88-8-1.93,4.46-1.21,8.26-4,12.92-4.88,7.46-1.39,15.61,1.45,18.79,7.1,3.55,6.3,2.15,12.75-3.88,19-4.92,5.07-6.89,10.44-4.54,18,7.94,25.54,4.11,50-8.77,73.16-9.3,16.71-25.35,22.45-42.83,25.68C584.82,333.81,576.32,333,567.84,333Z" transform="translate(-32 -120.21)"/><path class="cls-2" d="M463.65,426c1.26,10.16,2.44,20.33,4.67,30.33,1.25,5.59,2.05,6.05,7.52,5.16q21.95-3.58,43.9-7.15a14.62,14.62,0,0,1,3.56-.15c1.68.13,2.11,1.55,2.27,2.88.18,1.51-1.15,1.48-2.14,1.65-8.64,1.43-17.25,3-25.91,4.24-10.87,1.56-21.63,3.76-32.39,5.91-1.4.28-2.86.86-2.88-1.29-.1-8.06-2.38-15.85-2.84-23.85,1.21-.42.64-1.87,1.46-2.5.58,3.3.35,6.8,2.63,10.93,1.27-7.36-1.73-13.21-1.41-19.28C463.75,430.81,462.21,428.06,463.65,426Zm2.78,30.09a1.93,1.93,0,0,0-2.1-1.84,2,2,0,0,0-2.09,1.86c-.2,1.34.79,1.89,1.8,2C465.48,458.32,466,457.13,466.43,456.06Z" transform="translate(-32 -120.21)"/><path class="cls-2" d="M256.83,367.25l1.29,3c-3.85.32-6.57-2.36-9.67-3.88s-5.27-1-7.23,1.77c-2.77,3.87-5.66,7.65-8.5,11.47-.68.92-1.24,2.43-2.7,1.29s-.87-2.27.07-3.52c4.28-5.71,8.5-11.47,12.74-17.21.53-.72,1.07-1.43,1.58-2.16,3.76-5.41,4.31-5.45,9.8-.76-1,2-2.63,3.93,0,5.89C254,365.22,254.32,366.92,256.83,367.25Z" transform="translate(-32 -120.21)"/><path class="cls-2" d="M499.46,417.21c2.83-1.49,7.24-.36,8.18-5,4.76-2.2,10.11-2,15-3.69,1.08-.38,2.26.18,2.07,1.56-.23,1.68-.08,4.05-2.29,4.35C514.77,415.49,507.21,417.21,499.46,417.21Z" transform="translate(-32 -120.21)"/><path class="cls-2" d="M241.59,454.93l-3.3,7.33c-2.38-1.5-4.75-3-7.14-4.49-1-.62-2.4-1.16-1.49-2.64.76-1.25,2.14-2.83,3.57-1.42C235.86,456.28,238.74,455.05,241.59,454.93Z" transform="translate(-32 -120.21)"/><path class="cls-2" d="M463.7,425.47c-.56-1.9-.15-3.25,2.05-3.46,2-.2,4.08-.28,6.12-.42C469.7,424,466,423.18,463.7,425.47Z" transform="translate(-32 -120.21)"/><path class="cls-2" d="M471.84,421.65c1.71-1,3.59-.93,5.48-.85C475.7,422.41,473.74,421.86,471.84,421.65Z" transform="translate(-32 -120.21)"/><path class="cls-2" d="M477.24,420.83a6.84,6.84,0,0,1,4.65-.7C480.48,421.3,478.86,421,477.24,420.83Z" transform="translate(-32 -120.21)"/><path class="cls-2" d="M258.24,370.38l1.24,1.38C258.7,371.62,257.88,371.53,258.24,370.38Z" transform="translate(-32 -120.21)"/><path class="cls-1" d="M538.2,296.48a3.61,3.61,0,0,1-3.27-1.78c-4-5.42-7-11.41-10.25-17.26-1.1-2-1.14-3.92,1.38-5.24,6.23-3.27,23.37-1.21,28.64,3.6a6.58,6.58,0,0,1,1,1.47c.08,4.22-1.81,7.13-5.26,9.67C546.26,290,541.78,292.68,538.2,296.48Z" transform="translate(-32 -120.21)"/><path class="cls-1" d="M531.14,202.69a20.92,20.92,0,0,1,3.63.62c1.21.43,3.15.87,2.93,2.31-.33,2.16-2.13.47-3.27.58-12,1.21-21.74,6.78-29.84,15.44a37,37,0,0,0-6.19,8.17c-.59,1.13-1.31,2.73-3,1.81s-.83-2.34-.21-3.54c6.45-12.42,16.31-20.66,29.92-24.23C527.13,203.32,529.2,203.06,531.14,202.69Z" transform="translate(-32 -120.21)"/><path class="cls-1" d="M589.53,219.8c3.9.18,7,2.34,9.74,4.84a41.94,41.94,0,0,1,11.91,18.59c.47,1.46.88,2.87.09,4.31-.51,1-1.19,1.84-2.38,1.72-.95-.11-1.42-.87-1.76-1.79-3.72-10.17-9.17-19-19.12-24.26-.9-.48-2.12-1.05-1.69-2.28C586.81,219.55,588.33,220,589.53,219.8Z" transform="translate(-32 -120.21)"/><path class="cls-1" d="M524.16,241.09a17.2,17.2,0,0,1-4.89,11.07c-1.58,1.53-3.47,2.3-5.71,1.41s-3-2.75-3-5c-.16-4.74,1.72-8.7,4.76-12.16,1.71-1.95,4-2.77,6.45-1.69C524,235.72,524.22,237.88,524.16,241.09Z" transform="translate(-32 -120.21)"/><path class="cls-1" d="M584.59,257.84a13,13,0,0,1-1.3,5.62c-2.18,4.34-6.89,4.65-9.6.62-2.56-3.8-2.36-11.11.42-14.88,2.09-2.84,5.52-2.78,7.91.21C584,251.86,584.41,254.82,584.59,257.84Z" transform="translate(-32 -120.21)"/><path class="cls-2" d="M538.2,296.48c3.58-3.8,8.06-6.49,12.21-9.54,3.45-2.54,5.34-5.45,5.26-9.67,3.69,1.74,4.31,4.37,1.86,7.49-4.19,5.35-9.73,9.06-15.69,12.15C540.65,297.52,539.28,297.77,538.2,296.48Z" transform="translate(-32 -120.21)"/><path class="cls-1" d="M264,367.24a17.1,17.1,0,0,1,2.32.88c5.06,2.82,10.12,5.66,15.14,8.56,1.36.79,2.33,2,1.41,3.68s-2.54,1.61-3.86.75c-5.11-3.33-10.64-6-15.26-10.06-.73-.64-1.9-1.28-1.28-2.52C262.79,368,263.57,367.61,264,367.24Z" transform="translate(-32 -120.21)"/><path class="cls-1" d="M256.83,367.25c-2.51-.33-2.85-2-2.62-4.1,1.63-.81,3.35-1.59,4.48.59C259.66,365.63,258.78,366.78,256.83,367.25Z" transform="translate(-32 -120.21)"/><path class="cls-1" d="M460.87,441.2c-1.06-2.54-.42-5.22-.6-7.83-.13-2,1-1.16,1.82-.52-.32,6.07,2.68,11.92,1.41,19.28C461.22,448,461.45,444.5,460.87,441.2Z" transform="translate(-32 -120.21)"/><path class="cls-1" d="M466.43,456.06c-.46,1.07-.95,2.26-2.39,2.06-1-.15-2-.7-1.8-2a2,2,0,0,1,2.09-1.86A1.93,1.93,0,0,1,466.43,456.06Z" transform="translate(-32 -120.21)"/></g></svg>