<svg id="Layer_17" data-name="Layer 17" xmlns="http://www.w3.org/2000/svg" viewBox="0 0 518.28 566.28"><defs><style>.cls-1{fill:#4e6e36;}.cls-2{fill:#9caf60;}</style></defs><title>H_Acerca</title><path class="cls-1" d="M635,263.77l1.62,3.91c-.71,1.46-.29,2.47,1.22,3.05.51,1.32,1,2.63,1.55,3.94-.26,2.82.25,5.36,2.63,7.23q3,8.85,5.93,17.72a7.15,7.15,0,0,0,2.08,7.06c.25.89.5,1.79.74,2.68-.75,1.24-.68,2.27.78,2.93l.72,2.61c-1,1.4-.68,2.48.77,3.31l.72,2.87c-1.29,1.14-.87,1.88.57,2.38.2.89.41,1.79.61,2.67-.76,1.19-.73,2.2.66,2.9l.81,4c-.79,1.24-.75,2.29.66,3.05.29,1.27.57,2.54.85,3.8-.85,1.27-.83,2.38.6,3.23.23,1.23.47,2.46.7,3.69-.88,1.78-1.07,3.45.81,4.77l.45,3.61c-.84,2.23-1.21,4.4.94,6.18q.38,4.91.74,9.81a148.35,148.35,0,0,0-.2,32.36l-.52,12.22c-1.76,1.13-2.06,2.49-.63,4.11q-.14,4-.29,8c-3.39,2.91-2.5,7.22-3.32,10.88-8.7,39.14-26.6,72.75-59.38,96.93-24.93,18.38-52.88,29.51-84,32.41-29.4,2.73-58.37,1.53-86.61-7.83a11.39,11.39,0,0,0-10.55,1.59c-5.92,3.92-12.68,5.57-19.28,7.67A162.35,162.35,0,0,1,326,575.9c-23.89-3.18-45.33-12.62-66.18-24.37-21.08-11.88-40.42-25.45-55-45.12-19.32-26.15-26.82-56.33-29.07-88-2-28.46,2-56.51,9.13-84,9-34.8,22.8-67.69,40.32-99.08a607.35,607.35,0,0,1,88-119.69A567.37,567.37,0,0,1,365.4,66.35c17-14.06,34.73-27.17,55-36.42l21.71,11.3a2,2,0,0,0,2.77,1.7l8.4,5.23A2,2,0,0,0,456,50l1.49.93c.23,1.6,1.17,2.16,2.71,1.84l1.47,1c.22,1.59,1.15,2.16,2.7,1.86a265.38,265.38,0,0,1,30.86,23c.05,1.63.94,2.29,2.51,2.15l5.86,4.86c0,1.58.86,2.26,2.41,2.11l11.57,10.37c0,1.61.78,2.33,2.38,2.2a229.37,229.37,0,0,1,22.73,22.77c0,1.57.65,2.42,2.28,2.39L555.23,137c-.11,1.54.53,2.44,2.16,2.47a338.6,338.6,0,0,1,31.47,40.61c-.3,1.56.27,2.49,1.9,2.69l6.51,9.83c-.36,1.54.19,2.48,1.79,2.75l5.21,8.39c-.39,1.52.14,2.48,1.72,2.79l2.47,4.19a2,2,0,0,0,1.64,2.81l5.42,9.65c-.49,1.52,0,2.51,1.58,2.9a153.1,153.1,0,0,1,11.09,22.14,5.31,5.31,0,0,0,2.64,5.82l3,6.72A2,2,0,0,0,635,263.77ZM279.25,340.33l-.25-.41c.15-1.72-.22-3.21-2.19-3.5-1.53-.23-2.49.82-3.14,2a10.42,10.42,0,0,0-1.27,7.73l-.27.27c-1.54-.54-2.62-.15-3.07,1.52l-2.75.22c-5.66-4.53-11.91-6.94-19.27-5.45l-11.66.07c-5.35-1.23-10.07-.45-13.63,4.16l-1.38.8c-4.49,1.27-7.16.21-8.23-4.95-.71-3.44-3.44-6.41-7.39-6.31s-5.81,3.37-6.88,6.85c-1.3,4.2-3.23,8.24-4.37,12.38-1.47,5.33-4.08,10.69-2.83,16.56-.18,1.43-.37,2.86-.56,4.3-2.84,2.95-2.28,6.23-.91,9.59,0,3.37,0,6.74.05,10.11-1.29,11.64-3,23.42,9.46,30.83,2.19,1.31,2.17,3.29,2,5.39a1.4,1.4,0,0,1-.95.39c-7.33-1.8-8-1.17-6.47,5.72a166.06,166.06,0,0,0,11.43,34.25c.68,1.45,1,4,2.65,3.61,5.62-1.45,7.05,3,9.6,6,4.29,5.11,11.52,7.4,16,5.22,2.92.38,4.92-1,4.26-3.81-1-4.09-1.74-8.34-6.12-10.89-4.14-2.42-8.68-4.38-11.92-8.19a6.68,6.68,0,0,1-.6-8.38c1.77-2.88,4.52-2,6.7-.47,3.11,2.12,4.05,1.91,5.56-2.07,1.6-4.22,6.28-6.87,10.78-4.28,3.29,1.9,10.54,3.62,4.39,10.31a3.28,3.28,0,0,0,.24,4.45c1.92,2.09,3.77.81,5.61-.17,2.15,1,5.38-2.85,6.61.88s-2.88,3.88-5,5.27a6.2,6.2,0,0,1-1.26.56c-4.91,1.76-4.79,5.49-3.84,9.62,1,4.44,4.45,4.72,8,4.55,1.86-.08,4.22-2.35,5.29.6s-1.74,3.8-3.76,4.82c-1.22.62-2.47,1.2-3.71,1.79-2.48-.53-4.43.08-4,3,.88,5.66,1.26,11.82,8.62,13.39-.32,2.19,1.32,3.28,2.53,4.66,1.57,1.78,5.15,3.42,2.79,6.1-2.11,2.4-5.65,1.75-8.26-.25-3.32-2.53-6.28-5.53-9.67-8-6.59-4.69-11.29-12.72-21-12.05-1.46.1-3.21-1.72-4.37.15-1.06,1.72.68,2.88,1.56,4.21,14.69,22.48,36.35,35.16,61.06,43.6,1.05.36,2.25,1.28,3.08,0a2.7,2.7,0,0,0-.07-2.52c-3.13-3.72-2.95-8.71-5-12.77-9.33-18.35-14.75-37.61-17.7-58.13-3.29-23-1.3-44.66,6.95-66.13,2.55-6.64,6.69-12.68,7.62-19.94l2.21-4.08c2.84-.87,3.58-3,3.4-5.67l.8-1.3c1.86-.14,2.48-1.14,2-2.9,1.94-3.69,4.82-6.64,7.63-9.64,4.07-5.48-1.11-6.32-4.13-8.26L287,351.58c.35-1.71-.27-2.7-2.09-2.77l-.89-1.24c.52-1.79-.08-2.8-2-2.9l-.83-1.27C281.8,341.58,281.07,340.62,279.25,340.33ZM598.44,475.77c1.08,2.53,2.19,5,5.59,5,.13,1.44,1.15,1.83,2.36,2,9.41,1.57,19.27-3.12,24.39-11.39,6.79-10.95,11.19-22.83,14.35-35.27.8-3.15,1.32-5.77-1.53-8.17s-1.26-3.91,1.14-5.3c3.73-2.17,5.28-5.36,4.27-9.65l.17-13.88c.28-.36.79-.71.81-1.09a214.89,214.89,0,0,0-5.63-61.29c-1.18-5.1-4.78-5.72-8.76-2.15a12.24,12.24,0,0,0-4.07,6.29c-.8,3.17-3,3.83-5.87,2.15a24.16,24.16,0,0,0-5.55-2.86c-7.54-2-15-6.29-23.05-1.92l-3,.48c-3.28-2.38-6.18.1-9,1-9.62,2.95-9.56,3.07-14.33-5.86-1.48-2.76-4.58-5.24-6-1.38-3.55,9.7-9.41,18.2-13.1,27.75-.3.41-.6.81-.89,1.22-6.6,3.93-7,6.32-2.27,11.56a78.94,78.94,0,0,1,7.26,8.39c17.54,25.6,24.82,54.45,26.1,85,.73,17.39-1.35,34.6-4.81,51.66-.32,1.54-1.91,5.54,1.77,4,8.15-3.37,14.6-9.38,22.05-16.47-17.7,1.53-17.25,1.47-15.43-14.74a122.07,122.07,0,0,0-.45-34c-1.7-10.05-.92-11.74,7.62-16.66.32-.18.38-.8.56-1.21a16.71,16.71,0,0,1,11.43-5.89c1.84-.16,3.87-.49,5,1.42,1.25,2.09-.31,3.53-1.7,4.72-4,3.43-2.75,5.63,1.43,7.54a15.05,15.05,0,0,1,4.59,3.08c3.75,3.91,6.71,3.05,9.44-1.09.88-1.34,1.92-2.59,2.88-3.88,6.46,3.11,1.25,6.58-.08,9.38-2,4.11-7.17,5.44-9.45,9.52-3.72,1-7.46,2.8-11.18,2.77-5.83-.05-7.8,2.38-7.31,7.73C597.1,475,597.34,475.45,598.44,475.77Zm-221.7,77c1.07,1.44,1.88,1.1,2.51-.38l2.61-.39c1.59.84,3.07.2,4.67-.16,15.2-3.4,30.42-4.76,46-2.43,16.18,2.41,32.49,4.3,48.94,2.64l9.73-.81c1.43,1.63,2.7,1.5,3.82-.34l7.34-1.1c1.14,1.84,2,1.07,2.75-.33l5.63-1c1.23,1.8,2,1,2.74-.45l4.24-1c1.35,1.81,2.09.93,2.69-.61L533.11,543c1.51,1.67,2.17.66,2.68-.85,5.32-2.07,10.63-4.19,16-6.18,5.73-2.13,10.94-4.77,12.75-11.29,2.35-1.77,3.31-4,2.21-6.86.28-1,.57-1.9.85-2.86,1.43-.65,2.18-1.45.57-2.74.24-1,.47-1.92.71-2.87,2.28-1.52,2.23-3.39.82-5.46l.51-2.93c2.91-3.94,2.12-8.16.92-12.4q0-8.64-.07-17.28c1.35-3.79,1.82-7.52-.76-11l-.63-4.31c1.29-2.48,1.71-4.85-.88-6.82l-.47-2.94c1.44-1.65,1.1-3-.71-4.09-.22-1-.43-1.94-.65-2.9a78.63,78.63,0,0,0-9.47-30.53c-.51-1.26-1-2.51-1.54-3.77.79-2.72-.15-4.7-2.59-6L552,396.35c.56-1.69,0-2.71-1.8-3l-.85-1.37c.37-1.66-.22-2.64-2-2.8l-2.17-2.84c.3-1.77-.45-2.67-2.23-2.72l-4.69-5.73c.26-1.61-.38-2.54-2.06-2.66l-.91-1.35c.44-1.71-.17-2.68-2-2.8-3.16-3-3-5.76.26-8.65,2.37-2.12,4.49-4.51,6.72-6.78,1.77-.06,2.41-1,2.1-2.69l3.66-5.62a45.57,45.57,0,0,0,11-27.71c.25-.95.49-1.91.73-2.87,1.73-1.1,2.11-2.44.72-4.09.18-1,.37-1.94.56-2.91,2.41-2.05,2.09-4.4.74-6.86V280.12c1.41-2.47,1.73-4.82-.76-6.86l-.57-2.91c1.45-1.68,1.07-3-.76-4.09-.25-.95-.49-1.91-.74-2.87a7.62,7.62,0,0,0-2.34-8.22l-1.42-3.87c.8-1.54.37-2.59-1.26-3.15-3.41-7.37-7.88-14.12-12.36-20.86a5.38,5.38,0,0,0-2.76-5.38c-1.24-5,2.47-8.46,4-12.61,1.49-.53,2.43-1.22.81-2.69l.78-4.28c2.22-2.75,2.38-5.52.06-8.31l-.63-4c1.08-1.42.85-2.55-.77-3.36-1.89-4.86-4.07-9.54-8.13-13-2.32-3.06-5-4.73-8.55-1.86l-2.74,1.32c-3.37.26-5.19,2-5.11,5.46q-2.14,6.17-4.28,12.34a1.73,1.73,0,0,0-1.19,2.13c.43,2.37,2,5-.55,6.9-2.77,2.1-4.08-2.36-6.63-1.81-1.52-1.55-3.05-3.1-4.57-4.66,0-1.84-.89-2.5-2.64-2.2l-2.91-2.08c-.14-1.86-1.13-2.45-2.87-1.91l-8-3.94c-1-2.72-3.81-2.4-5.84-3.14-25.78-9.44-52.45-11.4-79.49-8.39-21,2.33-41,8.09-58.61,20.24-2.31,1.59-4.68,1.82-7.22,2l0,0c.56-8.64,0-17.25-3.49-25.19s-8.92-8.72-15.27-2.73c-10.88,10.27-13.81,30.17-6.56,43.73,1.06,2,3.83,5.27-.17,6.09-4.74,1-6.19,4.57-8.57,7.49-18,22.08-24.92,47.64-21.22,75.52,2.86,21.51,11.55,40.91,27,56.82,2,2.1,4.85,4.79,1.92,7.76-5.73,5.82-8.27,13.41-12,20.28-10.43,19.15-16.94,39.63-18.51,61.41-2.35,32.53,4.32,63,20.67,91.53,8.69,15.15,15.25,19.21,33.59,17.56l8.61.72c3.15,2.35,6.29,2.37,9.43,0l8.56-.88c4.66,1.54,9.29,2.23,13.8-.5Zm234.11-63.88a3.21,3.21,0,0,0-1.72-2.78,2.74,2.74,0,0,0-3.72.66c-3.21,4.44-6.16,9-10.88,12.19-1.65,1.1-1.45,2.84,1.05,3.21C599.91,502.82,611.15,493,610.85,488.91Zm-2-30.43c2.15.15,3.21-.68,3.13-1.87-.3-4.47-3.66-6.11-7.35-7.15-1.15-.32-3.07.75-2.56,1.44A88.65,88.65,0,0,0,608.84,458.48Z" transform="translate(-145.69 -25.59)"/><path class="cls-2" d="M420.35,29.93c-20.22,9.25-38,22.36-55,36.42a567.37,567.37,0,0,0-52.16,49.27,607.35,607.35,0,0,0-88,119.69c-17.52,31.39-31.31,64.28-40.32,99.08-7.12,27.53-11.15,55.58-9.13,84,2.25,31.65,9.75,61.83,29.07,88,14.53,19.67,33.87,33.24,55,45.12,20.85,11.75,42.29,21.19,66.18,24.37a162.35,162.35,0,0,0,71.41-6.37c6.6-2.1,13.36-3.75,19.28-7.67a11.39,11.39,0,0,1,10.55-1.59c28.24,9.36,57.21,10.56,86.61,7.83,31.14-2.9,59.09-14,84-32.41,32.78-24.18,50.68-57.79,59.38-96.93.82-3.66-.07-8,3.32-10.88,1.48,8.59.43,17.12-.88,25.59-6,39.07-21.41,73.47-51.28,100.36-24.87,22.4-54.22,34.59-87.49,37.41-35.79,3-68.79-4.69-98.14-26-2.38-1.73-4.06-1.45-6.15.24-30.51,24.75-66.29,26.72-103.18,23.75-23.79-1.91-46.92-6.75-68.76-16.65-53.22-24.14-84.12-65.84-95.14-122.59-8.93-46-1.3-90.67,13.12-134.47,18.32-55.7,48.24-105,84.43-150.69,37.78-47.72,81.67-88.91,132.7-122.3,8.37-5.47,17.14-10.25,26-14.9C411.47,24.67,416.21,24.53,420.35,29.93Z" transform="translate(-145.69 -25.59)"/><path class="cls-2" d="M662,403.51a148.35,148.35,0,0,1,.2-32.36A70.48,70.48,0,0,1,662,403.51Z" transform="translate(-145.69 -25.59)"/><path class="cls-2" d="M650.05,306.68a7.15,7.15,0,0,1-2.08-7.06C650,301.58,651,303.83,650.05,306.68Z" transform="translate(-145.69 -25.59)"/><path class="cls-2" d="M642,281.9c-2.38-1.87-2.89-4.41-2.63-7.23C641.92,276.49,642.6,279,642,281.9Z" transform="translate(-145.69 -25.59)"/><path class="cls-2" d="M661.44,361.34c-2.15-1.78-1.78-3.95-.94-6.18C662.26,357,663,359,661.44,361.34Z" transform="translate(-145.69 -25.59)"/><path class="cls-2" d="M630.83,254a5.31,5.31,0,0,1-2.64-5.82C630.52,249.48,631.5,251.37,630.83,254Z" transform="translate(-145.69 -25.59)"/><path class="cls-2" d="M660.83,419.84c-1.43-1.62-1.13-3,.63-4.11C662.76,417.33,662.39,418.67,660.83,419.84Z" transform="translate(-145.69 -25.59)"/><path class="cls-2" d="M660.05,351.55c-1.88-1.32-1.69-3-.81-4.77C660.74,348.16,661.51,349.66,660.05,351.55Z" transform="translate(-145.69 -25.59)"/><path class="cls-2" d="M590.76,182.74c-1.63-.2-2.2-1.13-1.9-2.69C590.55,180.2,591.23,181.06,590.76,182.74Z" transform="translate(-145.69 -25.59)"/><path class="cls-2" d="M599.06,195.32c-1.6-.27-2.15-1.21-1.79-2.75C598.94,192.79,599.63,193.64,599.06,195.32Z" transform="translate(-145.69 -25.59)"/><path class="cls-2" d="M606,206.5c-1.58-.31-2.11-1.27-1.72-2.79C606,204,606.6,204.84,606,206.5Z" transform="translate(-145.69 -25.59)"/><path class="cls-2" d="M610.1,213.5a2,2,0,0,1-1.64-2.81C610.13,211,610.77,211.85,610.1,213.5Z" transform="translate(-145.69 -25.59)"/><path class="cls-2" d="M617.1,226.05c-1.58-.39-2.07-1.38-1.58-2.9C617.17,223.51,617.79,224.43,617.1,226.05Z" transform="translate(-145.69 -25.59)"/><path class="cls-2" d="M635,263.77a2,2,0,0,1-1.22-3C635.37,261.28,635.92,262.23,635,263.77Z" transform="translate(-145.69 -25.59)"/><path class="cls-2" d="M637.86,270.73c-1.51-.58-1.93-1.59-1.22-3.05C638.19,268.24,638.72,269.21,637.86,270.73Z" transform="translate(-145.69 -25.59)"/><path class="cls-2" d="M444.83,42.93a2,2,0,0,1-2.77-1.7C443.71,40.61,444.59,41.25,444.83,42.93Z" transform="translate(-145.69 -25.59)"/><path class="cls-2" d="M456,50a2,2,0,0,1-2.72-1.79C454.89,47.61,455.77,48.24,456,50Z" transform="translate(-145.69 -25.59)"/><path class="cls-2" d="M460.15,52.72c-1.54.32-2.48-.24-2.71-1.84C459.11,50.36,460,51,460.15,52.72Z" transform="translate(-145.69 -25.59)"/><path class="cls-2" d="M464.32,55.55c-1.55.3-2.48-.27-2.7-1.86C463.29,53.18,464.16,53.85,464.32,55.55Z" transform="translate(-145.69 -25.59)"/><path class="cls-2" d="M497.69,80.75c-1.57.14-2.46-.52-2.51-2.15C496.9,78.29,497.71,79,497.69,80.75Z" transform="translate(-145.69 -25.59)"/><path class="cls-2" d="M506,87.72c-1.55.15-2.37-.53-2.41-2.11C505.27,85.26,506,86,506,87.72Z" transform="translate(-145.69 -25.59)"/><path class="cls-2" d="M519.91,100.29c-1.6.13-2.4-.59-2.38-2.2C519.22,97.85,520,98.58,519.91,100.29Z" transform="translate(-145.69 -25.59)"/><path class="cls-2" d="M544.92,125.45c-1.63,0-2.33-.82-2.28-2.39C544.32,123,545.16,123.7,544.92,125.45Z" transform="translate(-145.69 -25.59)"/><path class="cls-2" d="M557.39,139.44c-1.63,0-2.27-.93-2.16-2.47C557,136.9,557.68,137.73,557.39,139.44Z" transform="translate(-145.69 -25.59)"/><path class="cls-2" d="M658.54,343.09c-1.43-.85-1.45-2-.6-3.23C659.09,340.76,659.9,341.73,658.54,343.09Z" transform="translate(-145.69 -25.59)"/><path class="cls-2" d="M651.57,312.29c-1.46-.66-1.53-1.69-.78-2.93C652.1,310.06,653,310.86,651.57,312.29Z" transform="translate(-145.69 -25.59)"/><path class="cls-2" d="M653.06,318.21c-1.45-.83-1.77-1.91-.77-3.31C653.64,315.75,654.11,316.8,653.06,318.21Z" transform="translate(-145.69 -25.59)"/><path class="cls-2" d="M654.35,323.46c-1.44-.5-1.86-1.24-.57-2.38C655.19,321.58,655.65,322.32,654.35,323.46Z" transform="translate(-145.69 -25.59)"/><path class="cls-2" d="M655.62,329c-1.39-.7-1.42-1.71-.66-2.9C656.29,326.85,657.15,327.67,655.62,329Z" transform="translate(-145.69 -25.59)"/><path class="cls-2" d="M657.09,336.06c-1.41-.76-1.45-1.81-.66-3.05C657.73,333.79,658.5,334.69,657.09,336.06Z" transform="translate(-145.69 -25.59)"/><path class="cls-2" d="M331.72,194.05c-4.12-4-1.05-9.77-3.63-14.18-1.43-2.44-.42-7-4.1-7.23s-4.78,3.91-6.08,6.76a72.32,72.32,0,0,0-6.86,28.91c-.12,7.44-2.2,13.8-7,19.1-15.67,17.41-17,38-13.25,59.52,3.34,19.27,12,36.51,22.62,52.74,4.16,6.34,3.75,11.84,1.28,19.37-3.4,10.35-10.1,19.95-9.42,31.55-2.59,3.25-2.62,7.08-3,11-.83,7.89,4.27,14,5.5,21.18-4.6-2.86-3.92-9.11-7.52-12.43a2.19,2.19,0,0,0-1.94,2.14c-5.82,37.84-3.88,75.14,9,111.41,4.26,12,9.76,23.68,21.78,30.4-18.34,1.65-24.9-2.41-33.59-17.56-16.35-28.49-23-59-20.67-91.53,1.57-21.78,8.08-42.26,18.51-61.41,3.75-6.87,6.29-14.46,12-20.28,2.93-3,.1-5.66-1.92-7.76-15.42-15.91-24.11-35.31-27-56.82-3.7-27.88,3.22-53.44,21.22-75.52,2.38-2.92,3.83-6.52,8.57-7.49,4-.82,1.23-4.12.17-6.09-7.25-13.56-4.32-33.46,6.56-43.73,6.35-6,11.73-5.29,15.27,2.73S332.28,185.41,331.72,194.05Z" transform="translate(-145.69 -25.59)"/><path class="cls-2" d="M381.86,552c1.47-5.25-4-5.4-6-8.13-4.66-6.45-9.61-7.48-17.59-3.94-12.12,5.38-25,5-36-4-8.23-6.75-7.22-13.74,2.21-18.44a6.37,6.37,0,0,0,4.22,5.74c9.92,4.38,20.17,6.49,30.14,1.33,6.22-3.23,10.85-1.51,16.08,1.47,29.57,16.89,60.61,18.15,92.69,8.6,8.32-2.47,14.92-8,22.59-11.65,4.09,9.12,2.86,15.12-4.39,22.62-1.8,1.86-5.1,2.85-4.35,6.47-16.45,1.66-32.76-.23-48.94-2.64-15.61-2.33-30.83-1-46,2.43C384.93,552.22,383.45,552.86,381.86,552Z" transform="translate(-145.69 -25.59)"/><path class="cls-2" d="M252,464.23c1.32-26.68,13.94-49.7,23.85-73.59.51-1.24,1-2.65,2.6-3-.93,7.26-5.07,13.3-7.62,19.94-8.25,21.47-10.24,43.14-6.95,66.13,2.95,20.52,8.37,39.78,17.7,58.13,2.07,4.06,1.89,9,5,12.77a2.7,2.7,0,0,1,.07,2.52c-.83,1.3-2,.38-3.08,0-24.71-8.44-46.37-21.12-61.06-43.6-.88-1.33-2.62-2.49-1.56-4.21,1.16-1.87,2.91-.05,4.37-.15,9.73-.67,14.43,7.36,21,12.05,3.39,2.42,6.35,5.42,9.67,8,2.61,2,6.15,2.65,8.26.25,2.36-2.68-1.22-4.32-2.79-6.1-1.21-1.38-2.85-2.47-2.53-4.66q-2.31-8.19-4.64-16.38c1.24-.59,2.49-1.17,3.71-1.79,2-1,4.81-1.89,3.76-4.82s-3.43-.68-5.29-.6c-3.53.17-7-.11-8-4.55-.95-4.13-1.07-7.86,3.84-9.62a6.2,6.2,0,0,0,1.26-.56c2.1-1.39,6.24-1.44,5-5.27S254.12,465.25,252,464.23Z" transform="translate(-145.69 -25.59)"/><path class="cls-2" d="M550.74,361.42c-4,5.27-1.65,8.39,3,12.1a103.31,103.31,0,0,1,37,59.73c.44,2,1.59,3.84,2.41,5.75-.18.41-.24,1-.56,1.21-8.54,4.92-9.32,6.61-7.62,16.66a122.07,122.07,0,0,1,.45,34c-1.82,16.21-2.27,16.27,15.43,14.74-7.45,7.09-13.9,13.1-22.05,16.47-3.68,1.52-2.09-2.48-1.77-4,3.46-17.06,5.54-34.27,4.81-51.66-1.28-30.56-8.56-59.41-26.1-85a78.94,78.94,0,0,0-7.26-8.39C543.7,367.74,544.14,365.35,550.74,361.42Z" transform="translate(-145.69 -25.59)"/><path class="cls-2" d="M482.85,183.34c-9.88-1-19.76-2.05-29.65-2.9-24.84-2.16-49.69-2.74-74.11,3.24-12.82,3.14-25.3,7.64-38,11.38-3.17.94-6.84,4.2-9.42-1.05,2.54-.14,4.91-.37,7.22-2,17.64-12.15,37.64-17.91,58.61-20.24,27-3,53.71-1.05,79.49,8.39C479,180.94,481.82,180.62,482.85,183.34Z" transform="translate(-145.69 -25.59)"/><path class="cls-2" d="M626.22,444.9c1.89-3.4,3.74-6.83,5.69-10.19,1.62-2.8,3.21-5.18,1-8.8-2-3.21.64-5.73,3.52-7.17,4.12-2.07,8.39-3.85,12.59-5.76,1,4.29-.54,7.48-4.27,9.65-2.4,1.39-3.84,3-1.14,5.3s2.33,5,1.53,8.17c-3.16,12.44-7.56,24.32-14.35,35.27-5.12,8.27-15,13-24.39,11.39-1.21-.21-2.23-.6-2.36-2,4.59-5.36,10.35-9.85,12.66-16.92,2.28-4.08,7.49-5.41,9.45-9.52C627.47,451.48,632.68,448,626.22,444.9Z" transform="translate(-145.69 -25.59)"/><path class="cls-2" d="M199.81,432.92c-.2,12.56,3.51,23.55,12.68,32.51,7.23,7.08,14.82,13.85,20.58,22.3-4.53,2.18-11.76-.11-16-5.22-2.55-3.05-4-7.46-9.6-6-1.61.41-2-2.16-2.65-3.61a166.06,166.06,0,0,1-11.43-34.25C191.79,431.75,192.48,431.12,199.81,432.92Z" transform="translate(-145.69 -25.59)"/><path class="cls-2" d="M648.94,399.29c-3.23-5.58-1.32-12.06-3.1-17.92-.78-2.56-.33-5.7-4.14-6.11l-1.23-4c2.47-.13,3.17-1.71,2.9-3.81a137.51,137.51,0,0,0-4.7-23.87c-.48-1.54-1.15-3.34-3-3.47s-1.83,1.74-2.36,3c-1.38,3.27-4.31,4.21-6.83,2.48-8.9-6.11-19.07-6.65-29.21-7.57,8.12-4.31,15.51,0,23,2.09a24.59,24.59,0,0,1,5.53,2.9c2.87,1.71,5,1.06,5.88-2.11a12.28,12.28,0,0,1,4.12-6.25c4-3.54,7.59-2.9,8.74,2.21a214.7,214.7,0,0,1,5.18,61.33C649.73,398.58,649.22,398.93,648.94,399.29Z" transform="translate(-145.69 -25.59)"/><path class="cls-2" d="M189.25,396.31c4.3,12.26,10.15,23.37,22.19,29.91a3.3,3.3,0,0,1,2,3.39c-.29,2.07-2.11,2.43-3.66,2.58-3,.29-6,.25-9,.34.12-2.1.14-4.08-2-5.39C186.28,419.73,188,408,189.25,396.31Z" transform="translate(-145.69 -25.59)"/><path class="cls-2" d="M220.37,347.78c-5.28,4.7-7.39,4.46-9.49-1.9-1.41-4.24-2.86-3.31-5.1-1-6.4,6.6-10.48,14.52-13.28,23.18-.48,1.47-.11,3.31-1.83,4.25-1.25-5.87,1.36-11.23,2.83-16.56,1.14-4.14,3.07-8.18,4.37-12.38,1.07-3.48,2.85-6.74,6.88-6.85s6.68,2.87,7.39,6.31C213.21,348,215.88,349.05,220.37,347.78Z" transform="translate(-145.69 -25.59)"/><path class="cls-2" d="M594.08,338.71c-5,1.81-9.82,3.92-14.89,5.34-4.65,1.3-8.25-.36-9.57-5.44-.45-1.72,0-3.84-2.6-4.89-5.39,8.64-6.93,19.64-15.39,26.49,3.69-9.56,9.55-18.06,13.1-27.76,1.41-3.86,4.51-1.38,6,1.38,4.77,8.93,4.71,8.81,14.33,5.86C587.9,338.81,590.8,336.33,594.08,338.71Z" transform="translate(-145.69 -25.59)"/><path class="cls-2" d="M610.85,488.91c.3,4.12-10.94,13.91-15.27,13.28-2.5-.37-2.7-2.11-1.05-3.21,4.72-3.16,7.67-7.75,10.88-12.19a2.74,2.74,0,0,1,3.72-.66A3.21,3.21,0,0,1,610.85,488.91Z" transform="translate(-145.69 -25.59)"/><path class="cls-2" d="M566.94,439.22c-4.47-9.77-7.1-20.11-9.47-30.53A78.63,78.63,0,0,1,566.94,439.22Z" transform="translate(-145.69 -25.59)"/><path class="cls-2" d="M546.1,347.38q5.49-13.85,11-27.71A45.57,45.57,0,0,1,546.1,347.38Z" transform="translate(-145.69 -25.59)"/><path class="cls-2" d="M512.26,190.91c.43,1.3.85,2.6,1.28,3.9,1.05,3.18.91,6.3-2.6,7.53s-6.27-.18-7.05-4.21c2.55-.55,3.86,3.91,6.63,1.81,2.55-1.93,1-4.53.55-6.9A1.73,1.73,0,0,1,512.26,190.91Z" transform="translate(-145.69 -25.59)"/><path class="cls-2" d="M266.31,348.2,247,342.75C254.4,341.26,260.65,343.67,266.31,348.2Z" transform="translate(-145.69 -25.59)"/><path class="cls-2" d="M355.66,554.15c4.48-3.39,9.19-.62,13.8-.5C365,556.38,360.32,555.69,355.66,554.15Z" transform="translate(-145.69 -25.59)"/><path class="cls-2" d="M235.38,342.82c-4.29,2.23-9,2.94-13.63,4.16C225.31,342.37,230,341.59,235.38,342.82Z" transform="translate(-145.69 -25.59)"/><path class="cls-2" d="M279,339.92c-5.69-1.58-3,5.64-6.6,6.27a10.42,10.42,0,0,1,1.27-7.73c.65-1.22,1.61-2.27,3.14-2C278.78,336.71,279.15,338.2,279,339.92Z" transform="translate(-145.69 -25.59)"/><path class="cls-2" d="M570.19,501c-1-4.24-1.23-8.41.92-12.4C572.31,492.84,573.1,497.06,570.19,501Z" transform="translate(-145.69 -25.59)"/><path class="cls-2" d="M571,471.32c-2.19-3.55-1.79-7.28-.77-11C572.86,463.8,572.39,467.53,571,471.32Z" transform="translate(-145.69 -25.59)"/><path class="cls-2" d="M337.67,555a10.89,10.89,0,0,1,9.44,0C344,557.41,340.82,557.39,337.67,555Z" transform="translate(-145.69 -25.59)"/><path class="cls-2" d="M294.48,364.07c.22-3.55-4.05-4.86-4.13-8.26C293.37,357.75,298.55,358.59,294.48,364.07Z" transform="translate(-145.69 -25.59)"/><path class="cls-2" d="M190.11,376.61c1,3.32,1.25,6.57-.91,9.59C187.83,382.84,187.27,379.56,190.11,376.61Z" transform="translate(-145.69 -25.59)"/><path class="cls-2" d="M542.41,202.33a9.37,9.37,0,0,1,.06-8.31C544.79,196.81,544.63,199.58,542.41,202.33Z" transform="translate(-145.69 -25.59)"/><path class="cls-2" d="M532.94,173.65l-8.56-1.86C528,168.92,530.62,170.59,532.94,173.65Z" transform="translate(-145.69 -25.59)"/><path class="cls-2" d="M557,263.39a8.94,8.94,0,0,1-2.34-8.22A7.62,7.62,0,0,1,557,263.39Z" transform="translate(-145.69 -25.59)"/><path class="cls-2" d="M521.65,173.11a9,9,0,0,1-5.12,5.46C516.46,175.08,518.28,173.37,521.65,173.11Z" transform="translate(-145.69 -25.59)"/><path class="cls-2" d="M569.65,456c-2-2.06-1.84-4.39-.88-6.83C571.36,451.12,570.94,453.49,569.65,456Z" transform="translate(-145.69 -25.59)"/><path class="cls-2" d="M559.1,309.8c-1.08-2.43-1.3-4.77.74-6.86C561.19,305.4,561.51,307.75,559.1,309.8Z" transform="translate(-145.69 -25.59)"/><path class="cls-2" d="M559.83,280.12c-1.94-2.1-1.7-4.44-.76-6.86C561.56,275.3,561.24,277.65,559.83,280.12Z" transform="translate(-145.69 -25.59)"/><path class="cls-2" d="M564.52,524.72a7.14,7.14,0,0,1,2.21-6.86C567.83,520.74,566.87,523,564.52,524.72Z" transform="translate(-145.69 -25.59)"/><path class="cls-2" d="M280.63,383.58a5.61,5.61,0,0,1,3.4-5.68C284.21,380.58,283.47,382.71,280.63,383.58Z" transform="translate(-145.69 -25.59)"/><path class="cls-2" d="M568.86,509.39c-.94-2-1.24-3.91.82-5.46C571.09,506,571.14,507.87,568.86,509.39Z" transform="translate(-145.69 -25.59)"/><path class="cls-2" d="M539.62,227.29c-2.45-1-3.61-2.69-2.76-5.38A5.38,5.38,0,0,1,539.62,227.29Z" transform="translate(-145.69 -25.59)"/><path class="cls-2" d="M555.93,404.92a5.67,5.67,0,0,1-2.59-6C555.78,400.22,556.72,402.2,555.93,404.92Z" transform="translate(-145.69 -25.59)"/><path class="cls-2" d="M557.82,316.8c-1-1.59-1-3,.72-4.09C559.93,314.36,559.55,315.7,557.82,316.8Z" transform="translate(-145.69 -25.59)"/><path class="cls-2" d="M568.3,446.21c-1.69-1.11-1.7-2.51-.72-4.09C569.4,443.21,569.74,444.56,568.3,446.21Z" transform="translate(-145.69 -25.59)"/><path class="cls-2" d="M558.5,270.35c-1.64-1.1-1.67-2.51-.76-4.09C559.57,267.33,560,268.67,558.5,270.35Z" transform="translate(-145.69 -25.59)"/><path class="cls-2" d="M491.23,551.26c1.14-1.6,2.42-1.69,3.82-.34C493.93,552.76,492.66,552.89,491.23,551.26Z" transform="translate(-145.69 -25.59)"/><path class="cls-2" d="M517.75,547.08c.65-1.27,1.56-1.44,2.69-.61C519.84,548,519.1,548.89,517.75,547.08Z" transform="translate(-145.69 -25.59)"/><path class="cls-2" d="M533.11,543c.56-1.33,1.46-1.59,2.68-.85C535.28,543.7,534.62,544.71,533.11,543Z" transform="translate(-145.69 -25.59)"/><path class="cls-2" d="M552,396.35c-1.56-.4-2.23-1.34-1.8-3C552,393.64,552.59,394.66,552,396.35Z" transform="translate(-145.69 -25.59)"/><path class="cls-2" d="M510.77,548.51c.73-1.28,1.66-1.35,2.75-.45C512.81,549.51,512,550.31,510.77,548.51Z" transform="translate(-145.69 -25.59)"/><path class="cls-2" d="M549.38,392a2.1,2.1,0,0,1-2-2.8C549.16,389.38,549.75,390.36,549.38,392Z" transform="translate(-145.69 -25.59)"/><path class="cls-2" d="M502.39,549.82c.78-1.25,1.71-1.24,2.75-.33C504.37,550.89,503.53,551.66,502.39,549.82Z" transform="translate(-145.69 -25.59)"/><path class="cls-2" d="M545.24,386.38a2.16,2.16,0,0,1-2.24-2.72C544.79,383.71,545.54,384.61,545.24,386.38Z" transform="translate(-145.69 -25.59)"/><path class="cls-2" d="M376.74,552.79c.66-1.34,1.48-1.61,2.51-.38C378.62,553.89,377.81,554.23,376.74,552.79Z" transform="translate(-145.69 -25.59)"/><path class="cls-2" d="M567.58,515c-.85-1.13-.75-2.06.57-2.74C569.76,513.55,569,514.35,567.58,515Z" transform="translate(-145.69 -25.59)"/><path class="cls-2" d="M493.77,189.19a2.15,2.15,0,0,1-2.87-1.91C492.64,186.74,493.63,187.33,493.77,189.19Z" transform="translate(-145.69 -25.59)"/><path class="cls-2" d="M541.84,190.06c-1.22-.9-1.77-2-.77-3.36C542.69,187.51,542.92,188.64,541.84,190.06Z" transform="translate(-145.69 -25.59)"/><path class="cls-2" d="M499.32,193.47a2.13,2.13,0,0,1-2.64-2.2C498.43,191,499.36,191.63,499.32,193.47Z" transform="translate(-145.69 -25.59)"/><path class="cls-2" d="M540.82,209.3a1.64,1.64,0,0,1,.81-2.69C543.25,208.08,542.31,208.77,540.82,209.3Z" transform="translate(-145.69 -25.59)"/><path class="cls-2" d="M553.24,251.3c-1.48-.62-2-1.61-1.26-3.15C553.61,248.71,554,249.76,553.24,251.3Z" transform="translate(-145.69 -25.59)"/><path class="cls-2" d="M281.15,343.4a2.32,2.32,0,0,1-1.9-3.07C281.07,340.62,281.8,341.58,281.15,343.4Z" transform="translate(-145.69 -25.59)"/><path class="cls-2" d="M284,347.57a2.24,2.24,0,0,1-2-2.91C283.9,344.77,284.5,345.78,284,347.57Z" transform="translate(-145.69 -25.59)"/><path class="cls-2" d="M272.13,346.46c-.47,1.64-1.45,2.24-3.08,1.52C269.51,346.31,270.59,345.92,272.13,346.46Z" transform="translate(-145.69 -25.59)"/><path class="cls-2" d="M287,351.58a2.13,2.13,0,0,1-2.1-2.78C286.69,348.88,287.31,349.87,287,351.58Z" transform="translate(-145.69 -25.59)"/><path class="cls-2" d="M540.34,355.69a2.07,2.07,0,0,1,2.1-2.69C542.75,354.69,542.11,355.63,540.34,355.69Z" transform="translate(-145.69 -25.59)"/><path class="cls-2" d="M535.35,373.92a2.1,2.1,0,0,1-2-2.8C535.18,371.24,535.79,372.21,535.35,373.92Z" transform="translate(-145.69 -25.59)"/><path class="cls-2" d="M284.83,376.61a2.23,2.23,0,0,1,2-2.9C287.31,375.47,286.69,376.47,284.83,376.61Z" transform="translate(-145.69 -25.59)"/><path class="cls-2" d="M538.32,377.93c-1.67-.12-2.41-1-2.06-2.66C537.94,375.39,538.58,376.32,538.32,377.93Z" transform="translate(-145.69 -25.59)"/><path class="cls-2" d="M598.2,474.3a6.85,6.85,0,0,1,.38.94c0,.16-.09.35-.14.53C597.34,475.45,597.1,475,598.2,474.3Z" transform="translate(-145.69 -25.59)"/><path class="cls-1" d="M490.24,523c-7.67,3.61-14.27,9.18-22.59,11.65-32.08,9.55-63.12,8.29-92.69-8.6-5.23-3-9.86-4.7-16.08-1.47-10,5.16-20.22,3.05-30.14-1.33a6.37,6.37,0,0,1-4.22-5.74l.21-.26c3.5-.24,6.09,3.32,9.76,2.36l11.43-.26c8.81-1.09,17.25-3.08,23.79-9.72a2,2,0,0,1,1.11-.63c1.78.36,2.85-.21,2.9-2.16l3.2-3.22c1.85,0,2.52-.92,2.19-2.68l4.15-6.84c1.41-.52,2.3-1.21.95-2.7L384,483.9c1-2.95.15-5.23-2.59-6.76-2.81-5.06-7-8.73-11.76-11.84-8.18-6.67-18.78-7.43-28-11.47l-9.7-6.51c-.1-1.7-1-2.34-2.67-2.08L320.73,439a9.48,9.48,0,0,0-6.42-6.51l-2.16-2.86c.34-1.59-.22-2.56-1.91-2.74l-2.46-4.09c-1.23-7.19-6.33-13.29-5.5-21.18.42-3.95.45-7.78,3-11l3,.2c.05,2.33-2.7,4.55-.25,7,.3,1.42.61,2.85.91,4.27-1.3,1.14-.92,1.89.55,2.38A53.35,53.35,0,0,0,325.43,427c6.38,5.42,13.12,10.42,19.38,16,4.49,4,7.27,4.29,10.5-1.62,4.15-7.57,10.38-13.62,16.66-19.57,39-37,89.69-23.17,120.27,4.68,1,.94,2,1.93,3,2.91,7.72,7.58,9.22,7.64,15.95-1.28,6-7.91,12.87-15.52,12.34-26.53-.07-1.45.46-2.93,2.15-3.09,2.09-.19,2.73,1.53,3.1,3.13,2.43,10.47,2,20.56-6,28.67a162.25,162.25,0,0,1-27.36,22.63c-7.31,4.71-14,10.09-18.43,17.72-4.72,8.06-5.81,16.63-2.84,25.51,3.34,9.95,10.14,14.33,20.66,14.12,7.94-.16,15.81-.29,23.08-4.15,1.36-.72,3.22-1.78,4.28.19.87,1.61-.44,3.1-1.52,4.32-4.23,4.81-9.84,6.9-16,7.73C499.58,519,494.61,520,490.24,523Zm-53.81-8c-.75-6.9-1.33-13.82-2.32-20.68-.66-4.64.48-8.08,4.55-10.65,3.61-2.28,7-4.93,11.2-7.95-2-.89-2.78-1.61-3.51-1.53-12.45,1.3-16.4-6.57-18.33-16.75a31.93,31.93,0,0,0-1.29-4c.45-2.72-.52-4.79-3-7A37.93,37.93,0,0,0,420,463.65c.21,5.56-2.83,8.17-7.72,10.08C409,475,403,472.62,402.73,477s5.88,4.31,9.28,5.69c6.86,2.79,10.07,6.8,9.65,14.7-.48,9,.68,18,1,27,.12,2.75.62,5.92,3.91,5.18,3.73-.84,9.34,1.45,10.88-3.41C438.55,522.91,439.13,518.47,436.43,515Z" transform="translate(-145.69 -25.59)"/><path class="cls-2" d="M419.67,295.63c16.53.66,30.56,4.77,42.58,14.5,7.66,6.2,8,10.83,1.12,18C455,336.82,446,344.93,438.12,354c-9.59,11.08-20.83,9-31.52,4.12-12.92-5.92-22-16.83-29.9-28.46-2.55-3.75-1.91-7.79.83-11.67C388.13,303,402.91,296.27,419.67,295.63Zm2,2.59c-15.59.37-28.83,5.51-39.1,17.17-2.22,2.52-5.58,6.1-2.32,9.11,12.73,11.76,24.95,24.18,39.65,33.63,4.17,2.67,7.74,1.61,11.34-1.46a312.07,312.07,0,0,0,29-28.93c6.58-7.3,6.44-11.66-1.68-17.54C447.51,302.19,434.83,299,421.65,298.22Z" transform="translate(-145.69 -25.59)"/><path class="cls-1" d="M369.91,282.67a47.09,47.09,0,0,1-1.35,6.33c-1.58,4.75-4.61,8.21-10,8.25-5.18,0-7.72-3.67-9.38-8-2.81-7.26-2-14.65.15-21.81,1.93-6.32,9.61-7.54,14.68-2.51C368.61,269.48,369.75,275.36,369.91,282.67Z" transform="translate(-145.69 -25.59)"/><path class="cls-1" d="M461,279.47c.1-9.17,4.92-17,9.78-17.15,5.19-.18,10.08,5.6,11.66,13.69a21,21,0,0,1,.14,8.25c-1.1,5.46-2.84,10.83-9.42,11.13-6.29.29-9.33-4.32-11-9.75A44.48,44.48,0,0,1,461,279.47Z" transform="translate(-145.69 -25.59)"/><path class="cls-2" d="M308.11,397.76c-2.45-2.42.3-4.64.25-7C312,393.25,308.25,395.44,308.11,397.76Z" transform="translate(-145.69 -25.59)"/><path class="cls-2" d="M309.57,404.41c-1.47-.49-1.85-1.24-.55-2.38C310.4,402.55,310.88,403.28,309.57,404.41Z" transform="translate(-145.69 -25.59)"/><path class="cls-1" d="M211.62,397.52c-.08-3.69,2.77-4.58,5.43-5.29a85.28,85.28,0,0,1,41.9-.71c6.71,1.59,7.45,4.21,2.15,8.58-6.84,5.63-12.11,13.37-21.11,16.19Z" transform="translate(-145.69 -25.59)"/><path class="cls-2" d="M211.62,397.52,240,416.29c.31,3.35-1.93,4.41-4.59,5C224.76,423.43,209.73,408.41,211.62,397.52Z" transform="translate(-145.69 -25.59)"/><path class="cls-1" d="M201.65,381c.14-7,4.22-13.14,8.34-12.5,5.59.87,6.21,5.71,6.33,10.1.18,6.2-3.88,11.46-8.21,11C202.69,389,202.12,384.68,201.65,381Z" transform="translate(-145.69 -25.59)"/><path class="cls-1" d="M274.67,375.48c-.17,4.55-1.47,8.24-6.21,8-5.55-.3-6.92-4.75-7.09-9.46-.15-4.16,1.53-8,6-7.73C272.69,366.61,273.83,371.44,274.67,375.48Z" transform="translate(-145.69 -25.59)"/><path class="cls-2" d="M369.71,509.61c-6.54,6.64-15,8.63-23.79,9.72C353.33,514.82,361.44,512,369.71,509.61Z" transform="translate(-145.69 -25.59)"/><path class="cls-2" d="M341.61,453.83c9.26,4,19.86,4.8,28,11.47C360.25,461.6,349.65,460.83,341.61,453.83Z" transform="translate(-145.69 -25.59)"/><path class="cls-2" d="M314.31,432.49a9.48,9.48,0,0,1,6.42,6.51A7.81,7.81,0,0,1,314.31,432.49Z" transform="translate(-145.69 -25.59)"/><path class="cls-2" d="M334.49,519.59c-3.67,1-6.26-2.6-9.76-2.36C329,514,331.62,517.2,334.49,519.59Z" transform="translate(-145.69 -25.59)"/><path class="cls-2" d="M381.41,477.14c2.74,1.53,3.55,3.81,2.59,6.76A7.74,7.74,0,0,1,381.41,477.14Z" transform="translate(-145.69 -25.59)"/><path class="cls-2" d="M384.21,491.38c1.35,1.49.46,2.18-.95,2.7C382.58,492.82,382.85,491.91,384.21,491.38Z" transform="translate(-145.69 -25.59)"/><path class="cls-2" d="M379.11,500.92c.33,1.76-.34,2.7-2.19,2.68A2.13,2.13,0,0,1,379.11,500.92Z" transform="translate(-145.69 -25.59)"/><path class="cls-2" d="M329.24,445.24c1.63-.26,2.57.38,2.67,2.08C330.22,447.65,329.37,446.91,329.24,445.24Z" transform="translate(-145.69 -25.59)"/><path class="cls-2" d="M373.72,506.82c-.05,1.95-1.12,2.52-2.9,2.16C371.19,507.45,372.07,506.62,373.72,506.82Z" transform="translate(-145.69 -25.59)"/><path class="cls-2" d="M310.24,426.89c1.69.18,2.25,1.15,1.91,2.74C310.51,429.42,309.83,428.53,310.24,426.89Z" transform="translate(-145.69 -25.59)"/><path class="cls-1" d="M604.9,382.67c6,.92,13.68-.63,15.9,5.29,2,5.22-5.53,7.52-8.78,11.16a59.92,59.92,0,0,1-4.72,4.09c-2.36,2.17-4.42,2.11-6.42-.51-2.67-3.5-5.38-7-8.19-10.36-3.75-4.53-2.1-7.16,3-8.34C598.8,383.27,602.05,383.06,604.9,382.67Z" transform="translate(-145.69 -25.59)"/><path class="cls-1" d="M640.51,371.18l1.26,3.95c.44,2.16-.32,4.06-1.18,6-2.23,4.95-6.67,5.6-9.93,1.43A12.89,12.89,0,0,1,628,372.07c.61-3.36,1.39-7.37,5.65-7.81C638.28,363.77,639.91,367.19,640.51,371.18Z" transform="translate(-145.69 -25.59)"/><path class="cls-1" d="M582.92,369.62c-.5,4.31-1.57,8.91-7.09,9.33-4.72.35-6.41-3.26-6.19-7.46.24-4.68,1.87-9.25,7.07-9.77C581.36,361.26,582.7,365.2,582.92,369.62Z" transform="translate(-145.69 -25.59)"/><path class="cls-2" d="M426.73,453.46a5.23,5.23,0,0,0-2.46,4.7c.48,9.38-2,16.93-13.2,19.85,18.67,5.3,12.9,21.43,16.16,33.3,1.8,6.54,3.49,7.61,9.2,3.66,2.7,3.5,2.12,7.94,1.07,11.23-1.54,4.86-7.15,2.57-10.88,3.41-3.29.74-3.79-2.43-3.91-5.18-.37-9-1.53-18.07-1-27,.42-7.9-2.79-11.91-9.65-14.7-3.4-1.38-9.54-1.44-9.28-5.69s6.24-2,9.53-3.28c4.89-1.91,7.93-4.52,7.72-10.08a37.93,37.93,0,0,1,3.72-17.17C426.21,448.67,427.18,450.74,426.73,453.46Z" transform="translate(-145.69 -25.59)"/><path class="cls-1" d="M421.65,298.22c13.18.82,25.86,4,36.92,12,8.12,5.88,8.26,10.24,1.68,17.54a312.07,312.07,0,0,1-29,28.93c-3.6,3.07-7.17,4.13-11.34,1.46-14.7-9.45-26.92-21.87-39.65-33.63-3.26-3,.1-6.59,2.32-9.11C392.82,303.73,406.06,298.59,421.65,298.22Z" transform="translate(-145.69 -25.59)"/></svg>