<svg id="Layer_27" data-name="Layer 27" xmlns="http://www.w3.org/2000/svg" viewBox="0 0 533.48 572.49"><defs><style>.cls-1{fill:#4a6c35;}.cls-2{fill:#b4bf8f;}.cls-3{fill:#edf0d6;}</style></defs><title>H_Agregar</title><path class="cls-1" d="M672.82,374.19q0,12.82,0,25.64c-1.07.65-.81,1.47-.35,2.33a67,67,0,0,0-.84,11c-.87.56-.75,1.17-.14,1.82l-.39,2.64c-.76.26-.72.71-.33,1.25l-.24,1.52c0,.19,0,.38-.08.58-.15,1.75-.31,3.5-.46,5.25-.72.4-1.06.85-.23,1.46l-.42,4.43c-.24.25-.65.48-.7.77a160.44,160.44,0,0,1-6.74,24.68,162.13,162.13,0,0,1-13.25,28.92,151.69,151.69,0,0,1-41.11,45.8c-9.56,7-19.55,13.36-30.93,17.6-2,.74-4.08,1-6,1.86a37.25,37.25,0,0,1-7.74,2.9,78.07,78.07,0,0,0-7.88,1.86c-5.86,2-12,2.81-18,4.35-5.65,1.47-11.57,2.12-17.35,3.23-2.27.44-4,1.76-6.25,2.25a73.2,73.2,0,0,1-16.61,1.37c-15.53-.15-31.08-.58-46.41-3.3-8.81-1.57-17.69-2.91-26-6.43-4.13-1.75-8.32-2.49-12.8-1.2a170.63,170.63,0,0,1-19.17,4c-6.15,1-12.43,1.53-18.56,2.48a289.28,289.28,0,0,1-34.73,2.92,147.47,147.47,0,0,1-28.67-1.35c-10.66-1.73-21.42-3.08-31.87-5.66a175.81,175.81,0,0,1-27.76-9.23,164.51,164.51,0,0,1-34.6-20,140.49,140.49,0,0,1-39.94-47.66,147.33,147.33,0,0,1-10.45-26.41,179.78,179.78,0,0,1-7.15-48.29,240.26,240.26,0,0,1,1.54-31.93q1.56-13.38,4.22-26.57c1.36-6.8,3.17-13.53,5-20.23a201.08,201.08,0,0,1,5.95-19.4c3.32-8.56,6.24-17.26,10-25.67,2.43-5.45,4.58-11.05,7.26-16.35,5.52-10.9,10.75-22,17.18-32.44,3.81-6.22,7.34-12.6,11.3-18.75q7.22-11.22,15-22.15c5.91-8.37,11.78-16.8,18.23-24.79,7.19-8.89,14.41-17.76,22.06-26.32,13.15-14.71,26.69-29.07,41.1-42.7C337.44,81.52,358.3,63.77,381,48.06c5-3.47,10.11-6.87,15.44-10,4.58-2.64,9.7-4.44,13.88-7.6s8.2-2.55,12.3-.54c5,2.43,9.78,5.09,14.6,7.76A447.83,447.83,0,0,1,477.68,63a499.08,499.08,0,0,1,45.85,36.46,531.68,531.68,0,0,1,41.81,41.78c2.29,2.55,3.87,5.79,7.21,7.45l.54.53c-.18,1.18.74,1.83,1.4,2.61a445.76,445.76,0,0,1,32.19,42.66,453.47,453.47,0,0,1,25.18,42.32,432.69,432.69,0,0,1,18.89,41.53c1.91,4.81,3,9.92,5.57,14.5l4.32,13.28c-.39.54-.36,1,.37,1.21l.24,1.05c-.28.33-.19.58.21.76,1.21,4.83,2.44,9.66,3.63,14.5,1.58,6.36,2.79,12.79,3.86,19.25-.42.52-.44,1,.31,1.22,1,4.57.89,9.28,2.16,13.81a1.24,1.24,0,0,0,.28,2.11q.38,5.64.73,11.3C672,372.35,671.65,373.36,672.82,374.19Zm-183,168.75a80.75,80.75,0,0,0,25.05-1.87,48.14,48.14,0,0,0,7.84-2.07c4.93-2,10.08-3.55,14.76-6.11,3.43-1.89,7-3.55,10.26-5.7,6-4,11.92-8.23,17.71-12.56,3-2.26,6-4.53,7.38-8.35A82.91,82.91,0,0,0,577,490.22c1.68-10.78,1.13-21.66-.17-32.48-.65-5.31-1.46-10.61-2.36-15.91a52.56,52.56,0,0,0-2.61-10.8c-3.13-7.85-4.69-16.13-8.06-23.91-2.81-6.49-5.45-13-9.75-18.81C548.56,381,541.93,374.5,536.65,367c-1.51-2.13-1.66-3.71.41-5.27,6.55-4.94,11.11-11.37,15.31-18.08a77.88,77.88,0,0,0,7.48-15.26,141.27,141.27,0,0,0,4.25-16.36,109.65,109.65,0,0,0-.2-46.53,99.55,99.55,0,0,0-8.46-24.3c-3.15-6.38-7.46-12.13-11.9-17.77-2.48-3.15-3.23-6.3-.79-10,3.62-5.45,5-11.56,5.08-18,0-2.83-.73-5.49-1.15-8.23a27.55,27.55,0,0,0-7.75-15.23,12.56,12.56,0,0,0-12.78-3.11c-7.66,2.4-14.31,16.94-12,24.77.62,2.1.54,4-1.62,5.08s-3.43-.69-4.57-2A62.7,62.7,0,0,0,493,184.49c-8.49-5.08-17.77-8.4-27.33-11a138.52,138.52,0,0,0-17.16-3.54c-6.76-.94-13.53-1.8-20.4-2.08a225.57,225.57,0,0,0-31.43.67,180.19,180.19,0,0,0-32.15,6,130.91,130.91,0,0,0-24.28,9.34c-3.85,2-7.46,4.4-11.18,6.61-1.73,1-2.41,1-3.5-1.21-1.73-3.53-1.55-7-1.4-10.56.21-4.94-1.56-9.29-3.84-13.49-2.45-4.53-7.76-6.5-11.76-4.69a20.13,20.13,0,0,0-7.5,6.06c-4.9,6.16-7.16,13.19-8.19,20.79-1,7.06,0,13.64,3.65,19.84a3.06,3.06,0,0,1-.55,4A156.62,156.62,0,0,0,275.5,238.9a84.17,84.17,0,0,0-11.42,39.49,96.83,96.83,0,0,0,4.92,35,110.05,110.05,0,0,0,14.27,28c3.66,5.19,8.24,9.63,12.5,14.35,2.15,2.38,1.91,4.85-.76,6.66a10.39,10.39,0,0,0-3.28,3.45c-4.55,7.63-9.39,15.11-13.2,23.1-3.72,7.83-7.35,15.72-9.53,24.1-1.23,4.74-2.38,9.5-3.48,14.27a117.85,117.85,0,0,0-2.45,18.13,127.7,127.7,0,0,0-.1,22.21,146.91,146.91,0,0,0,3.36,21.39c1.75,6.88,4,13.63,6.37,20.38,4.63,13.39,13.84,23.27,25.1,31.71A58,58,0,0,0,315.23,550c5.36,1.7,10.71,3.61,16.24,4.26,9.49,1.13,19,1.84,28.68.78,11.26-1.25,22.45-2.5,32.79-7.42,10.71-5.11,21-10.79,28.49-19.91,1.46-1.77,2.76-1.51,4.23-1a33.22,33.22,0,0,1,4.6,2.35c7.47,4,15.14,7.39,23.57,9.26,2.83.62,5.74,1.07,8.48,1.92,4.66,1.45,9.52,1.82,14.28,2.54C480.89,543.45,485.39,542.94,489.8,542.94Z" transform="translate(-140.07 -22.13)"/><path class="cls-2" d="M572.55,148.68c-3.34-1.66-4.92-4.9-7.21-7.45a531.68,531.68,0,0,0-41.81-41.78A499.08,499.08,0,0,0,477.68,63a447.83,447.83,0,0,0-40.43-25.26c-4.82-2.67-9.65-5.33-14.6-7.76-4.1-2-8.15-2.6-12.3.54s-9.3,5-13.88,7.6c-5.33,3.08-10.41,6.48-15.44,10-22.73,15.71-43.59,33.46-63.5,52.27-14.41,13.63-27.95,28-41.1,42.7-7.65,8.56-14.87,17.43-22.06,26.32-6.45,8-12.32,16.42-18.23,24.79q-7.72,10.92-15,22.15c-4,6.15-7.49,12.53-11.3,18.75-6.43,10.48-11.66,21.54-17.18,32.44-2.68,5.3-4.83,10.9-7.26,16.35-3.75,8.41-6.67,17.11-10,25.67a201.08,201.08,0,0,0-5.95,19.4c-1.85,6.7-3.66,13.43-5,20.23q-2.64,13.2-4.22,26.57a240.26,240.26,0,0,0-1.54,31.93,179.78,179.78,0,0,0,7.15,48.29,147.33,147.33,0,0,0,10.45,26.41A140.49,140.49,0,0,0,216.26,530a164.51,164.51,0,0,0,34.6,20,175.81,175.81,0,0,0,27.76,9.23c10.45,2.58,21.21,3.93,31.87,5.66a147.47,147.47,0,0,0,28.67,1.35,289.28,289.28,0,0,0,34.73-2.92c6.13-1,12.41-1.45,18.56-2.48a170.63,170.63,0,0,0,19.17-4c4.48-1.29,8.67-.55,12.8,1.2,8.28,3.52,17.16,4.86,26,6.43,15.33,2.72,30.88,3.15,46.41,3.3a73.2,73.2,0,0,0,16.61-1.37c2.22-.49,4-1.81,6.25-2.25,5.78-1.11,11.7-1.76,17.35-3.23,6-1.54,12.1-2.36,18-4.35a78.07,78.07,0,0,1,7.88-1.86,37.25,37.25,0,0,0,7.74-2.9c1.9-.89,4-1.12,6-1.86,11.38-4.24,21.37-10.6,30.93-17.6a151.69,151.69,0,0,0,41.11-45.8,162.13,162.13,0,0,0,13.25-28.92,160.44,160.44,0,0,0,6.74-24.68c0-.29.46-.52.7-.77,1.79,2.47.26,5,0,7.47a122,122,0,0,1-4.13,21.5q-2.48,8.61-5.32,17.15a138.87,138.87,0,0,1-11.45,24.89,148.54,148.54,0,0,1-14.08,20.62,202.5,202.5,0,0,1-13.66,15.31,160.84,160.84,0,0,1-14.44,12.83,139.79,139.79,0,0,1-17.89,12.41c-4.6,2.54-9,5.35-13.71,7.77-4.14,2.13-8,4.79-12.45,6.41-3.79,1.38-7.76,2.45-11.33,4.23a60.59,60.59,0,0,1-13.3,4.49c-4.86,1.16-9.77,2.13-14.68,3.06-6.07,1.16-12.24,1.15-18.4,1.27-2.26,0-4.44,1.38-6.84,1-8.19-1.46-16.6-1-24.81-2.94-5.23-1.24-10.54-2.3-15.76-3.66a86.9,86.9,0,0,1-9.51-3.17c-6.09-2.38-12.23-4.71-17.73-8.12-3.73-2.33-7.58-4.65-10.73-7.76-1.93-1.92-4.24-3.47-5.79-5.76-.95-1.41-2.13-1.62-3.63-.35a94.68,94.68,0,0,1-23.57,14.49c-8.17,3.57-16.41,7-25.17,9.2-3,.77-6.27,1.41-9.05,2.94-2.24,1.23-4.74.77-7.09,1.33-4.22,1-8.49,2-12.78,2.85-4.78.93-9.61,1.17-14.39,1.94a89.59,89.59,0,0,1-28.26,0,151.37,151.37,0,0,1-16.15-3.26c-2.12-.57-4-1.83-6.08-2.58-9.9-3.58-20-6.69-29.28-11.68a238.55,238.55,0,0,1-22.77-13.48,148.41,148.41,0,0,1-36.42-35.68c-4.67-6.26-8.94-12.73-13-19.36a135.09,135.09,0,0,1-8-15.9c-1.42-3.22-2.55-6.52-3.78-9.8-1.68-4.47-3.47-8.89-4.77-13.46a186.74,186.74,0,0,1-5.22-22.66c-1.2-7.94-2.19-15.91-2.83-23.94-.43-5.45-.33-10.91-.84-16.35a60,60,0,0,1,.54-13.58c.61-4.52.27-9.06,1-13.57,1.19-7.81,1.87-15.67,3.31-23.46,1.37-7.44,2.77-14.87,4.47-22.24,1.23-5.28,2.77-10.52,4.13-15.78,1.64-6.37,4.07-12.49,5.87-18.8A80.88,80.88,0,0,1,164,285.67c1.49-3.18,2.64-6.52,4-9.78,2.32-5.66,4.68-11.29,7.34-16.83,4.33-9,8.72-18,13.52-26.79q9.31-17.1,20-33.44c5.87-9,12-17.71,18.3-26.38,5.81-8,12.47-15.44,18.31-23.41,5.13-7,11.25-13.12,16.77-19.76,2.11-2.53,4.48-4.87,6.82-7.21,4.72-4.72,9.74-9.18,14.18-14.11A154.74,154.74,0,0,1,300,92.53c5.19-4.3,10.3-8.69,15.55-12.93,9.34-7.54,19.11-14.55,28.94-21.46,4.74-3.34,9.73-6.44,14.48-9.75,10.92-7.6,22.82-13.68,34.17-20.58A43.76,43.76,0,0,1,407,22.25c2.66-.55,4.33.91,5.94,2.32a7,7,0,0,0,4.59,2.06c4.07.17,7.4,2.32,10.78,4.11,6.51,3.47,12.9,7.15,19.27,10.85,6.71,3.9,13.31,7.93,19.74,12.23,7.29,4.89,14.67,9.66,21.6,15,9.5,7.34,18.94,14.76,28.14,22.45,5.13,4.3,10.09,8.78,14.95,13.29,5.42,5.05,10.79,10.2,16,15.47,3.86,3.91,7.71,7.84,11.41,11.87,4.22,4.58,8.26,9.3,12.41,13.94A2.76,2.76,0,0,1,572.55,148.68Z" transform="translate(-140.07 -22.13)"/><path class="cls-2" d="M656.32,292.83c-2.6-4.58-3.66-9.69-5.57-14.5a432.69,432.69,0,0,0-18.89-41.53,453.47,453.47,0,0,0-25.18-42.32,445.76,445.76,0,0,0-32.19-42.66c-.66-.78-1.58-1.43-1.4-2.61,3.8,1.21,5.51,4.57,7.72,7.23,6.05,7.27,12.06,14.62,17.39,22.36,4.42,6.41,9.18,12.62,13.09,19.35,2.81,4.84,6.13,9.42,9,14.23,3.43,5.74,6.48,11.68,10,17.38,3.82,6.24,6.54,13,10,19.36,2.45,4.53,4.07,9.5,6.22,14.18,2.72,5.92,5,12,7.32,18,1.23,3.15,3.21,6.18,3.07,9.75C656.84,291.71,657.07,292.41,656.32,292.83Z" transform="translate(-140.07 -22.13)"/><path class="cls-2" d="M672.82,374.19c-1.17-.83-.87-1.84-.39-2.87C674,372.1,673.76,373.1,672.82,374.19Z" transform="translate(-140.07 -22.13)"/><path class="cls-2" d="M672.43,402.16c-.46-.86-.72-1.68.35-2.33C673.81,400.76,673.92,401.57,672.43,402.16Z" transform="translate(-140.07 -22.13)"/><path class="cls-2" d="M671.7,360a1.24,1.24,0,0,1-.28-2.11C672.56,358.49,672.34,359.23,671.7,360Z" transform="translate(-140.07 -22.13)"/><path class="cls-2" d="M671.45,415c-.61-.65-.73-1.26.14-1.82C672.6,413.88,672.44,414.47,671.45,415Z" transform="translate(-140.07 -22.13)"/><path class="cls-2" d="M669.26,344.1c-.75-.26-.73-.7-.31-1.22C669.82,343.11,670.23,343.45,669.26,344.1Z" transform="translate(-140.07 -22.13)"/><path class="cls-2" d="M670.73,418.91c-.39-.54-.43-1,.33-1.25C672,418.32,671.59,418.67,670.73,418.91Z" transform="translate(-140.07 -22.13)"/><path class="cls-2" d="M669.72,427.72c-.83-.61-.49-1.06.23-1.46C670.46,426.83,670.54,427.34,669.72,427.72Z" transform="translate(-140.07 -22.13)"/><path class="cls-2" d="M661,307.32c-.73-.24-.76-.67-.37-1.21C661.55,306.3,661.91,306.64,661,307.32Z" transform="translate(-140.07 -22.13)"/><path class="cls-2" d="M661.46,309.13c-.4-.18-.49-.43-.21-.76A.47.47,0,0,1,661.46,309.13Z" transform="translate(-140.07 -22.13)"/><path class="cls-2" d="M670.41,421c0-.2.06-.39.08-.58C671.06,420.69,671,420.88,670.41,421Z" transform="translate(-140.07 -22.13)"/><path class="cls-2" d="M489.8,542.94c-4.41,0-8.91.51-13.21-.14-4.76-.72-9.62-1.09-14.28-2.54-2.74-.85-5.65-1.3-8.48-1.92-8.43-1.87-16.1-5.29-23.57-9.26a33.22,33.22,0,0,0-4.6-2.35c-1.47-.51-2.77-.77-4.23,1-7.51,9.12-17.78,14.8-28.49,19.91-10.34,4.92-21.53,6.17-32.79,7.42-9.63,1.06-19.19.35-28.68-.78-5.53-.65-10.88-2.56-16.24-4.26a58,58,0,0,1-17.43-8.83c-11.26-8.44-20.47-18.32-25.1-31.71-2.33-6.75-4.62-13.5-6.37-20.38A146.91,146.91,0,0,1,263,467.71a127.7,127.7,0,0,1,.1-22.21,117.85,117.85,0,0,1,2.45-18.13c1.1-4.77,2.25-9.53,3.48-14.27,2.18-8.38,5.81-16.27,9.53-24.1,3.81-8,8.65-15.47,13.2-23.1a10.39,10.39,0,0,1,3.28-3.45c2.67-1.81,2.91-4.28.76-6.66-4.26-4.72-8.84-9.16-12.5-14.35a110.05,110.05,0,0,1-14.27-28,96.83,96.83,0,0,1-4.92-35A84.17,84.17,0,0,1,275.5,238.9,156.62,156.62,0,0,1,296,211.23a3.06,3.06,0,0,0,.55-4c-3.67-6.2-4.61-12.78-3.65-19.84,1-7.6,3.29-14.63,8.19-20.79a20.13,20.13,0,0,1,7.5-6.06c4-1.81,9.31.16,11.76,4.69,2.28,4.2,4.05,8.55,3.84,13.49-.15,3.53-.33,7,1.4,10.56,1.09,2.23,1.77,2.24,3.5,1.21,3.72-2.21,7.33-4.61,11.18-6.61a130.91,130.91,0,0,1,24.28-9.34,180.19,180.19,0,0,1,32.15-6,225.57,225.57,0,0,1,31.43-.67c6.87.28,13.64,1.14,20.4,2.08a138.52,138.52,0,0,1,17.16,3.54c9.56,2.61,18.84,5.93,27.33,11a62.7,62.7,0,0,1,14.95,12.32c1.14,1.29,2.31,3.14,4.57,2s2.24-3,1.62-5.08c-2.29-7.83,4.36-22.37,12-24.77a12.56,12.56,0,0,1,12.78,3.11,27.55,27.55,0,0,1,7.75,15.23c.42,2.74,1.2,5.4,1.15,8.23-.12,6.42-1.46,12.53-5.08,18-2.44,3.66-1.69,6.81.79,10,4.44,5.64,8.75,11.39,11.9,17.77a99.55,99.55,0,0,1,8.46,24.3,109.65,109.65,0,0,1,.2,46.53,141.27,141.27,0,0,1-4.25,16.36,77.88,77.88,0,0,1-7.48,15.26c-4.2,6.71-8.76,13.14-15.31,18.08-2.07,1.56-1.92,3.14-.41,5.27,5.28,7.48,11.91,14,17.37,21.29,4.3,5.79,6.94,12.32,9.75,18.81,3.37,7.78,4.93,16.06,8.06,23.91a52.56,52.56,0,0,1,2.61,10.8c.9,5.3,1.71,10.6,2.36,15.91,1.3,10.82,1.85,21.7.17,32.48a82.91,82.91,0,0,1-4.17,16.06c-1.43,3.82-4.37,6.09-7.38,8.35-5.79,4.33-11.68,8.54-17.71,12.56-3.23,2.15-6.83,3.81-10.26,5.7-4.68,2.56-9.83,4.1-14.76,6.11a48.14,48.14,0,0,1-7.84,2.07A80.75,80.75,0,0,1,489.8,542.94Zm8.74-73.44a8.16,8.16,0,0,1,2.42,4.27,5,5,0,0,0,3,3.57c4.3,2,8.78,2.09,13.41,1.25s9.42-1.46,14-2.72a3.39,3.39,0,0,1,4,1.12c.85,1.31-.09,2.37-.93,3.48-3.86,5.09-8.82,9.24-15,11.06-11.38,3.39-22.74,4.24-31.86-5.42-1-1.08-1.79-1.27-2.52.39-1.78,4-5.07,7.05-8,10.25A80.31,80.31,0,0,1,464,508c-2.8,2-6.34,2.76-8.86,5.17a2,2,0,0,1-1.39.31c-2.11-.26-3.5.94-4.9,2.09a6.33,6.33,0,0,1-1.85,1.27c-6.54,2.32-13,5-19.77,6.52-.63.15-1.44.26-1.49,1.1s.53,1.08,1.22,1.35a68,68,0,0,1,8,3.89c7.83,4.28,16.38,6.68,25,8.81,6.44,1.59,13.17,2.26,19.81,3a91.58,91.58,0,0,0,26.54-.66c4.18-.75,8.47-1.33,12.51-2.42a109.2,109.2,0,0,0,23.81-10.13c7.11-3.89,13.42-8.81,20-13.46,3.56-2.54,7.26-4.93,8.45-9.37.47-1.79.76-3.63,1.37-5.37a47.45,47.45,0,0,0,2.76-12.92,229.83,229.83,0,0,0-1.76-40.78,2.16,2.16,0,0,0-.15-.81c-2.12-4-1.44-8.5-3.11-12.6a45.51,45.51,0,0,1-2-5.72c-1.31-5-3-9.86-4.7-14.73-1.23-3.57-2.54-7.13-4.12-10.58-1.7-3.7-3.27-7.58-5.75-10.8-6-7.84-12.5-15.34-18.81-23-2.45-2.95-2.44-4.89.46-7.49A74.31,74.31,0,0,0,549.41,344a97.12,97.12,0,0,0,10.2-23A108.91,108.91,0,0,0,564,292.66c.23-9.52-.31-19-2.71-28.33A109.27,109.27,0,0,0,555,245.49,104.12,104.12,0,0,0,541.2,224a10,10,0,0,1-.52-11.23A25,25,0,0,0,545,202c1.08-8.9.43-17.7-5-25.61-3.65-5.29-10.3-7.56-14.74-4.38a21.55,21.55,0,0,0-8.54,13.33c-.81,3.57-.2,7,.17,10.47.31,2.91-1.57,4.3-3.88,5.25a5.11,5.11,0,0,1-5.73-1.74,71.44,71.44,0,0,0-9.93-9.34c-5.1-4.21-11.06-7-17.08-9.45a122.68,122.68,0,0,0-22.4-6.75c-7-1.43-13.94-3.39-21.19-3.46-10.89-.11-21.78-.41-32.65-.06a147.74,147.74,0,0,0-21.5,2.35,155.12,155.12,0,0,0-23,5.87c-4,1.38-8.22,2.47-12,4.3-6.22,3-12.5,6-17.95,10.23-1.55,1.21-5.81.75-5.81-.43,0-3-2.2-5.33-2.09-8.3.13-3.15.08-6.32-.08-9.47-.1-1.78-.8-3.67-3.21-2.76-1.93.73-4.05,1.64-5.23,3.4-3.52,5.23-7.59,10.25-8.53,16.66-1,6.63-3.38,13.06-3.2,19.86a9.19,9.19,0,0,1-.52,2.13c-.92,3.74-3.43,6.75-5.17,10.11a98.09,98.09,0,0,1-5.5,9.29c-1.7,2.55-3.61,5.12-4.51,7.94a55.38,55.38,0,0,0-2.92,13.71c-.36,6.57-1.79,13-1.88,19.6a100.89,100.89,0,0,0,2.68,26.37,73.15,73.15,0,0,0,4.59,13.61c2.89,6.13,6.66,11.78,10.35,17.48,4.74,7.31,9.83,14.46,12.11,23,.61,2.28,0,5.78-2,7.09a18.17,18.17,0,0,0-6.09,6.17,208.34,208.34,0,0,0-11.29,21.26A78.7,78.7,0,0,0,285.69,407c-1.49,6.92-1.71,14.06-3.2,21a58.2,58.2,0,0,0-1,13.26c.31,14.47-2.26,29.09,2.12,43.39a79.62,79.62,0,0,0,13.06,25.23A67.88,67.88,0,0,0,312.3,525.6a74.47,74.47,0,0,0,17.57,9.82,91.11,91.11,0,0,0,29.75,6.08,111.1,111.1,0,0,0,22.61-2c8.33-1.5,16.08-4.25,24-6.82,3.71-1.21,6.73-4.16,11.12-3.74,1.27.12,2.18-1.14,3-2.09a1.84,1.84,0,0,0,.35-2.08c-.37-.73-1.18-.59-1.83-.54-1.46.11-2.9.37-4.36.45a56.93,56.93,0,0,1-28.66-6.05,58,58,0,0,1-21.09-17.13c-1.82-2.39-2.66-2.26-4.89-.1-3.64,3.53-7.75,6.7-12.94,7.63a40.25,40.25,0,0,1-17.57-1c-9.34-2.45-17-7.41-23.9-13.6a17.17,17.17,0,0,1-4.87-8.63c-.68-2.77-2.31-5.75-.34-8.76a2.08,2.08,0,0,0-.26-1.86c-1.92-2.82-.2-5.32,1.05-7.54,1.6-2.84,5.86-2.48,7.9.14,1.15,1.46,2,3.07,3.36,4.48,3.43,3.64,7.73,6.28,11.49,9.52-7-2.4-11.72-7.4-15.68-13-.93-1.31-1.43-2.22-3.17-2-1.92.18-3.31,1.32-3.46,2.86-.35,3.76-.92,7.71,1.44,11.12,7.57,11,17.87,18.07,31.92,19.34,6.77.61,13.25-.57,19-4.42a33,33,0,0,0,7-6.67c.66-.81,1.66-2.54,3-1.09,1.82,2.06,3.36,4.35,5.13,6.47a38.63,38.63,0,0,0,5.11,5.12c1.29,1,1.64,2.86,3.23,3.34,3,.9,4.67,3.39,7,5.06a42.71,42.71,0,0,0,9.22,4.86c4.37,1.76,8.66,4.26,13.74,4.09a5.41,5.41,0,0,1,1.4.41,52.27,52.27,0,0,0,24.58,1.2c2.68-.54,5.24-2,7.85-1.93,5.34.07,9.08-3.42,13.6-5.05a50.9,50.9,0,0,0,9.51-5.13c1.59-1,2.37-2.59,3.94-3.36,2.66-1.31,4.23-3.65,6.33-5.47,1.62-1.4,2.7-3.21,4.21-4.51,2.6-2.23,3.95-5.1,5.75-7.75.44-.64.09-1.85,1.16-2.06a2.81,2.81,0,0,1,2.7,1.39c4.27,5.62,10.55,7.41,17.33,7.87a32.59,32.59,0,0,0,21.33-6.29,41.05,41.05,0,0,0,5.93-5.32c.87-.91,1.68-2.37.66-3.52s-2.32-.58-3.51,0a8.23,8.23,0,0,1-1.84.84c-6.88,1.44-13.8,2.47-20.89,1.9A9.63,9.63,0,0,1,498.54,469.5ZM280,483.78c-.26-1.27-1.34-1.24-2.44-.94s-3.31,5.05-2.81,6a1.4,1.4,0,0,0,.76.72.77.77,0,0,0,.93-.83c-.05-1.67,1.53-2.26,2.36-3.34C279.17,484.91,280,484.76,280,483.78Z" transform="translate(-140.07 -22.13)"/><path class="cls-1" d="M505.62,445.5a.58.58,0,0,0-.19.4c-3,1.94-3.68,5.22-5,8-1.24,2.56-2.81,5.24-1.86,8.32a26.2,26.2,0,0,0,0,7.24,9.63,9.63,0,0,0,8.64,10.57c7.09.57,14-.46,20.89-1.9a8.23,8.23,0,0,0,1.84-.84c1.19-.6,2.61-1,3.51,0s.21,2.61-.66,3.52a41.05,41.05,0,0,1-5.93,5.32,32.59,32.59,0,0,1-21.33,6.29c-6.78-.46-13.06-2.25-17.33-7.87a2.81,2.81,0,0,0-2.7-1.39c-1.07.21-.72,1.42-1.16,2.06-1.8,2.65-3.15,5.52-5.75,7.75-1.51,1.3-2.59,3.11-4.21,4.51-2.1,1.82-3.67,4.16-6.33,5.47-1.57.77-2.35,2.36-3.94,3.36a50.9,50.9,0,0,1-9.51,5.13c-4.52,1.63-8.26,5.12-13.6,5.05-2.61,0-5.17,1.39-7.85,1.93a52.27,52.27,0,0,1-24.58-1.2,5.41,5.41,0,0,0-1.4-.41c-5.08.17-9.37-2.33-13.74-4.09a42.71,42.71,0,0,1-9.22-4.86c-2.29-1.67-4-4.16-7-5.06-1.59-.48-1.94-2.29-3.23-3.34a38.63,38.63,0,0,1-5.11-5.12c-1.77-2.12-3.31-4.41-5.13-6.47-1.3-1.45-2.3.28-3,1.09a33,33,0,0,1-7,6.67c-5.72,3.85-12.2,5-19,4.42-14.05-1.27-24.35-8.38-31.92-19.34-2.36-3.41-1.79-7.36-1.44-11.12.15-1.54,1.54-2.68,3.46-2.86,1.74-.18,2.24.73,3.17,2,4,5.62,8.67,10.62,15.68,13h0c.17.32.25.77.52.93a21.61,21.61,0,0,0,10.79,3.09c4.71,0,9.22-1.09,12.22-5.35,4.39-6.22,3.49-13,2.16-19.57a66.69,66.69,0,0,0-4.33-12.27,174.47,174.47,0,0,0-10-20.26,110.24,110.24,0,0,1-9.33-19.6c-1.07-3.14,0-4,3.46-3.23a5.2,5.2,0,0,1,1.34.53A39.56,39.56,0,0,1,342.92,417a136.3,136.3,0,0,1,10.18,15.22c.4.69.78,2.22,1.89.83,1.57-2,3.73-4.1,3.75-6.46,0-4.3,3.44-6.8,5-10.22,1.83-3.95,5.36-6.85,8.27-10.14,2.71-3.07,6.14-5.28,8.88-8.27,2.4-2.62,6.15-4.37,9.64-5.78,4.9-2,9.38-5.26,15.12-5.07a5.29,5.29,0,0,0,1.69-.44,63.12,63.12,0,0,1,13.7-2.64c8.43-.76,15.94,3.21,24.1,3.58.34,0,.67.36,1,.56,3.7,2.28,8,3.36,11.88,5.42a97.69,97.69,0,0,1,11.74,7.75c1.25.93,3.16,2,4.1,3.67,1.21,2.09,3.27,3.54,4.85,5.35,2.12,2.43,4.31,5,5.41,7.74,1.92,4.86,5.39,9.15,6,14.49.06.52.53,1,.78,1.49.81,1.68,1.5,2.12,3,.37,5.26-5.94,10.34-12.12,17.12-16.64,5.46-3.63,10.75-7.72,18.1-7.48,2.93.09,5.27.67,6.14,3.59s-.38,4.77-3,6.24a84,84,0,0,0-22.94,19.6C507.92,441.48,505.91,443,505.62,445.5Zm-82.06-52.12c-7.55-1.45-14.6,2.48-22.15,3.66-2.83.44-5,3.21-8.19,3.37-.46,0-1,.63-1.29,1.08a6.39,6.39,0,0,1-2.5,1.76c-2.9,1.49-5.93,3-7.93,5.56a72.59,72.59,0,0,1-6.66,7.39c-2.51,2.47-4,5.41-5.75,8.09a65.18,65.18,0,0,0-5.26,10.54c-2.4,5.95-3.07,12-1.34,18,1.63,5.55,3.34,11,3.1,16.8a8,8,0,0,0,1.61,5.52c1.89,2.39,1.93,5.56,4.67,7.77,2.58,2.09,3.28,6,6.91,7.48.21.08.31.44.42.69,2,4.48,6.6,6.32,10.39,8.85a40.65,40.65,0,0,0,8.79,4.34c2.69,1,5,2.78,8.14,2.51a4.82,4.82,0,0,1,2,.36c7.28,2.64,14.65,3.71,22.31,1.46a36.4,36.4,0,0,1,7.9-1.74,14,14,0,0,0,6.88-2.07c2.76-1.77,6-2.46,8.84-4.4s5.93-3.45,8.44-5.59a65.56,65.56,0,0,0,16.92-21.68,14.83,14.83,0,0,0,1.64-7.09,23.68,23.68,0,0,1,.92-6.86c.87-3.21,1.18-6.56,2.28-9.74a6.51,6.51,0,0,0,0-3.86c-1.19-4.23-3.29-8.25-3.23-12.77a2.14,2.14,0,0,0-.69-1.47c-3.08-2.69-2.92-7-5.83-10-2.42-2.52-3.93-5.86-6.61-8.47-1.38-1.36-3.16-2.5-4.19-4-1.75-2.52-4.45-3.77-6.79-5.35A76.93,76.93,0,0,0,447,398.23c-2-.94-3.76-1.79-6-1.71a3.83,3.83,0,0,1-1.71-.31A30.12,30.12,0,0,0,423.56,393.38Z" transform="translate(-140.07 -22.13)"/><path class="cls-1" d="M280,483.78c0,1-.82,1.13-1.2,1.63-.83,1.08-2.41,1.67-2.36,3.34a.77.77,0,0,1-.93.83,1.4,1.4,0,0,1-.76-.72c-.5-1,1.71-5.73,2.81-6S279.73,482.51,280,483.78Z" transform="translate(-140.07 -22.13)"/><path class="cls-2" d="M505.62,445.5c.29-2.48,2.3-4,3.76-5.77a84,84,0,0,1,22.94-19.6c2.6-1.47,3.82-3.43,3-6.24s-3.21-3.5-6.14-3.59c-7.35-.24-12.64,3.85-18.1,7.48-6.78,4.52-11.86,10.7-17.12,16.64-1.54,1.75-2.23,1.31-3-.37-.25-.5-.72-1-.78-1.49-.6-5.34-4.07-9.63-6-14.49-1.1-2.78-3.29-5.31-5.41-7.74-1.58-1.81-3.64-3.26-4.85-5.35-.94-1.64-2.85-2.74-4.1-3.67A97.69,97.69,0,0,0,458,393.56c-3.88-2.06-8.18-3.14-11.88-5.42-.32-.2-.65-.55-1-.56-8.16-.37-15.67-4.34-24.1-3.58a63.12,63.12,0,0,0-13.7,2.64,5.29,5.29,0,0,1-1.69.44c-5.74-.19-10.22,3.1-15.12,5.07-3.49,1.41-7.24,3.16-9.64,5.78-2.74,3-6.17,5.2-8.88,8.27-2.91,3.29-6.44,6.19-8.27,10.14-1.58,3.42-5,5.92-5,10.22,0,2.36-2.18,4.48-3.75,6.46-1.11,1.39-1.49-.14-1.89-.83A136.3,136.3,0,0,0,342.92,417a39.56,39.56,0,0,0-12.31-10.89,5.2,5.2,0,0,0-1.34-.53c-3.46-.82-4.53.09-3.46,3.23a110.24,110.24,0,0,0,9.33,19.6,174.47,174.47,0,0,1,10,20.26,66.69,66.69,0,0,1,4.33,12.27c1.33,6.58,2.23,13.35-2.16,19.57-3,4.26-7.51,5.31-12.22,5.35a21.61,21.61,0,0,1-10.79-3.09c-.27-.16-.35-.61-.52-.93,2-.22,3.5,1,5.16,1.61a18.05,18.05,0,0,0,6.54,1.13c7.44-.08,13.19-5.44,13.57-12.55a38.64,38.64,0,0,0-2.55-14.9c-4-11.56-9.63-22.37-15.72-33a53.45,53.45,0,0,1-5.93-14.29c-.18-.78-.9-1.43-1.23-2.19-.42-1-.7-2,.47-2.73s1.72-1.77,3.55-1.24c7.94,2.28,13,7.7,17.69,13.71a73,73,0,0,1,7.33,11c.38.74.88,1.57,1.9,1.51s1.47-.95,1.94-1.82c.89-1.67,1.81-3.26,1.61-5.23a2,2,0,0,1,.48-1.55c2.9-2.23,3.6-5.76,5.6-8.54,3-4.22,6.91-7.58,10.52-11.2a53.13,53.13,0,0,1,9.75-7.76c4.25-2.61,8.93-4.59,13.45-6.78a5,5,0,0,1,2.27-.43c3.72.16,6.89-1.36,10.06-2.85a6.61,6.61,0,0,1,2.86-.45c5.78,0,11.57.15,17.35-.12,3.67-.17,6.61,1.56,9.86,2.53.18.05.33.27.5.28,4.79.07,8.88,2.19,13.16,3.84,1.21.46,2.54.28,3.29,1.72A4.39,4.39,0,0,0,459.6,393c3.46,1.19,5.95,3.62,8.81,5.64,4.22,3,7.54,6.63,11,10.22a36.27,36.27,0,0,1,7.42,11.53c1.77,4.2,4.22,8.13,5.36,12.68,2.14-.85,2.85-2.62,3.95-3.88a93.07,93.07,0,0,1,13.33-12.61,47.1,47.1,0,0,1,17.36-8.16c3.42-.88,9.35,2.18,10.32,5.17,1.09,3.36-1.18,6.45-5.14,8.59a56.33,56.33,0,0,0-11.59,8.74c-4.64,4.35-10,8.12-13.14,13.75A1.5,1.5,0,0,1,505.62,445.5Z" transform="translate(-140.07 -22.13)"/><path class="cls-2" d="M417.07,292.84a85.63,85.63,0,0,1,28.42,5.33,73.07,73.07,0,0,1,19.65,11.56c4.48,3.54,4.59,10.33.13,14.63-6.28,6-12.88,11.8-18.84,18.11-4.11,4.34-8.61,8.24-13.1,12.17-4.69,4.1-10.5,4.82-16.67,4.28-7-.62-12.5-3.93-17.75-8-5.62-4.38-11.6-8.36-17.19-12.78-3.58-2.83-7.16-5.94-8.94-10.12-1.92-4.52-2.48-9,.57-13.79,5.28-8.3,13.51-12.73,22-17C402.41,293.61,410.07,293.33,417.07,292.84Zm.63,2.26a53.68,53.68,0,0,0-26.42,6.53c-6.82,3.68-13.44,7.7-16.87,14.91-1.8,3.78-1.7,5.1,1.47,7.83,11.7,10.12,23.62,20,35.95,29.41,6.75,5.15,14.41,4.5,20.86-1.16q15.42-13.53,29.59-28.23c6.81-7.06,5-10.22-1.07-15.07C448.63,299.24,433.66,295.81,417.7,295.1Z" transform="translate(-140.07 -22.13)"/><path class="cls-1" d="M471.53,276.22a29.59,29.59,0,0,1,3.21-12.55c2.25-4.13,6-6.33,10.69-5.89s6.5,4.27,7.68,7.89A26.15,26.15,0,0,1,492,285.18c-2.38,5.19-5.49,7.52-10.12,7.28-3.94-.2-7.84-3.54-9.12-8.29A25.47,25.47,0,0,1,471.53,276.22Z" transform="translate(-140.07 -22.13)"/><path class="cls-1" d="M363.7,268.87c.05.55.11,1.1.16,1.65-.62,4.54.09,9.14-1.35,13.71-1.13,3.55-3.82,6.67-7.73,7.19-6,.78-10.07-4.68-11.88-9.34-2.08-5.32-1.85-10.61-.12-16,1.29-4.05,4.75-8.09,8.68-8.42,4.28-.37,7,2,9.19,5.34C361.9,264.86,362,267.23,363.7,268.87Z" transform="translate(-140.07 -22.13)"/><path class="cls-2" d="M363.7,268.87c-1.71-1.64-1.8-4-3.05-5.91-2.19-3.31-4.91-5.71-9.19-5.34-3.93.33-7.39,4.37-8.68,8.42-1.73,5.43-2,10.72.12,16,1.81,4.66,5.92,10.12,11.88,9.34,3.91-.52,6.6-3.64,7.73-7.19,1.44-4.57.73-9.17,1.35-13.71,2.28,2,1.94,4.74,1.47,7.14a47.48,47.48,0,0,0-1,9.64c0,3.28-3.15,6.33-6.57,6.62-7.64.66-13.13-2.14-16.65-8.7-2.68-5-4.64-10.09-4.26-15.81.42-6.3,2.67-10.8,9.82-11.7,1.77-.22,3.06-1.59,4.92-1.66a11.55,11.55,0,0,1,10.94,7.3C363.2,265,365,266.72,363.7,268.87Z" transform="translate(-140.07 -22.13)"/><path class="cls-2" d="M498.53,462.26c-.95-3.08.62-5.76,1.86-8.32,1.36-2.82,2.06-6.1,5-8a1.34,1.34,0,0,1-.17,1.57c-3,3.7-3.72,8.19-5,12.5C500,460.94,499.89,462,498.53,462.26Z" transform="translate(-140.07 -22.13)"/><path class="cls-2" d="M423.56,393.38a30.12,30.12,0,0,1,15.78,2.83,3.83,3.83,0,0,0,1.71.31c2.23-.08,4,.77,6,1.71a76.93,76.93,0,0,1,10.26,5.29c2.34,1.58,5,2.83,6.79,5.35,1,1.49,2.81,2.63,4.19,4,2.68,2.61,4.19,5.95,6.61,8.47,2.91,3,2.75,7.28,5.83,10a2.14,2.14,0,0,1,.69,1.47c-.06,4.52,2,8.54,3.23,12.77a6.51,6.51,0,0,1,0,3.86c-1.1,3.18-1.41,6.53-2.28,9.74a23.68,23.68,0,0,0-.92,6.86,14.83,14.83,0,0,1-1.64,7.09,65.56,65.56,0,0,1-16.92,21.68c-2.51,2.14-5.71,3.71-8.44,5.59s-6.08,2.63-8.84,4.4a14,14,0,0,1-6.88,2.07,36.4,36.4,0,0,0-7.9,1.74c-7.66,2.25-15,1.18-22.31-1.46a4.82,4.82,0,0,0-2-.36c-3.13.27-5.45-1.55-8.14-2.51a40.65,40.65,0,0,1-8.79-4.34c-3.79-2.53-8.39-4.37-10.39-8.85-.11-.25-.21-.61-.42-.69-3.63-1.46-4.33-5.39-6.91-7.48-2.74-2.21-2.78-5.38-4.67-7.77a8,8,0,0,1-1.61-5.52c.24-5.81-1.47-11.25-3.1-16.8-1.73-5.94-1.06-12,1.34-18a65.18,65.18,0,0,1,5.26-10.54c1.71-2.68,3.24-5.62,5.75-8.09a72.59,72.59,0,0,0,6.66-7.39c2-2.58,5-4.07,7.93-5.56a6.39,6.39,0,0,0,2.5-1.76c.32-.45.83-1.06,1.29-1.08,3.23-.16,5.36-2.93,8.19-3.37C409,395.86,416,391.93,423.56,393.38Zm.14.7a17.9,17.9,0,0,0-3.76.41,40.85,40.85,0,0,1-11.49,2.61c-5.12.24-9.12,2.63-13.21,4.36a42.15,42.15,0,0,0-12.77,8.29,76.65,76.65,0,0,0-8.52,9.78c-1.24,1.72-1.94,3.76-3.87,5a1.64,1.64,0,0,0-.35,1.29c.17,1.9-1.11,3.11-2.25,4.35-.5.56-1.26.91-1.26,1.77,0,3-1.68,5.62-2.53,8.41-1.13,3.74-1.48,7.1.21,10.73A33.57,33.57,0,0,1,366,458c1.09,4.77,2.24,9.54,1.85,14.49a2.07,2.07,0,0,0,.32,1.33c1.9,2.68,2.69,5.87,5,8.45,3.59,4.07,6.75,8.46,11,12a55.87,55.87,0,0,0,10.44,6.9,9.67,9.67,0,0,0,2.21,1.27c4.75,1.22,8.95,4.28,14.23,3.77.08,0,.17.07.27.1,4.36,1.62,8.85,1.64,13.49,1.48,3.75-.12,7.19-2.06,10.7-1.81,5.47.38,9.49-2.5,13.88-4.42a36,36,0,0,0,9.06-5.49c3.07-2.65,6.51-4.91,9-8.11,2.33-2.95,4.78-5.8,7-8.84a23.28,23.28,0,0,0,4.9-13.1,49,49,0,0,1,1.91-11.13c.95-3.25,1.76-6.37,1.11-9.75-.71-3.69-2.52-7.2-2.05-11.09a1.52,1.52,0,0,0-.49-1.24c-3.66-2.42-3.46-6.86-5.95-10.1a117.74,117.74,0,0,0-9.5-11.53c-3-3.05-7-5.09-10.61-7.51s-7.8-3.28-11.31-5.55c-1.83-1.2-4.26.1-6-.93C432.39,394.68,427.45,395.79,423.7,394.08Z" transform="translate(-140.07 -22.13)"/><path class="cls-1" d="M417.7,295.1c16,.71,30.93,4.14,43.51,14.22,6,4.85,7.88,8,1.07,15.07q-14.14,14.69-29.59,28.23c-6.45,5.66-14.11,6.31-20.86,1.16-12.33-9.42-24.25-19.29-35.95-29.41-3.17-2.73-3.27-4.05-1.47-7.83,3.43-7.21,10-11.23,16.87-14.91A53.68,53.68,0,0,1,417.7,295.1Z" transform="translate(-140.07 -22.13)"/><path class="cls-3" d="M447.5,441.08v0c-3.33,0-6.68-.13-10,.05-2.46.13-3.23-.7-3.17-3,.13-5.19.09-10.39,0-15.59-.08-4.64-2.07-6.44-6.85-6.44-3.72,0-7.45,0-11.18,0-5.67,0-7.61,1.81-7.63,7.13,0,5-.1,10,0,15,.06,2.14-.58,2.94-3,2.88-5.68-.15-11.37,0-17.06,0-3.93,0-5.91,1.87-6,5.72-.07,1.86,0,3.72-.18,5.57-.38,3.68-.7,7.33,1.52,10.68a1.44,1.44,0,0,1,0,1.56c-1.93,4-1.29,5.75,2.86,7.63,3.62,1.64,7.87,1,11.49,2.77a7.7,7.7,0,0,0,2.86.53c4,.26,4.45.57,5,4.3a9.73,9.73,0,0,1-.25,3.86c-1.13,4.25,1.63,9.83,6.53,11.63,5.06,1.86,10.21,1.4,15.36,1.39,4.11,0,6.6-2.57,6.59-6.45,0-7.4.06-14.81,0-22.22,0-1.86.53-2.47,2.62-2.67,5.77-.53,11.55-.33,17.32-.3,5.43,0,7.24-1.36,8.11-7a44.26,44.26,0,0,0-.39-13c-.45-3.1-1.7-3.95-5.13-4C453.77,441.07,450.64,441.08,447.5,441.08Z" transform="translate(-140.07 -22.13)"/><path class="cls-2" d="M447.5,441.08c3.14,0,6.27,0,9.41,0,3.43,0,4.68.86,5.13,4a44.26,44.26,0,0,1,.39,13c-.87,5.65-2.68,7-8.11,7-5.77,0-11.55-.23-17.32.3-2.09.2-2.64.81-2.62,2.67.07,7.41,0,14.82,0,22.22,0,3.88-2.48,6.44-6.59,6.45-5.15,0-10.3.47-15.36-1.39-4.9-1.8-7.66-7.38-6.53-11.63a9.73,9.73,0,0,0,.25-3.86c-.51-3.73-.94-4-5-4.3a7.7,7.7,0,0,1-2.86-.53c-3.62-1.78-7.87-1.13-11.49-2.77-4.15-1.88-4.79-3.65-2.86-7.63a1.44,1.44,0,0,0,0-1.56c-2.22-3.35-1.9-7-1.52-10.68.19-1.85.11-3.71.18-5.57.13-3.85,2.11-5.72,6-5.72,5.69,0,11.38-.1,17.06,0,2.39.06,3-.74,3-2.88-.13-5-.06-10,0-15,0-5.32,2-7.11,7.63-7.13,3.73,0,7.46,0,11.18,0,4.78,0,6.77,1.8,6.85,6.44.09,5.2.13,10.4,0,15.59-.06,2.3.71,3.13,3.17,3,3.32-.18,6.67-.05,10-.05Zm-.81,1v0c-3.53,0-7.06,0-10.58,0-2.61.06-3.78-1.06-3.77-3.5q0-6.54,0-13.08a49.83,49.83,0,0,0-.38-6.1c-.24-1.84-1.1-2.28-2.86-2.25-4.31.08-8.63,0-12.94,0-3.81,0-6.32,2.42-6.34,6.09,0,5.29-.1,10.59,0,15.87.06,2.36-.89,3.06-3.28,3-5.58-.12-11.17,0-16.76,0-4,0-6,1.83-6.13,5.61-.07,3.62,0,7.24-.07,10.86A4.31,4.31,0,0,0,385,462a8.85,8.85,0,0,0,6.26,2.54c5.58,0,11.17.14,16.75,0,2.6-.06,3.41.78,3.34,3.21-.15,5.93,0,11.87,0,17.81,0,2.24.88,4,3.41,4.05,5.09.16,10.19.09,15.29.1,1.05,0,1.93-.27,2.09-1.48.44-3.11,1.38-6.13,1.22-9.33-.17-3.62-.06-7.24-.05-10.86,0-4.21.3-4.4,4.61-4.54,6.36-.2,12.73.36,19.08-.37,1.79-.21,2.68-.8,3.17-2.58,1.57-5.73.9-11.37-.21-17.06-.28-1.43-1.21-1.46-2.33-1.46Z" transform="translate(-140.07 -22.13)"/><path class="cls-1" d="M446.69,442h10.88c1.12,0,2.05,0,2.33,1.46,1.11,5.69,1.78,11.33.21,17.06-.49,1.78-1.38,2.37-3.17,2.58-6.35.73-12.72.17-19.08.37-4.31.14-4.59.33-4.61,4.54,0,3.62-.12,7.24.05,10.86.16,3.2-.78,6.22-1.22,9.33-.16,1.21-1,1.48-2.09,1.48-5.1,0-10.2.06-15.29-.1-2.53-.08-3.41-1.81-3.41-4.05,0-5.94-.1-11.88,0-17.81.07-2.43-.74-3.27-3.34-3.21-5.58.14-11.17,0-16.75,0A8.85,8.85,0,0,1,385,462a4.31,4.31,0,0,1-1.42-3.47c.09-3.62,0-7.24.07-10.86.08-3.78,2.13-5.61,6.13-5.61,5.59,0,11.18-.09,16.76,0,2.39,0,3.34-.65,3.28-3-.13-5.28-.06-10.58,0-15.87,0-3.67,2.53-6.07,6.34-6.09,4.31,0,8.63.06,12.94,0,1.76,0,2.62.41,2.86,2.25a49.83,49.83,0,0,1,.38,6.1q.06,6.54,0,13.08c0,2.44,1.16,3.56,3.77,3.5,3.52-.07,7.05,0,10.58,0Z" transform="translate(-140.07 -22.13)"/><path class="cls-2" d="M493.55,268.94c-1.71-1.63-1.79-4-3.05-5.91-2.18-3.3-4.9-5.71-9.19-5.34-3.92.34-7.39,4.37-8.68,8.42-1.72,5.43-1.95,10.72.12,16,1.82,4.66,5.92,10.12,11.88,9.34,3.92-.52,6.61-3.64,7.73-7.19,1.45-4.57.73-9.17,1.36-13.71,2.28,2,1.94,4.74,1.47,7.14a47.48,47.48,0,0,0-1,9.64c0,3.28-3.16,6.33-6.58,6.62-7.64.66-13.13-2.14-16.64-8.7-2.69-5-4.65-10.09-4.27-15.81.42-6.29,2.68-10.8,9.83-11.7,1.77-.22,3.05-1.59,4.92-1.66a11.56,11.56,0,0,1,10.94,7.3C493.06,265.12,494.89,266.79,493.55,268.94Z" transform="translate(-140.07 -22.13)"/></svg>