<svg id="Layer_18" data-name="Layer 18" xmlns="http://www.w3.org/2000/svg" viewBox="0 0 490.23 549.04"><defs><style>.cls-1{fill:#4e6e36;}.cls-2{fill:#9caf60;}</style></defs><title>H_Eventos</title><path class="cls-1" d="M466.53,59.69l1.35,1a1.9,1.9,0,0,0,2.5,1.88l4.31,3.26c.08,1.64,1,2.26,2.55,2L480,69.91c.08,1.59,1,2.21,2.48,2l4.21,3.44a3.51,3.51,0,0,0,3.9,3.26l5.56,4.71c.28,2.22,1.5,3.39,3.79,3.36l9.63,8.8a99.79,99.79,0,0,0,20.95,21l10.1,11a3.45,3.45,0,0,0,3.33,3.81l4.74,5.6a3.51,3.51,0,0,0,3.23,3.84l3.5,4.24c-.18,1.49.42,2.36,2,2.45l3.37,4.31a1.9,1.9,0,0,0,1.9,2.46l2.17,2.88a1.9,1.9,0,0,0,1.9,2.49l2.12,2.9c-.22,1.45.33,2.33,1.84,2.5l1,1.39c-.3,1.52.27,2.43,1.87,2.6l4.77,6.92a1.91,1.91,0,0,0,1.74,2.57l.95,1.45a1.89,1.89,0,0,0,1.72,2.57l1,1.51c.12,2.34.82,4.31,3.29,5.16.29.47.59.94.87,1.41a1.89,1.89,0,0,0,1.68,2.67l2.42,4a1.92,1.92,0,0,0,1.63,2.76l2.39,4c-.11,2.43.6,4.41,3.06,5.39l2.25,4.08a123.29,123.29,0,0,0,13.52,26.93c1,2.15,1.93,4.3,2.89,6.44,4.09,11.68,8,23.42,12.33,35,2.14,5.76,2.44,12.15,6,17.39l.66,2.57c-.71,1.19-.66,2.19.74,2.83.21.85.42,1.71.62,2.56-.73,1.15-.72,2.14.66,2.8l.6,2.64c-.75,1.6-1,3.08.92,4.1.16.86.32,1.72.49,2.57-.79,1.59-1,3.08.79,4.16l.51,2.62c-.74,2-1.23,3.92.88,5.45.17.87.33,1.74.49,2.61-.69,2.38-1.39,4.77.85,6.79.2,1.3.41,2.59.61,3.88-.89,3.28-1.74,6.56.74,9.58.14,1.34.29,2.68.43,4a143.63,143.63,0,0,0,0,30l-.54,5.34c-2.42,2.95-1.46,6.21-.86,9.44-.15.88-.29,1.77-.44,2.65-2.15,1.61-1.6,3.57-.72,5.57-.21,1.69-.43,3.38-.65,5.07-3.84,11.34-5.67,23.26-10.33,34.41-10.91,26.16-26.25,49-49.84,65.18-23.78,16.29-49.12,28.43-79,30.06-29.28,1.59-58.07,1.58-86-8.56a17.68,17.68,0,0,0-10.44-.37c-26.39,5.93-53,10.37-80.19,8.55-28.44-1.91-55.63-8.24-80.55-22.72a129.92,129.92,0,0,1-53.91-59c-17-36.84-18.54-75.66-12.18-114.95,6.93-42.8,22.43-82.7,43.07-120.73,25.36-46.73,57.58-88.33,94.33-126.55a522.68,522.68,0,0,1,38.36-35.61C371.73,53,387.86,40.61,405.93,31c4.62-2.46,8.81-2.7,13.34-.16,1.7.95,3.3,2.44,5.54,2l4.06,2.3c.93,2.44,2.9,3.13,5.28,3.15l1.45.85c.27,1.62,1.23,2.14,2.77,1.69l3.93,2.45A1.9,1.9,0,0,0,445,44.93l1.41.88c.22,1.62,1.16,2.13,2.68,1.78l1.36.89c.22,1.58,1.13,2.14,2.66,1.81l1.38.89c.2,1.58,1.12,2.13,2.63,1.82l1.37.93a1.93,1.93,0,0,0,2.6,1.8l2.87,2C464,59.4,465,60,466.53,59.69ZM426.39,517.55c7.51,7.88,16.89,12.92,26.88,16.66,4.82,1.81,7.19-1.22,6.59-6.14-.72-5.84-3.41-11.09-5.39-16.54-5-13.64-5-13.64,5.61-23.67.17-.16.32-.32.47-.48,2.67-2.78,4.43-3.72,5.37,1.45.54,3,.42,7,4.63,8.09l7.05,6.95c.09,2.06,1.07,2.67,2.94,1.8l2.28,1.25c2.22,3.38,5.2,4.76,9.19,3.46l2.85.74c.94,2.15,2.21,2.49,3.87.72l4.19.7c3,3.46,7,1.11,10.51,1.94a5.42,5.42,0,0,1-.33,4.14c-1.88.49-2.16,1.32-.54,2.56-.21,1-.42,1.93-.62,2.9-3,4-3,5.79.26,6.75l3-.25c1.62,1.8,2.15.76,2.42-.93l7.74-3.78c1.81.84,2.82.31,3-1.72l6.62-4.76c1.92.55,2.81-.18,2.65-2.18,5.06-5.25,10-10.6,12.79-17.51,4-4.05,5.35-9,4.9-14.53.24-.95.47-1.9.71-2.85,1.84-.43,2.22-1.24.65-2.54l.79-4.16c1.81-.54,2.16-1.36.5-2.58.23-2.74.47-5.49.7-8.24,2.9-3.58,3-7.15,0-10.71-.2-3.21-.39-6.42-.59-9.63,1.93-2,1.84-3.75-.62-5.23-.23-1.84-.45-3.69-.68-5.54,1.86-2.05,1.84-3.8-.8-5.15l-.49-2.92c1.72-1.7,1.4-3-.81-3.84-.22-1-.43-1.92-.64-2.88,1-4.2-.61-7.57-3.35-10.58l-.8-2.86c1.13-4.24-.31-7.65-3.4-10.53L545,391.35c1-1.62.72-2.72-1.24-3.17l-1.47-3.54c1-1.75.59-2.82-1.5-3.06l-11.55-16c.57-1.91-.15-2.8-2.13-2.69a40,40,0,0,1-6.88-9.88c1.69-.84,1.55-2.31,1.31-3.82l6.89-7.14c2,.15,2.75-.74,2.13-2.69l3.46-5.21c2-.14,2.57-1.16,1.73-3l3.84-7.71c2-.38,2.34-1.49,1.3-3.15l1.35-3.59c1.76-.31,2.69-.91.82-2.44l.81-2.83c1.89-.37,2.26-1.18.72-2.53.22-.94.45-1.89.67-2.83,1.88-.45,2.22-1.27.61-2.56l.78-4.15c2.2-1,2.57-2.29.56-3.9.2-1.87.41-3.73.62-5.6a22.83,22.83,0,0,0,0-20.12l-.69-6.91c2-1.68,1.59-2.93-.7-3.84-.17-1-.34-1.93-.52-2.9,1.89-3.3.38-5.73-2-7.91l-.85-2.81c1.84-1.53.93-2.13-.82-2.45-.46-1.19-.93-2.38-1.39-3.58,1.06-2.8.24-4.78-2.6-5.85l-1.17-2.32c.83-1.77.35-2.81-1.68-3q-4.7-7.2-9.4-14.41c.23-4.12,3.67-7.49,2.78-11.87.52-1.62,1-3.25,1.54-4.87,2.27-.91,2.72-2.15.68-3.83,0-2.35.07-4.71.1-7.06,1.85-1.61,1.48-2.89-.59-3.9q-.82-3.09-1.66-6.18c1-1.67.7-2.77-1.35-3.12-2.17-3.51-4.6-6.77-8.49-8.58-3.88-3.84-6.79-2.59-9.11,1.73l-4.47,5.58c-2.12.26-2.47,1.35-1.46,3.08l-1.55,4.88c-2.87,2.69-3.25,5.35.09,8,.77,2.52.11,4.46-2.47,5.34-2.23.77-3.82-.54-5.25-2.07-2.3-2.43-4.61-4.84-6.92-7.26.06-2-.87-2.66-2.75-2.06l-5.28-3.42c-1.65-3.66-4.55-4.91-8.39-4.29l-3.58-1.37c-.38-2-1.49-2.31-3.14-1.29l-4.86-1.59c-2.15-2.45-4.55-4-7.86-2.12l-2.87-.62c-.45-1.87-1.27-2.19-2.54-.6l-3-.5c-1.24-2.86-3-2.71-5.1-.92l-4.27-.5c-1.84-3.12-4.1-2.53-6.49-.74h-30c-2-2-3.76-2-5.19.64l-5.58.6c-1.68-1.79-2.94-1.45-3.83.76l-4.21.65c-1.29-1.6-2.11-1.23-2.56.62l-4.16.86c-2.84-1.8-4.9-.63-6.62,1.76l-2.81.81c-2.92-1.43-5-.52-6.44,2.28L352.82,174a11.36,11.36,0,0,0-11.16,5.39l-3.78,2.31c-1.79-.82-2.73-.17-2.94,1.72-5.39,3.71-7.46,1.4-7.89-4.24-.37-4.87.18-9.86-1.68-14.56-2.14-9.1-8.81-11.94-15.33-6.49-10.67,8.92-13.89,33.6-6.4,42.32l-1.32,5.77c-5,2.26-7,7.32-9.93,11.33-16.77,22.8-23,48.07-16.8,76,4,18,11.7,34.2,24.86,47.52,2.51,2.55,5.27,5.67,1.46,9.18-3.58,3.3-5.46,7.58-7.84,11.63-21.63,36.71-26.3,75.8-17,117.06,5.48,24.27,19.39,40.82,42.86,49.16,3.07,1.09,6.74,4,9.46,1.87,3.44-2.65.34-6.81-.56-10-1.6-5.5.39-7,5.39-6.79a43.1,43.1,0,0,0,24.25-6.57c8.71-5.25,12.65-15.43,8.9-23.05-1.88-10-10.46-13.36-17.89-17.83-1.49-2.81-3.59-3.69-6.5-2.05l-4.2-.82c-1.41-2.52-3.16-2.62-5.19-.72l-7.09,0c-2-2-3.76-1.83-5.18.69l-4.24.44c-1.06-2.67-.37-6.07-3.35-7.92l-.58-2.91c1.74-1.69,1.45-3-.8-3.81l-.52-2.91c1.77-1.67,1.45-2.94-.72-3.86-.2-1.4-.39-2.8-.59-4.21,1.69-1.25,1.62-2.48-.05-3.69.17-2.7,1.63-4.11,4.3-4.29a3.07,3.07,0,0,0,2.92,1.22q26.79-.06,53.6-.15c1.51,0,3.26.27,3.79-1.84l48.66-.6c8,2.92,16.18.42,24.25,1.07,1.49.11,3.25.28,3.76-1.83l46-.57c5.51,2.73,11.37,1.21,17,1,6.64-.27,11.89.16,12.48,8.34l-.56,4.24c-3,1.84-2.39,4.11-.8,6.51l-.6,4.24c-2.86,1.87-2.08,5.28-3.33,7.83l-16.46.37c-1.66-2-2.92-1.64-3.86.65l-4.19.79c-4.26-1.11-7.71.2-10.52,3.48l-5,2.51q-2.79-1.26-2.94,1.8L474.86,472c-2.76-.13-4.11,1-3.59,3.91l-1.86,2.74c-7.6-8.7-18.18-6.29-27.49-6.23-5.83,0-7.91-1.6-9.77-6.21a167.38,167.38,0,0,0-7-15.2c-1.35-2.59-3.63-4.86-6.86-4.46-2.77.35-3.6,2.94-4.33,5.39-1.66,5.56-3.8,11-5.08,16.65-1.22,5.4-4.16,7.3-9.48,7.05-6-.28-12.08-.05-18.12,0-2.26,0-4.64,0-5.6,2.64-.78,2.16.46,3.73,1.59,5.49,4.22,6.54,10.87,10.55,16.24,15.88,2.73,2.7,3.63,5,1.92,8.79-2.74,6.09-4.7,12.53-7.07,18.8-.87,2.29-1,4.29,1,6.1s4.18,1.05,6.17-.09q8.13-4.65,16.19-9.46c4.17-2.49,7.69-6.24,13-6.51Z" transform="translate(-157.62 -24.15)"/><path class="cls-2" d="M424.81,32.78c-2.24.46-3.84-1-5.54-2-4.53-2.54-8.72-2.3-13.34.16-18.07,9.65-34.2,22-49.71,35.22a522.68,522.68,0,0,0-38.36,35.61c-36.75,38.22-69,79.82-94.33,126.55-20.64,38-36.14,77.93-43.07,120.73-6.36,39.29-4.84,78.11,12.18,115a129.92,129.92,0,0,0,53.91,59c24.92,14.48,52.11,20.81,80.55,22.72,27.22,1.82,53.8-2.62,80.19-8.55a17.68,17.68,0,0,1,10.44.37c27.95,10.14,56.74,10.15,86,8.56,29.87-1.63,55.21-13.77,79-30.06,23.59-16.16,38.93-39,49.84-65.18,4.66-11.15,6.49-23.07,10.33-34.41,1.09,11.35-2.12,22.18-5.18,32.73-18.52,63.88-60.22,104.37-125.13,119-34.28,7.7-67.29,2.16-96.68-18.82-3.61-2.58-5.87-8.41-10.23-7.91-3.94.44-7.42,4.54-11.19,6.9-21.31,13.32-44.93,20.08-69.48,23.64-41.2,6-75.74-10.05-106.41-35.18-38.26-31.37-55.23-73.94-59.77-122.15-5.57-59.21,8.4-114.83,32.32-168.3a467.3,467.3,0,0,1,96.65-140.39C318,75.66,352.28,50.59,388.55,28,401.36,20,414.77,25.94,424.81,32.78Z" transform="translate(-157.62 -24.15)"/><path class="cls-2" d="M636.08,299.16c-3.6-5.24-3.9-11.63-6-17.39-4.32-11.6-8.24-23.34-12.33-35,3.29,1.88,3.29,5.59,4.55,8.52A329.83,329.83,0,0,1,635.36,293C635.92,294.89,637.58,296.91,636.08,299.16Z" transform="translate(-157.62 -24.15)"/><path class="cls-2" d="M530.55,116.45a99.79,99.79,0,0,1-20.95-21A69.31,69.31,0,0,1,530.55,116.45Z" transform="translate(-157.62 -24.15)"/><path class="cls-2" d="M646.12,388.38a143.63,143.63,0,0,1,0-30A65,65,0,0,1,646.12,388.38Z" transform="translate(-157.62 -24.15)"/><path class="cls-2" d="M614.82,240.31a123.29,123.29,0,0,1-13.52-26.93A75.14,75.14,0,0,1,614.82,240.31Z" transform="translate(-157.62 -24.15)"/><path class="cls-2" d="M645.64,354.32c-2.48-3-1.63-6.3-.74-9.58C647,347.79,646.87,351,645.64,354.32Z" transform="translate(-157.62 -24.15)"/><path class="cls-2" d="M644.72,403.16c-.6-3.23-1.56-6.49.86-9.44C646.75,397,647.06,400.2,644.72,403.16Z" transform="translate(-157.62 -24.15)"/><path class="cls-2" d="M644.29,340.86c-2.24-2-1.54-4.41-.85-6.79C645.43,336.12,645.58,338.4,644.29,340.86Z" transform="translate(-157.62 -24.15)"/><path class="cls-2" d="M434.15,38.23c-2.38,0-4.35-.71-5.28-3.15C431.38,34.87,433.23,35.78,434.15,38.23Z" transform="translate(-157.62 -24.15)"/><path class="cls-2" d="M643,331.46c-2.11-1.53-1.62-3.47-.88-5.45C644,327.57,644.33,329.37,643,331.46Z" transform="translate(-157.62 -24.15)"/><path class="cls-2" d="M599.05,209.3c-2.46-1-3.17-3-3.06-5.39C598.4,204.92,599.3,206.78,599.05,209.3Z" transform="translate(-157.62 -24.15)"/><path class="cls-2" d="M643.56,411.38c-.88-2-1.43-4,.72-5.57C645.72,407.89,645.21,409.71,643.56,411.38Z" transform="translate(-157.62 -24.15)"/><path class="cls-2" d="M587,189.09c-2.47-.85-3.17-2.82-3.29-5.16C586.27,184.71,587.13,186.59,587,189.09Z" transform="translate(-157.62 -24.15)"/><path class="cls-2" d="M552,140.69a3.51,3.51,0,0,1-3.23-3.84C550.89,137.21,552.21,138.29,552,140.69Z" transform="translate(-157.62 -24.15)"/><path class="cls-2" d="M544,131.25a3.45,3.45,0,0,1-3.33-3.81C542.8,127.8,544.16,128.85,544,131.25Z" transform="translate(-157.62 -24.15)"/><path class="cls-2" d="M500,86.7c-2.29,0-3.51-1.14-3.79-3.36C498.53,83.23,499.68,84.48,500,86.7Z" transform="translate(-157.62 -24.15)"/><path class="cls-2" d="M490.62,78.63a3.51,3.51,0,0,1-3.9-3.26C489.06,75.22,490.27,76.41,490.62,78.63Z" transform="translate(-157.62 -24.15)"/><path class="cls-2" d="M641.56,323.39c-1.84-1.08-1.58-2.57-.79-4.16C642.34,320.37,642.9,321.7,641.56,323.39Z" transform="translate(-157.62 -24.15)"/><path class="cls-2" d="M640.28,316.66c-1.87-1-1.67-2.5-.92-4.1C641,313.63,641.55,314.94,640.28,316.66Z" transform="translate(-157.62 -24.15)"/><path class="cls-2" d="M461,55.73a1.93,1.93,0,0,1-2.6-1.8C460.06,53.45,460.9,54.09,461,55.73Z" transform="translate(-157.62 -24.15)"/><path class="cls-2" d="M466.53,59.69c-1.58.31-2.49-.29-2.62-1.94C465.52,57.41,466.37,58.08,466.53,59.69Z" transform="translate(-157.62 -24.15)"/><path class="cls-2" d="M470.38,62.53a1.9,1.9,0,0,1-2.5-1.88C469.52,60.21,470.3,60.9,470.38,62.53Z" transform="translate(-157.62 -24.15)"/><path class="cls-2" d="M457.07,53c-1.51.31-2.43-.24-2.63-1.82C456.06,50.72,456.9,51.37,457.07,53Z" transform="translate(-157.62 -24.15)"/><path class="cls-2" d="M453.06,50.29c-1.53.33-2.44-.23-2.66-1.81C452,48.05,452.86,48.68,453.06,50.29Z" transform="translate(-157.62 -24.15)"/><path class="cls-2" d="M449,47.59c-1.52.35-2.46-.16-2.68-1.78C448,45.34,448.82,46,449,47.59Z" transform="translate(-157.62 -24.15)"/><path class="cls-2" d="M445,44.93a1.9,1.9,0,0,1-2.65-1.71C443.9,42.68,444.74,43.31,445,44.93Z" transform="translate(-157.62 -24.15)"/><path class="cls-2" d="M438.37,40.77c-1.54.45-2.5-.07-2.77-1.69C437.18,38.58,438.07,39.18,438.37,40.77Z" transform="translate(-157.62 -24.15)"/><path class="cls-2" d="M573.57,168.91c-1.6-.17-2.17-1.08-1.87-2.6C573.33,166.46,574,167.31,573.57,168.91Z" transform="translate(-157.62 -24.15)"/><path class="cls-2" d="M580.08,178.4a1.91,1.91,0,0,1-1.74-2.57C580,176,580.65,176.76,580.08,178.4Z" transform="translate(-157.62 -24.15)"/><path class="cls-2" d="M582.75,182.42a1.89,1.89,0,0,1-1.72-2.57C582.67,180,583.34,180.79,582.75,182.42Z" transform="translate(-157.62 -24.15)"/><path class="cls-2" d="M570.73,164.92c-1.51-.17-2.06-1-1.84-2.5C570.54,162.5,571.22,163.28,570.73,164.92Z" transform="translate(-157.62 -24.15)"/><path class="cls-2" d="M566.77,159.52a1.9,1.9,0,0,1-1.9-2.49C566.5,157.1,567.19,157.88,566.77,159.52Z" transform="translate(-157.62 -24.15)"/><path class="cls-2" d="M562.7,154.15a1.9,1.9,0,0,1-1.9-2.46C562.47,151.72,563.12,152.52,562.7,154.15Z" transform="translate(-157.62 -24.15)"/><path class="cls-2" d="M557.43,147.38c-1.56-.09-2.16-1-2-2.45C557.07,145,557.8,145.74,557.43,147.38Z" transform="translate(-157.62 -24.15)"/><path class="cls-2" d="M589.55,193.17a1.89,1.89,0,0,1-1.68-2.67C589.49,190.72,590.09,191.59,589.55,193.17Z" transform="translate(-157.62 -24.15)"/><path class="cls-2" d="M593.6,199.9a1.92,1.92,0,0,1-1.63-2.76C593.57,197.43,594.19,198.31,593.6,199.9Z" transform="translate(-157.62 -24.15)"/><path class="cls-2" d="M482.51,71.93c-1.53.19-2.4-.43-2.48-2C481.66,69.6,482.47,70.29,482.51,71.93Z" transform="translate(-157.62 -24.15)"/><path class="cls-2" d="M477.24,67.79c-1.59.26-2.47-.36-2.55-2C476.31,65.48,477.13,66.18,477.24,67.79Z" transform="translate(-157.62 -24.15)"/><path class="cls-2" d="M638.76,309.92c-1.38-.66-1.39-1.65-.66-2.8C639.37,307.81,640.17,308.61,638.76,309.92Z" transform="translate(-157.62 -24.15)"/><path class="cls-2" d="M637.48,304.56c-1.4-.64-1.45-1.64-.74-2.83C638,302.41,638.85,303.2,637.48,304.56Z" transform="translate(-157.62 -24.15)"/><path class="cls-2" d="M302.32,206.26c.76,4.8-1.57,8.89-4,12.43-7.28,10.74-10.29,22.59-11.45,35.3-2.07,22.84-.31,44.7,13.37,64.26,3.58,5.12,6.48,10.73,9.53,16.2,4.89,8.78,4.11,9.34-2,17.62a80,80,0,0,0-11.73,21.79c-8.72,26.2-12.1,53.2-8.21,80.71,2.29,16.17,11.24,29.63,20.07,42.82,3.54,5.29,10.37,6,16.47,6,14.39,0,27.41-3.86,37.46-15a55,55,0,0,1,5.53-4.77c3.75,7.62-.19,17.8-8.9,23.05a43.1,43.1,0,0,1-24.25,6.57c-5-.19-7,1.29-5.39,6.79.9,3.14,4,7.3.56,10-2.72,2.09-6.39-.78-9.46-1.87-23.47-8.34-37.38-24.89-42.86-49.16-9.32-41.26-4.65-80.35,17-117.06,2.38-4.05,4.26-8.33,7.84-11.63,3.81-3.51,1-6.63-1.46-9.18-13.16-13.32-20.84-29.49-24.86-47.52-6.21-27.9,0-53.17,16.8-76C295.34,213.58,297.3,208.52,302.32,206.26Z" transform="translate(-157.62 -24.15)"/><path class="cls-2" d="M480.11,419.26c-3.64,4.9-8.5,3.15-12.76,1.76-9.54-3.12-18.91-6.76-28.31-10.31-2.88-1.09-4.68-1-6.63,2-7.8,12-27,15.12-38.24,5.91-3.7-3.05-6.69-3.51-10.84-1.83-8.89,3.61-17.89,6.94-26.85,10.41a19.32,19.32,0,0,0-2.37,1.79h21c-.53,2.11-2.28,1.83-3.79,1.84q-26.81.1-53.6.15a3.07,3.07,0,0,1-2.92-1.22c6.3-2.2,12.8-.4,19.18-1,2.56-.25,5.27.65,8.26-1.09-12.45-12.37-17.6-27.33-17-44.45a46.13,46.13,0,0,1,5.23-19.3c1.09-2.15,2.26-4.49,5.24-4.6a29.21,29.21,0,0,1-.65,3.87c-5,16.28-3.38,32.17,3,47.68,3.07,7.47,6.68,8.93,14.06,6.46,12.07-4,24.2-7.94,36.2-12.19,4.12-1.45,6.93-1.6,10.63,1.81,9.28,8.54,23.52,7.84,32.9-.73,1.6-1.46,2.83-3.41,5.68-2.31C451.6,409.31,466.26,413.17,480.11,419.26Z" transform="translate(-157.62 -24.15)"/><path class="cls-2" d="M426.39,517.55c6.95,2.08,12,7.43,18.38,10.53,3.72,1.81,8,6.13,11.55,3.46,4-3,.14-7.83-1.1-11.66-1.85-5.74-4.13-11.35-6.39-17-1.44-3.57-.79-6.37,2-9.06A124.64,124.64,0,0,0,462,482.22c3.56-4.44,2.35-6.84-3.4-7.08-6.7-.27-13.41-1.44-20.11-.42-3.91.6-5.66-1.15-6.93-4.59-1.71-4.61-3.85-9.06-5.88-13.55-1.53-3.38-3.3-3.39-4.95-.11-1.11,2.2-2.44,4.4-2.92,6.75-2.63,13.13-11.63,18-23.86,19.06-2.19.19-5.09,0-6.09,2.05-1.2,2.47,1.62,3.87,3.12,5.33,9,8.67,13.42,18.6,7.83,32.39,5.85-2.7,10.08-5,14.58-6.61,3.86-1.36,8.18-2.73,11.3,1.81-5.29.27-8.81,4-13,6.51q-8.06,4.82-16.19,9.46c-2,1.14-4,2-6.17.09s-1.87-3.81-1-6.1c2.37-6.27,4.33-12.71,7.07-18.8,1.71-3.81.81-6.09-1.92-8.79-5.37-5.33-12-9.34-16.24-15.88-1.13-1.76-2.37-3.33-1.59-5.49,1-2.67,3.34-2.62,5.6-2.64,6,0,12.09-.26,18.12,0,5.32.25,8.26-1.65,9.48-7.05,1.28-5.64,3.42-11.09,5.08-16.65.73-2.45,1.56-5,4.33-5.39,3.23-.4,5.51,1.87,6.86,4.46a167.38,167.38,0,0,1,7,15.2c1.86,4.61,3.94,6.24,9.77,6.21,9.31-.06,19.89-2.47,27.49,6.23a25.12,25.12,0,0,0,1.14,18.28c-4.21-1.13-4.09-5.13-4.63-8.09-.94-5.17-2.7-4.23-5.37-1.45-.15.16-.3.32-.47.48-10.58,10-10.58,10-5.61,23.67,2,5.45,4.67,10.7,5.39,16.54.6,4.92-1.77,7.95-6.59,6.14C443.28,530.47,433.9,525.43,426.39,517.55Z" transform="translate(-157.62 -24.15)"/><path class="cls-2" d="M325.37,164.66c-11.68,2.3-14.6,11.86-17.68,21.3-1.57,4.79-.24,10.38-4.05,14.53-7.49-8.72-4.27-33.4,6.4-42.32C316.56,152.72,323.23,155.56,325.37,164.66Z" transform="translate(-157.62 -24.15)"/><path class="cls-2" d="M497.74,427.06c8.46-2.23,17.15-1.76,25.58-.88,5.41.57,6.19,5.39,3.87,10.2-.58-8.18-5.83-8.61-12.47-8.34C509.11,428.27,503.25,429.79,497.74,427.06Z" transform="translate(-157.62 -24.15)"/><path class="cls-2" d="M423.76,428.39c9.29-1.78,18.64-1.68,28-.76-.51,2.11-2.27,1.94-3.76,1.83C439.94,428.81,431.73,431.31,423.76,428.39Z" transform="translate(-157.62 -24.15)"/><path class="cls-2" d="M547.82,289.89a81.11,81.11,0,0,1,0-20.12A22.79,22.79,0,0,1,547.82,289.89Z" transform="translate(-157.62 -24.15)"/><path class="cls-2" d="M550.37,499.7a39.27,39.27,0,0,1,4.9-14.54C555.72,490.71,554.36,495.65,550.37,499.7Z" transform="translate(-157.62 -24.15)"/><path class="cls-2" d="M558.62,464.8a17.9,17.9,0,0,1,0-10.72C561.57,457.65,561.52,461.22,558.62,464.8Z" transform="translate(-157.62 -24.15)"/><path class="cls-2" d="M526,213.81c-3.41-5,.22-8.3,2.78-11.87C529.67,206.32,526.23,209.69,526,213.81Z" transform="translate(-157.62 -24.15)"/><path class="cls-2" d="M352.82,174a26.27,26.27,0,0,1-11.16,5.39A11.36,11.36,0,0,1,352.82,174Z" transform="translate(-157.62 -24.15)"/><path class="cls-2" d="M502.92,512.54c3.66-.21,7.73-2.62,10.51,1.94C510,513.65,505.91,516,502.92,512.54Z" transform="translate(-157.62 -24.15)"/><path class="cls-2" d="M497.4,461a22,22,0,0,1-10.52,3.48C489.69,461.21,493.14,459.9,497.4,461Z" transform="translate(-157.62 -24.15)"/><path class="cls-2" d="M549.81,405.46a19.47,19.47,0,0,1-3.4-10.54C549.5,397.81,550.94,401.22,549.81,405.46Z" transform="translate(-157.62 -24.15)"/><path class="cls-2" d="M554,418.9a16.59,16.59,0,0,1-3.35-10.59C553.35,411.33,555,414.7,554,418.9Z" transform="translate(-157.62 -24.15)"/><path class="cls-2" d="M519,164.4l-9.11,1.73C512.22,161.81,515.13,160.56,519,164.4Z" transform="translate(-157.62 -24.15)"/><path class="cls-2" d="M482.82,506.92a17.18,17.18,0,0,1,9.19,3.46C488,511.68,485,510.3,482.82,506.92Z" transform="translate(-157.62 -24.15)"/><path class="cls-2" d="M511.94,524.08q.13,3.38.26,6.75C509,529.87,508.91,528.09,511.94,524.08Z" transform="translate(-157.62 -24.15)"/><path class="cls-2" d="M479.84,178.18a14.33,14.33,0,0,1-8.39-4.29C475.29,173.27,478.19,174.52,479.84,178.18Z" transform="translate(-157.62 -24.15)"/><path class="cls-2" d="M502.42,179.67a19.68,19.68,0,0,1,.09,8C499.17,185,499.55,182.36,502.42,179.67Z" transform="translate(-157.62 -24.15)"/><path class="cls-2" d="M546,256.12c-2-2.31-2.34-5-2.05-7.91C546.33,250.39,547.84,252.82,546,256.12Z" transform="translate(-157.62 -24.15)"/><path class="cls-2" d="M317.1,463.36c-4.48-1.22-3.32-4.82-3.36-7.92C316.73,457.29,316,460.69,317.1,463.36Z" transform="translate(-157.62 -24.15)"/><path class="cls-2" d="M525.24,451.37c.3,3.21,1.38,6.76-3.33,7.83C523.16,456.65,522.38,453.24,525.24,451.37Z" transform="translate(-157.62 -24.15)"/><path class="cls-2" d="M459.87,169.64a9.86,9.86,0,0,1-7.87-2.12C455.32,165.66,457.72,167.19,459.87,169.64Z" transform="translate(-157.62 -24.15)"/><path class="cls-2" d="M434.28,164.38c-2.27.69-4.49.92-6.5-.74C430.18,161.85,432.44,161.26,434.28,164.38Z" transform="translate(-157.62 -24.15)"/><path class="cls-2" d="M526.64,440.62c.76,2.3,1.12,4.55-.8,6.51C524.25,444.73,523.67,442.46,526.64,440.62Z" transform="translate(-157.62 -24.15)"/><path class="cls-2" d="M372.3,167.77a7.13,7.13,0,0,1-6.62,1.76C367.4,167.14,369.46,166,372.3,167.77Z" transform="translate(-157.62 -24.15)"/><path class="cls-2" d="M362.87,170.34a7.64,7.64,0,0,1-6.44,2.28C357.85,169.82,360,168.91,362.87,170.34Z" transform="translate(-157.62 -24.15)"/><path class="cls-2" d="M349.5,465.79a7.85,7.85,0,0,1-6.5-2.05C345.91,462.1,348,463,349.5,465.79Z" transform="translate(-157.62 -24.15)"/><path class="cls-2" d="M397.83,163.64c-1.56,1.58-3.34,1.41-5.2.64C394.07,161.66,395.82,161.64,397.83,163.64Z" transform="translate(-157.62 -24.15)"/><path class="cls-2" d="M338.8,462.92c-1.87.8-3.67,1-5.19-.72C335.64,460.3,337.39,460.4,338.8,462.92Z" transform="translate(-157.62 -24.15)"/><path class="cls-2" d="M326.52,462.23c-1.53,1.7-3.32,1.5-5.19.69C322.76,460.4,324.5,460.28,326.52,462.23Z" transform="translate(-157.62 -24.15)"/><path class="cls-2" d="M558,444.46c-1.7-1.57-1.48-3.36-.62-5.23C559.84,440.71,559.93,442.46,558,444.46Z" transform="translate(-157.62 -24.15)"/><path class="cls-2" d="M540.85,239.37a6.47,6.47,0,0,1-2.6-5.85C541.09,234.59,541.91,236.57,540.85,239.37Z" transform="translate(-157.62 -24.15)"/><path class="cls-2" d="M556.7,433.69c-1.7-1.49-1.53-3.28-.8-5.16C558.54,429.89,558.56,431.64,556.7,433.69Z" transform="translate(-157.62 -24.15)"/><path class="cls-2" d="M443.65,165.8c-1.87.65-3.65.76-5.1-.92C440.63,163.09,442.41,162.94,443.65,165.8Z" transform="translate(-157.62 -24.15)"/><path class="cls-2" d="M474.86,472a4.78,4.78,0,0,1-3.59,3.91C470.75,473,472.1,471.86,474.86,472Z" transform="translate(-157.62 -24.15)"/><path class="cls-2" d="M531.1,186.18c-1.5-1.11-1.39-2.46-.59-3.91C532.58,183.29,533,184.57,531.1,186.18Z" transform="translate(-157.62 -24.15)"/><path class="cls-2" d="M530.32,197.07c-.69-1.44-.75-2.77.68-3.83C533,194.92,532.59,196.16,530.32,197.07Z" transform="translate(-157.62 -24.15)"/><path class="cls-2" d="M547.17,262.86c-1.5-1.05-1.41-2.39-.7-3.84C548.76,259.93,549.17,261.18,547.17,262.86Z" transform="translate(-157.62 -24.15)"/><path class="cls-2" d="M546.64,299.39c-.75-1.44-.9-2.79.56-3.9C549.21,297.1,548.84,298.38,546.64,299.39Z" transform="translate(-157.62 -24.15)"/><path class="cls-2" d="M313.17,452.53c-1.45-1-1.51-2.34-.8-3.81C314.62,449.57,314.91,450.84,313.17,452.53Z" transform="translate(-157.62 -24.15)"/><path class="cls-2" d="M555.41,425.62c-1.56-1-1.56-2.35-.81-3.84C556.81,422.65,557.13,423.92,555.41,425.62Z" transform="translate(-157.62 -24.15)"/><path class="cls-2" d="M310.54,437.74c-1.55-1.21-1.59-2.44-.05-3.69C312.16,435.26,312.23,436.49,310.54,437.74Z" transform="translate(-157.62 -24.15)"/><path class="cls-2" d="M311.85,445.81c-1.47-1.06-1.47-2.39-.72-3.86C313.3,442.87,313.62,444.14,311.85,445.81Z" transform="translate(-157.62 -24.15)"/><path class="cls-2" d="M505.45,459.57c-1.09,1.39-2.41,1.4-3.86.65C502.53,457.93,503.79,457.59,505.45,459.57Z" transform="translate(-157.62 -24.15)"/><path class="cls-2" d="M494.86,511.12c1.47-.7,2.83-.83,3.87.72C497.07,513.61,495.8,513.27,494.86,511.12Z" transform="translate(-157.62 -24.15)"/><path class="cls-2" d="M387.06,164.88c-1,1.45-2.36,1.49-3.83.76C384.12,163.43,385.38,163.09,387.06,164.88Z" transform="translate(-157.62 -24.15)"/><path class="cls-2" d="M520.22,353c-2.07-2.14-.56-3,1.32-3.82C521.77,350.7,521.91,352.17,520.22,353Z" transform="translate(-157.62 -24.15)"/><path class="cls-2" d="M537.08,231.2a2.38,2.38,0,0,1-1.68-3C537.43,228.39,537.91,229.43,537.08,231.2Z" transform="translate(-157.62 -24.15)"/><path class="cls-2" d="M543.06,245.4a1.56,1.56,0,0,1-.82-2.45C544,243.27,544.9,243.87,543.06,245.4Z" transform="translate(-157.62 -24.15)"/><path class="cls-2" d="M449.14,166.9a1.55,1.55,0,0,1-2.54-.6C447.87,164.71,448.69,165,449.14,166.9Z" transform="translate(-157.62 -24.15)"/><path class="cls-2" d="M379,166.29a1.57,1.57,0,0,1-2.57.62C376.91,165.06,377.73,164.69,379,166.29Z" transform="translate(-157.62 -24.15)"/><path class="cls-2" d="M467.87,172.52c-1.46.59-2.41-.1-3.14-1.29C466.38,170.21,467.49,170.48,467.87,172.52Z" transform="translate(-157.62 -24.15)"/><path class="cls-2" d="M505.43,171.71a2.45,2.45,0,0,1-1.46,3.08C503,173.06,503.31,172,505.43,171.71Z" transform="translate(-157.62 -24.15)"/><path class="cls-2" d="M528.85,176.1c-1.22-.7-1.87-1.66-1.35-3.12C529.55,173.33,529.87,174.43,528.85,176.1Z" transform="translate(-157.62 -24.15)"/><path class="cls-2" d="M337.88,181.74c-.53,1.35-1.34,2.22-2.95,1.72C335.15,181.57,336.09,180.92,337.88,181.74Z" transform="translate(-157.62 -24.15)"/><path class="cls-2" d="M487.87,183.66a2.36,2.36,0,0,1-2.75-2.06C487,181,487.93,181.67,487.87,183.66Z" transform="translate(-157.62 -24.15)"/><path class="cls-2" d="M545,391.35c-1.24-.73-1.88-1.7-1.24-3.17C545.71,388.63,546,389.73,545,391.35Z" transform="translate(-157.62 -24.15)"/><path class="cls-2" d="M542.28,384.64a2.4,2.4,0,0,1-1.5-3.06C542.87,381.82,543.27,382.89,542.28,384.64Z" transform="translate(-157.62 -24.15)"/><path class="cls-2" d="M515.19,530.58a1.57,1.57,0,0,1,2.43-.93C517.34,531.34,516.81,532.38,515.19,530.58Z" transform="translate(-157.62 -24.15)"/><path class="cls-2" d="M525.35,525.87a2.39,2.39,0,0,1,3-1.72C528.17,526.18,527.16,526.71,525.35,525.87Z" transform="translate(-157.62 -24.15)"/><path class="cls-2" d="M513.1,518.62a1.56,1.56,0,0,1-.54,2.56C510.94,519.94,511.22,519.11,513.1,518.62Z" transform="translate(-157.62 -24.15)"/><path class="cls-2" d="M534.93,519.39a2.34,2.34,0,0,1,2.65-2.18C537.74,519.21,536.85,519.94,534.93,519.39Z" transform="translate(-157.62 -24.15)"/><path class="cls-2" d="M477.6,503.87a2.47,2.47,0,0,1,2.95,1.81C478.67,506.54,477.69,505.93,477.6,503.87Z" transform="translate(-157.62 -24.15)"/><path class="cls-2" d="M556,482.32c-.67-1.08-.54-1.95.65-2.55C558.2,481.08,557.82,481.89,556,482.32Z" transform="translate(-157.62 -24.15)"/><path class="cls-2" d="M557.42,475.62c-.74-1-.68-1.91.5-2.58C559.58,474.26,559.23,475.08,557.42,475.62Z" transform="translate(-157.62 -24.15)"/><path class="cls-2" d="M481.87,467a2.42,2.42,0,0,1-2.94,1.8Q479.08,465.74,481.87,467Z" transform="translate(-157.62 -24.15)"/><path class="cls-2" d="M542.23,316.73c-.55-1.09-.38-2,.82-2.45C544.92,315.82,544,316.42,542.23,316.73Z" transform="translate(-157.62 -24.15)"/><path class="cls-2" d="M543.86,311.46a1.57,1.57,0,0,1,.72-2.53C546.12,310.28,545.75,311.09,543.86,311.46Z" transform="translate(-157.62 -24.15)"/><path class="cls-2" d="M545.25,306.1c-.67-1.07-.56-1.94.61-2.56C547.47,304.83,547.13,305.65,545.25,306.1Z" transform="translate(-157.62 -24.15)"/><path class="cls-2" d="M529.23,365.58a2.33,2.33,0,0,1-2.13-2.7C529.08,362.78,529.8,363.67,529.23,365.58Z" transform="translate(-157.62 -24.15)"/><path class="cls-2" d="M528.42,342.05a2.39,2.39,0,0,1,2.13-2.69C531.17,341.31,530.44,342.2,528.42,342.05Z" transform="translate(-157.62 -24.15)"/><path class="cls-2" d="M534,334.15a2.41,2.41,0,0,1,1.73-3C536.58,333,536.05,334,534,334.15Z" transform="translate(-157.62 -24.15)"/><path class="cls-2" d="M539.58,323.47c-.57-1.47,0-2.45,1.3-3.15C541.92,322,541.62,323.09,539.58,323.47Z" transform="translate(-157.62 -24.15)"/><path class="cls-1" d="M480.11,419.26c-13.85-6.09-28.51-9.95-42.6-15.36-2.85-1.1-4.08.85-5.68,2.31-9.38,8.57-23.62,9.27-32.9.73-3.7-3.41-6.51-3.26-10.63-1.81-12,4.25-24.13,8.15-36.2,12.19-7.38,2.47-11,1-14.06-6.46-6.38-15.51-8-31.4-3-47.68a29.21,29.21,0,0,0,.65-3.87c4.3-6.38,9.76-6.73,16.32-3.62,12.62,6,25.43,11.54,38,17.57,3.81,1.82,6.55,2.13,10.28-.65,8.49-6.31,20.95-6.18,29.53.24,3.51,2.62,6.1,2.3,9.69.63,13.39-6.23,26.82-12.38,40.42-18.12,7.53-3.18,11.14-2,13.95,5.32,7.2,18.85,5.22,37.29-4.38,54.95C487.46,419.4,483.8,419.47,480.11,419.26Z" transform="translate(-157.62 -24.15)"/><path class="cls-2" d="M412.13,283.37c16.33.64,30.09,4.59,41.82,14.19,6.82,5.57,7.58,10.24,1.73,16.44-9.82,10.41-19.87,20.65-30.45,30.29-7.78,7.09-16.65,2.33-23.67-1.4a105.51,105.51,0,0,1-26.37-20.5c-6.17-6.46-6.95-11-1.88-18.6C382.82,289.61,397.05,284.2,412.13,283.37Zm3.36,2.4c-15.7.27-28.27,5.14-38.19,16-4.94,5.39-4.93,8.31.3,13,10.15,9,20.41,18,30.87,26.67,6.17,5.12,11.31,5.26,16.24.51,10-9.63,19.74-19.48,29.41-29.41,3.84-3.93,4.13-8-.4-12.12C442.52,290.08,428.85,286.92,415.49,285.77Z" transform="translate(-157.62 -24.15)"/><path class="cls-1" d="M483.58,265c-.16,4.53-.81,9-3.24,12.9-4.16,6.74-11.88,6.65-15.5-.41-4.11-8-3-16.14,1.18-23.82a9,9,0,0,1,9.12-4.56c3.55.33,5.33,3,6.59,6A26.15,26.15,0,0,1,483.58,265Z" transform="translate(-157.62 -24.15)"/><path class="cls-2" d="M365.41,266.18c.16,3.41-.74,6.63-1.67,9.86-2.43,8.41-9.83,10.91-16.91,5.66-6.59-4.87-10.63-17.55-8.41-25.49,2.05-7.34,8.74-6.86,14-8.32,4.47-1.24,7.61,1.89,9.82,5.46A23,23,0,0,1,365.41,266.18Zm-2.27-.74a17.29,17.29,0,0,0-1.74-8.85c-1.78-3.55-4-7-8.35-6.5-4,.5-6.31,3.8-7.51,7.72A22.35,22.35,0,0,0,347,274.63c1.68,3.48,4.09,6,8.14,5.89,4.34-.1,5.89-3.21,7-6.93A25.37,25.37,0,0,0,363.14,265.44Z" transform="translate(-157.62 -24.15)"/><path class="cls-1" d="M415.49,285.77c13.36,1.15,27,4.31,38.23,14.59,4.53,4.17,4.24,8.19.4,12.12-9.67,9.93-19.44,19.78-29.41,29.41-4.93,4.75-10.07,4.61-16.24-.51-10.46-8.69-20.72-17.63-30.87-26.67-5.23-4.66-5.24-7.58-.3-13C387.22,290.91,399.79,286,415.49,285.77Z" transform="translate(-157.62 -24.15)"/><path class="cls-1" d="M363.14,265.44a25.37,25.37,0,0,1-1,8.15c-1.08,3.72-2.63,6.83-7,6.93-4.05.09-6.46-2.41-8.14-5.89a22.35,22.35,0,0,1-1.48-16.82c1.2-3.92,3.47-7.22,7.51-7.72,4.36-.55,6.57,2.95,8.35,6.5A17.29,17.29,0,0,1,363.14,265.44Z" transform="translate(-157.62 -24.15)"/></svg>