<svg id="Layer_16" data-name="Layer 16" xmlns="http://www.w3.org/2000/svg" viewBox="0 0 521.13 569.61"><defs><style>.cls-1{fill:#4e6e36;}.cls-2{fill:#9caf60;}</style></defs><title>H_Logros</title><g id="kJ7mdK.tif"><path class="cls-1" d="M658.73,359.14l.9,10.27c-1.44,1.43-1.39,2.7.39,3.8a206.17,206.17,0,0,1,0,32.78c-1.78,1.1-1.88,2.38-.38,3.8q-.46,5.13-.92,10.26c-1.51.84-1.27,2.33-1.4,3.71-3.65,38.44-18.55,72-45.4,99.62-31.7,32.56-72,46.2-116.44,48.43a193.57,193.57,0,0,1-67.27-8c-9.5-2.93-19.56-2.75-29.22-.63a287.66,287.66,0,0,1-69.52,6.38c-25.17-.67-49.2-5.48-72.21-15.6-34.83-15.33-59.84-40.44-74.63-75.5S166.55,406.71,171.79,370c9.42-66,37.28-124.83,74.66-179.38A614.86,614.86,0,0,1,341.58,81.12C359,65.4,377,50.49,396.63,37.67c5.24-3.41,11.68-4.9,15.92-9.89,4.81-1.62,8.65.82,12.54,3,65,36.31,117.9,85.9,160.61,146.57,24.55,34.88,44.23,72.32,57.64,112.92.73,2.22,1.31,4.49,2,6.73-.9,1.46-.56,2.56,1,3.3.67,2.16,1.33,4.32,2,6.47-1,1.48-.78,2.62.88,3.39q1.77,7.08,3.52,14.17c-1.6,1.32-.77,2.1.62,2.75.23,1,.45,1.94.67,2.9-1.5,1.23-.76,2,.52,2.73q1.17,6.39,2.32,12.77c-1.47,1.53-1.26,2.8.6,3.8l1,7.43C657,357.73,657.29,358.51,658.73,359.14ZM366.77,479c1.94.58,4.23,2.23,5.76.14,1.31-1.78-.91-3.36-1.81-4.86a82.84,82.84,0,0,1-8.57-19.86c2.18-4.73-1.47-9.12-.85-13.79.18-1.34.12-3-1.67-3.39-1.56-.34-2.55.89-3.6,1.82-5.75,5.11-7.31,12.13-3.94,19.11a90.45,90.45,0,0,1,5.41,15.2C358.8,478.05,361.66,480.48,366.77,479ZM456,422.82a35.88,35.88,0,0,0-12.64-3c-1.57-2.1-4-2-6.25-2.63-7.28-2.16-14.88-1.68-22.27-2.2A87.41,87.41,0,0,0,377,420.35c-2.58,1-5.29,2.76-5.25,6,0,2.95,2.72,4.22,5.1,5.23,3.22,1.36,6.51,2.59,9.85,3.65,7.63,2.42,15.6,2.94,23.48,3.67,16.19,1.5,32.26.73,47.75-4.77,2.62-.93,6.89-1.71,5.86-5.7C462.91,425.11,460.36,422.2,456,422.82ZM316.58,554.35c.84,1.54,36.21-.42,53.09.5a16.29,16.29,0,0,0,2.76.3c7.41-.41,7.73-1,3.84-7.07-2.18-3.38-2.37-6.77-1.13-10.69,3.42-10.79,12-14.28,21.85-16.12,2.38-.45,4.6-.73,6.05-2.93a13.7,13.7,0,0,0-5.47-19.84,24.5,24.5,0,0,1-5.39-3.26c-5-4.43-10-4.26-15.3-.62A16.26,16.26,0,0,1,362.76,497c-4.32-1.31-6.78.27-8.87,3.41-5.32,8-13.41,11-22.32,10.94-23.68-.23-40.72-13.05-55.23-30.32-1.83-2.18-2.5-5.52-6.34-6.88,0,1.95-.11,3.32,0,4.66,2.2,23.08,9.78,44.38,23.29,63.08,3.84,5.33,8,11.85,16.35,12.38C311.86,554.78,314.38,553.87,316.58,554.35ZM297.53,188.61l0,9a3.33,3.33,0,0,0-.26,4.52c6.43,7.28,2,12.6-2.86,18-1.71,1.91-3.14,4.07-4.68,6.14-30.43,40.8-24.24,91.37,6.06,126.85,3.89,4.56,4.48,8.1,1.8,13.11-6.31,11.76-13.2,23.22-18,35.77-7.41,19.45-11.44,39.5-11,60.37,0,2.29-.57,5.64,2.17,6.08,6.05,1,8.79,5.9,12.77,9.33,11.84,10.22,24.56,18.7,40.28,21.79,10.73,2.11,21.35-2.34,22.95-11,1.25-6.79,1.78-14-1-20.81-7.26-18-19.53-31.74-36-41.88-2.85-1.76-6.6-3.75-4.3-7.44s5.95-1.32,8.68.41a95.94,95.94,0,0,1,18,14.47c3.44,3.59,6.34,4,9.45-.87a20.46,20.46,0,0,1,17.7-9.71c2.45,0,4.66-.28,6-2.73,2.5-4.48,7-6,11.46-7.52,21.67-7.36,43.79-7,65.95-3.24,9.21,1.57,18.38,4.06,26,10.05,4.74,3.75,7.52,10.19,15.82,9.48-3.05,3.36-7.47-.93-8,3-.5,3.33,4.06,3,6,4.77a2.1,2.1,0,0,0,.6.35c2.35,1,3.91,5.76,6.74,2.93,2.67-2.67-2.45-4.33-2.8-7,0-.37.32-.79.75-1.75,5.46,6.23,9.59,2,13.69-1.75a50.23,50.23,0,0,1,22-12.05c3-.76,7.79-3.78,9.34.74,1.62,4.75-4.09,4.7-6.94,5.9-20.13,8.5-33.56,22.9-38.28,44.39-1.71,7.78-2.56,16.32,5.67,22l2,1.85c4.73,6.07,11.26,5.57,17.67,4.43,11.15-2,20.6-7.36,28.62-15.31,1.76-1.76,3.74-3.32,6-1.05,1.94,1.93,1.67,4.38,0,6.36-11.94,13.84-31.31,24.17-49.87,17.75-9.22-3.19-17.42-9.2-27.94-7.26a4.62,4.62,0,0,1-3.27-1.1c-6.17-5.21-11.73-3.88-17.21,1.17-1.16,1.07-2.9,1.49-4.34,2.28-5.58,3.08-6.76,19.1-1.64,22.93a1.82,1.82,0,0,0,2.5-.49l4.24.2c3.41,2.8,7.62,3.47,11.71,4.49l1.52,1.51c-.41,1.79.23,2.85,2.1,3.09l1.09,2.31c-.13,6.62,2.79,13.41-1.2,19.82-4.3,6.92-4,8,4.41,8.42,22.31,1.09,44.44-.37,66.08-6.45,2.32-.66,5.29-.69,6-4l4.78-4.67c13.41-8.33,23.66-30.12,21.08-44.81.1-1,.21-2,.31-3,3-1.69,1.74-4.61,1.81-7,.76-25.68-2.16-50.89-11.18-75.07-2.86-7.65-3.86-16.39-10.71-22.18l-.83-1.36c-.92-4.59-3.12-8.18-7.68-10l-2.2-2.69c.37-2.62-.88-4-3.41-4.28l-.9-1.28c.55-2.63-.68-4-3.18-4.42l-.91-1.34c.71-5.67,8-7,8.43-12.87l1-1.29c3.64-.6,4.41-4,5.86-6.47a101.52,101.52,0,0,0,14.52-50.71c.13-7.23,2.06-14.8-1.75-21.78-.14-1-.28-2-.43-3,1.66-9.74-3-18.09-6.43-26.51-2.69-6.69-5.17-14-11.81-18.29l-.93-1.33c-2.64-5.83-2.07-11.2,1.23-16.8,1.58-2.7,3.31-6.23,1.17-9.77,0-2.54,0-5.07,0-7.61q2.12-10-5.72-16.58l-3.24-3.52c-5.36-6.2-13.39-4.46-16.55,3.59-.28.45-.57.9-.86,1.35-5.45,4-5,9.93-5.13,15.69,0,1.78,1,4-1.18,5.06-2.47,1.25-3.68-1.1-5.29-2.32-3-2.31-4.5-6.74-9.19-6.8l-1.31-.92c-.18-1.79-1.16-2.39-2.86-1.94l-1.39-.83c-.18-2.4-2.37-2.68-3.91-3.5a97.65,97.65,0,0,0-29.62-10c-6.49-1.1-12.86-4-19.68-2l-5.83-.39a36,36,0,0,0-24.1,0l-5.82.44c-2.5-1.42-4.85-1.58-6.88.84l-3,.36c-1.09-.21-2.25-.77-3.27-.59-17.37,3.09-34.08,8-49.1,17.7-1.83,1.18-3.56,3.91-6.07,2.57s-2-4.51-2-7a43.46,43.46,0,0,0-2.58-15.8c-1.66-4.31-4.3-8.76-9.29-8.24-5.22.53-10.4,2.83-11.51,9.28l-.84,1.37A19.34,19.34,0,0,0,297.53,188.61Zm139,262.76c6,3.79,12.33,2.82,18.59,1.39,4.6-1,6.18.28,5.09,4.91C459,462.46,458,467.28,457,472.1c-.34,1.72-1.48,4,1,4.86,1.94.62,3.71-.91,4.61-2.56,4.31-7.9,7.57-16.21,7.25-25.36-.15-4.34-2.8-7.81-7.4-5.4C454.3,447.93,445.57,449.85,436.48,451.37Zm24.67,87c.05-5.84-5.7-12.42-11.08-12.68-1.68-.07-3.33,0-4.43,1.52s-.54,3,.44,4.48c5.37,8.22,5.11,10-2.23,16.53-1.62,1.46-4.63,2.35-2.47,5.4,1.66,2.36,4,2.86,6.83,2.23C454.43,554.49,461.09,545.62,461.15,538.41Zm16.91-61.58a23.16,23.16,0,0,1-.38-7.25c.58-6.5,3-12.2,5.77-17.91,1.5-3.08-.2-5.38-2.46-7.35-1.07-.94-2.33-2.07-3.72-1.32-2.75,1.47-1.43,4.23-1.31,6.35a49.19,49.19,0,0,1-5.55,26.46c-.82,1.55-2.27,3.31-.18,5a5.46,5.46,0,0,0,5.33.83C477.69,481,478.16,479.16,478.06,476.83Zm-44.6,40.25c0-2.11.12-4.22,0-6.31-.14-1.86.86-4.89-2.52-4.54-2.59.27-2,3-1.67,4.6,2.07,8.67-.25,17.08-1.24,25.57-.22,1.85-.74,4,1.86,4.51,2.81.56,5.67.4,8-1.49,1.8-1.47.48-3.13-.41-4.32C433.36,529.67,433.07,523.46,433.46,517.08Zm.45-18.37c5.16.4,8.7-2.92,12.5-5.55,1.31-.9,2.71-2.27,1.37-4.07s-2.89-.79-4.41-.15c-3.43,1.44-6.5,3.69-10.3,4.27-1.93.29-4,1-3.66,3.38C429.74,499.1,432.12,498.58,433.91,498.71Z" transform="translate(-140.07 -25.82)"/><path class="cls-2" d="M412.55,27.78c-4.24,5-10.68,6.48-15.92,9.89C377,50.49,359,65.4,341.58,81.12a614.86,614.86,0,0,0-95.13,109.49C209.07,245.16,181.21,304,171.79,370c-5.24,36.72-3.89,73.47,10.88,108.47s39.8,60.17,74.63,75.5c23,10.12,47,14.93,72.21,15.6A287.66,287.66,0,0,0,399,563.18c9.66-2.12,19.72-2.3,29.22.63a193.57,193.57,0,0,0,67.27,8C540,569.58,580.26,555.94,612,523.38c26.85-27.58,41.75-61.18,45.4-99.62.13-1.38-.11-2.87,1.4-3.71,4.61,13.06,1.92,25.86-1.62,38.54-14.85,53.11-44.1,95.37-94.55,120-45.18,22-91.26,22.85-137,.44-2.94-1.44-6.33-2.74-8.37-5.09-5.26-6.08-9.61-3.91-15.51-.59-22.06,12.4-46.48,17.45-71.29,20-38.6,4-75.33-2.35-108.85-22.89-37.29-22.84-59.79-56.86-72.31-97.93-11.91-39-11.29-78.75-3.75-118.39,15.71-82.52,53.53-154,109.05-216.61C294.12,93,340.82,57.63,393.26,29.68,399.47,26.37,405.68,24,412.55,27.78Z" transform="translate(-140.07 -25.82)"/><path class="cls-2" d="M657.4,349.28c-1.86-1-2.07-2.27-.6-3.8C658.51,346.51,658.79,347.76,657.4,349.28Z" transform="translate(-140.07 -25.82)"/><path class="cls-2" d="M659.68,409.79c-1.5-1.42-1.4-2.7.38-3.8C661.47,407.41,661.36,408.68,659.68,409.79Z" transform="translate(-140.07 -25.82)"/><path class="cls-2" d="M660,373.21c-1.78-1.1-1.83-2.37-.39-3.8C661.31,370.52,661.46,371.78,660,373.21Z" transform="translate(-140.07 -25.82)"/><path class="cls-2" d="M646.27,300.3c-1.53-.74-1.87-1.84-1-3.3C646.73,297.78,647.29,298.81,646.27,300.3Z" transform="translate(-140.07 -25.82)"/><path class="cls-2" d="M658.73,359.14c-1.44-.63-1.75-1.41-.34-2.43C659.78,357.34,660,358.13,658.73,359.14Z" transform="translate(-140.07 -25.82)"/><path class="cls-2" d="M649.15,310.16c-1.66-.77-1.93-1.91-.88-3.39C649.6,307.63,650.18,308.68,649.15,310.16Z" transform="translate(-140.07 -25.82)"/><path class="cls-2" d="M653.29,327.08c-1.39-.65-2.22-1.43-.62-2.75C654,325,654.15,325.92,653.29,327.08Z" transform="translate(-140.07 -25.82)"/><path class="cls-2" d="M654.48,332.71c-1.28-.7-2-1.5-.52-2.73C655.3,330.67,655.41,331.6,654.48,332.71Z" transform="translate(-140.07 -25.82)"/><path class="cls-2" d="M297.57,197.6c1.74,3.2,3.5,6.07,7.07,8,3.82,2.09,4.38,6.3,3.5,10.58-1.3,6.32-4.37,11.9-7.36,17.46-14.45,26.85-14.72,53.59-.44,80.67,3.91,7.43,6.55,15.55,9.64,23.4,2.24,5.7.95,11-.4,17-6.65,29.56-22.83,55.86-28.18,85.9-4.41,24.71-3.78,27.23,19.64,35.76a106.91,106.91,0,0,0,21.75,5.72c4.42.63,8.88.7,13.18-1.05,8.91-3.62,10.31-6.84,6.31-15.62-6.47-14.23-16.51-25.51-29.15-34.56-2.1-1.5-4.38-2.73-6.54-4.15-3.62-2.38-6.51-5.38-3.68-9.83s7.13-3.43,10.6-1.22c5.73,3.64,11.52,7.42,16.4,12.08s8.6,6.95,12.78-.34a6.22,6.22,0,0,1,3.19-2.67c18-5.57,32.75-19.16,52.8-19.85,20.3-.71,40.35-1,59.79,6.09a39.57,39.57,0,0,1,16.85,11c4.78,5.43,12.94,4.52,18.51,9.09,1.62,1.32,4.24-2.29,6.15-3.89,7.51-6.27,15.66-11.13,25.42-12.93,4.55-.84,9.87-1.68,11.2,3.9,1.22,5.1-4.14,6-7.8,7.31-18.61,6.83-30.93,19.76-37.57,38.34-3.28,9.2-1.59,17.91,2.15,26.49-8.23-5.68-7.38-14.22-5.67-22,4.72-21.49,18.15-35.89,38.28-44.39,2.85-1.2,8.56-1.15,6.94-5.9-1.55-4.52-6.3-1.5-9.34-.74a50.23,50.23,0,0,0-22,12.05c-4.1,3.78-8.23,8-13.69,1.75-.43,1-.79,1.38-.75,1.75.35,2.65,5.47,4.31,2.8,7-2.83,2.83-4.39-2-6.74-2.93a2.1,2.1,0,0,1-.6-.35c-1.93-1.79-6.49-1.44-6-4.77.57-3.92,5,.37,8-3-8.3.71-11.08-5.73-15.82-9.48-7.58-6-16.75-8.48-26-10.05-22.16-3.77-44.28-4.12-65.95,3.24-4.44,1.51-9,3-11.46,7.52-1.36,2.45-3.57,2.69-6,2.73a20.46,20.46,0,0,0-17.7,9.71c-3.11,4.84-6,4.46-9.45.87a95.94,95.94,0,0,0-18-14.47c-2.73-1.73-6.45-4-8.68-.41s1.45,5.68,4.3,7.44c16.43,10.14,28.7,23.88,36,41.88,2.74,6.78,2.21,14,1,20.81-1.6,8.65-12.22,13.1-22.95,11-15.72-3.09-28.44-11.57-40.28-21.79-4-3.43-6.72-8.35-12.77-9.33-2.74-.44-2.12-3.79-2.17-6.08-.46-20.87,3.57-40.92,11-60.37,4.79-12.55,11.68-24,18-35.77,2.68-5,2.09-8.55-1.8-13.11-30.3-35.48-36.49-86.05-6.06-126.85,1.54-2.07,3-4.23,4.68-6.14,4.83-5.41,9.29-10.73,2.86-18A3.33,3.33,0,0,1,297.57,197.6Z" transform="translate(-140.07 -25.82)"/><path class="cls-2" d="M309.69,554.84c-8.38-.53-12.54-7.59-16.38-12.92-13.51-18.7-21.09-40-23.29-63.08-.13-1.34,0-2.71,0-4.66,3.84,1.36,4.51,4.7,6.34,6.88,14.51,17.27,31.55,30.09,55.23,30.32,8.91.09,17-2.9,22.32-10.94,2.09-3.14,4.55-4.72,8.87-3.41a16.26,16.26,0,0,0,14.12-2.41c5.31-3.64,10.3-3.81,15.3.62a24.5,24.5,0,0,0,5.39,3.26A13.7,13.7,0,0,1,403,518.34c-1.45,2.2-3.67,2.48-6.05,2.93-9.82,1.84-18.43,5.33-21.85,16.12-1.24,3.92-1.05,7.31,1.13,10.69,3.89,6,3.57,6.66-3.84,7.07a16.29,16.29,0,0,1-2.76-.3c.46-7.15-3.29-14.42.07-21.41,3.43-7.14,7.44-14,11.22-21,1-1.77,3.65-3.12,2.64-5.33-1.11-2.43-3.74-.7-5.68-.84-2.34-.17-4.8.35-7-.21-5.79-1.46-8,.85-10,6.33-5.77,16.12-19.66,23-36.46,19.2a136.29,136.29,0,0,1-20-6.45c-1.26-.51-2.68-1.57-3.92-.5-1.68,1.45-.18,3,.4,4.43C304.39,537.49,309.26,545.41,309.69,554.84Z" transform="translate(-140.07 -25.82)"/><path class="cls-2" d="M495.34,492.18c17.25,6.43,30.91-.79,43.48-11.66,2.95-2.55,5.87-5.84,9.63-2.86,3.4,2.7,5.84,6.77,4.71,11.61-1.49,6.43-5.38,11.39-10.47,15.4-18.55,14.64-49.93,14.21-64.73-1.59-5-5.32-13.37-6.89-19.64-7.62-13-1.51-19.92,14.52-12.5,26.43a1.82,1.82,0,0,1-2.5.49c-5.12-3.83-3.94-19.85,1.64-22.93,1.44-.79,3.18-1.21,4.34-2.28,5.48-5.05,11-6.38,17.21-1.17a4.62,4.62,0,0,0,3.27,1.1c10.52-1.94,18.72,4.07,27.94,7.26,18.56,6.42,37.93-3.91,49.87-17.75,1.71-2,2-4.43,0-6.36-2.26-2.27-4.24-.71-6,1.05-8,7.95-17.47,13.34-28.62,15.31C506.6,497.75,500.07,498.25,495.34,492.18Z" transform="translate(-140.07 -25.82)"/><path class="cls-2" d="M456,422.82c4.36-.62,6.91,2.29,7.76,5.58,1,4-3.24,4.77-5.86,5.7-15.49,5.5-31.56,6.27-47.75,4.77-7.88-.73-15.85-1.25-23.48-3.67-3.34-1.06-6.63-2.29-9.85-3.65-2.38-1-5.07-2.28-5.1-5.23,0-3.21,2.67-5,5.25-6A87.41,87.41,0,0,1,414.84,415c7.39.52,15,0,22.27,2.2,2.21.65,4.68.53,6.25,2.63-9.56.16-19.14-.05-28.67.58-10.06.66-20.23,1.45-29.37,7,22.24,2.71,44.41,4.4,66.57-.41A4.75,4.75,0,0,0,456,422.82Z" transform="translate(-140.07 -25.82)"/><path class="cls-2" d="M461.15,538.41c-.06,7.21-6.72,16.08-12.94,17.48-2.82.63-5.17.13-6.83-2.23-2.16-3,.85-3.94,2.47-5.4,7.34-6.57,7.6-8.31,2.23-16.53-1-1.5-1.59-2.89-.44-4.48s2.75-1.59,4.43-1.52C455.45,526,461.2,532.57,461.15,538.41Z" transform="translate(-140.07 -25.82)"/><path class="cls-2" d="M366.77,479c-5.11,1.45-8-1-9.27-5.63a90.45,90.45,0,0,0-5.41-15.2c-3.37-7-1.81-14,3.94-19.11,1.05-.93,2-2.16,3.6-1.82,1.79.38,1.85,2.05,1.67,3.39-.62,4.67,3,9.06.85,13.79C358.9,463.54,360.81,471.67,366.77,479Z" transform="translate(-140.07 -25.82)"/><path class="cls-2" d="M388,171.33c-2.93,2.9-7,2.13-10.46,2.92-15.39,3.48-30,8.65-43.13,17.65-5.86,4-7.44,3.33-8.69-3.59-.86-4.79-.8-9.74-1.53-14.56s-2.12-9.54-7.15-11.2c-4.78-1.58-7.59,2.4-10.6,5.29a12.94,12.94,0,0,1-2.3,1.4c1.12-6.45,6.3-8.75,11.52-9.28,5-.52,7.63,3.93,9.29,8.24A43.46,43.46,0,0,1,327.5,184c0,2.5-.61,5.6,2,7s4.24-1.39,6.07-2.57c15-9.67,31.73-14.61,49.1-17.7C385.72,170.56,386.88,171.12,388,171.33Z" transform="translate(-140.07 -25.82)"/><path class="cls-2" d="M466.48,533.49c4.41,6.1,4.4,12.83,1.43,19.17-.06,1.21-.84,1.21,4.35,1.4,23.5.86,46.13.78,69.5-2.75-.7,3.28-3.67,3.31-6,4-21.64,6.08-43.77,7.54-66.08,6.45-8.39-.41-8.71-1.5-4.41-8.42C469.27,546.9,466.35,540.11,466.48,533.49Z" transform="translate(-140.07 -25.82)"/><path class="cls-2" d="M567.93,498.82a27.93,27.93,0,0,1-.56-4.78c1.51-34.06-4.45-66.62-19.33-97.43a6,6,0,0,1-.19-2c6.85,5.79,7.85,14.53,10.71,22.18,9,24.18,11.94,49.39,11.18,75.07C569.67,494.21,570.91,497.13,567.93,498.82Z" transform="translate(-140.07 -25.82)"/><path class="cls-2" d="M478.06,476.83c.1,2.33-.37,4.14-2.5,4.82a5.46,5.46,0,0,1-5.33-.83c-2.09-1.7-.64-3.46.18-5A49.19,49.19,0,0,0,476,449.35c-.12-2.12-1.44-4.88,1.31-6.35,1.39-.75,2.65.38,3.72,1.32,2.26,2,4,4.27,2.46,7.35-2.79,5.71-5.19,11.41-5.77,17.91A23.16,23.16,0,0,0,478.06,476.83Z" transform="translate(-140.07 -25.82)"/><path class="cls-2" d="M538.15,355.1c.77-4.28,4-7.22,6-10.87,9.2-17.43,12.84-36,12.39-55.6-.09-4.15-1.16-8.37.28-12.5,3.81,7,1.88,14.56,1.75,21.79A101.52,101.52,0,0,1,544,348.63C542.56,351.06,541.79,354.5,538.15,355.1Z" transform="translate(-140.07 -25.82)"/><path class="cls-2" d="M433.46,517.07c-.39,6.39-.1,12.6,4,18,.89,1.19,2.21,2.85.41,4.32-2.34,1.89-5.2,2.05-8,1.49-2.6-.53-2.08-2.66-1.86-4.51,1-8.49,3.31-16.9,1.24-25.57-.37-1.58-.92-4.33,1.67-4.6,3.38-.35,2.38,2.68,2.52,4.54C433.58,512.86,433.46,515,433.46,517.07Z" transform="translate(-140.07 -25.82)"/><path class="cls-2" d="M486.82,185.6c-13.95-6-28.13-11.11-43.26-13.36-3.31-.49-7.11.58-10-2.18,6.83-2,13.2.89,19.69,2a97.65,97.65,0,0,1,29.62,10C484.45,182.92,486.64,183.2,486.82,185.6Z" transform="translate(-140.07 -25.82)"/><path class="cls-2" d="M546.54,546.65a3.22,3.22,0,0,1,1.63-3.55c12.72-8.19,14.48-21.84,17.54-34.87.51-2.16-.3-4.74,1.91-6.39C570.2,516.53,560,538.32,546.54,546.65Z" transform="translate(-140.07 -25.82)"/><path class="cls-2" d="M556.35,273.13c-2.75-4-2.63-8.8-3.75-13.22-2.92-11.46-9.34-21.21-14.49-31.59,6.64,4.34,9.12,11.61,11.81,18.3C553.31,255,558,263.39,556.35,273.13Z" transform="translate(-140.07 -25.82)"/><path class="cls-2" d="M513.17,177.66c-1.16,6.08-4.22,11.86-2.46,18.4a4.2,4.2,0,0,1-2.72,5.12,5,5,0,0,1-5.82-1.17c-3.35-3.5-6.54-7.14-9.79-10.73,4.69.07,6.16,4.5,9.19,6.81,1.61,1.22,2.82,3.57,5.29,2.32,2.14-1.08,1.16-3.28,1.18-5.06C508.13,187.59,507.72,181.66,513.17,177.66Z" transform="translate(-140.07 -25.82)"/><path class="cls-2" d="M433.91,498.71c-1.79-.13-4.17.39-4.5-2.12-.31-2.34,1.73-3.09,3.66-3.38,3.8-.58,6.87-2.83,10.3-4.27,1.52-.64,3.14-1.57,4.41.15s-.06,3.17-1.37,4.07C442.61,495.79,439.07,499.11,433.91,498.71Z" transform="translate(-140.07 -25.82)"/><path class="cls-2" d="M537.18,227c-4.67-3.31-6-7.66-3-12.54,2.68-4.4,2.77-9.68,5.39-14,2.14,3.55.41,7.08-1.17,9.78C535.11,215.8,534.54,221.17,537.18,227Z" transform="translate(-140.07 -25.82)"/><path class="cls-2" d="M427.78,169.67a80.46,80.46,0,0,1-24.1,0A36,36,0,0,1,427.78,169.67Z" transform="translate(-140.07 -25.82)"/><path class="cls-2" d="M530.58,172.72c-6.41-2.92-11.71-.73-16.55,3.59C517.19,168.26,525.22,166.52,530.58,172.72Z" transform="translate(-140.07 -25.82)"/><path class="cls-2" d="M303.28,170.61q-2.86,9-5.75,18A19.34,19.34,0,0,1,303.28,170.61Z" transform="translate(-140.07 -25.82)"/><path class="cls-2" d="M539.54,192.82q-2.87-8.28-5.72-16.58Q541.67,182.81,539.54,192.82Z" transform="translate(-140.07 -25.82)"/><path class="cls-2" d="M528.74,369.26c-2.86-1.3-2-3.38-.56-4.83,2.84-2.84,5.1-6.39,9-8.05C536.74,362.24,529.45,363.59,528.74,369.26Z" transform="translate(-140.07 -25.82)"/><path class="cls-2" d="M547,393.24a20.09,20.09,0,0,1-7.68-10C543.9,385.06,546.1,388.65,547,393.24Z" transform="translate(-140.07 -25.82)"/><path class="cls-2" d="M450.06,522.09c4.81-.85,8.78.45,11.71,4.49C457.68,525.56,453.47,524.89,450.06,522.09Z" transform="translate(-140.07 -25.82)"/><path class="cls-2" d="M397.86,170.13c-2.07,2.13-4.43,1.85-6.89.84C393,168.55,395.36,168.71,397.86,170.13Z" transform="translate(-140.07 -25.82)"/><path class="cls-2" d="M537.14,380.58c-2.2-.58-3.47-1.91-3.41-4.28C536.26,376.62,537.51,378,537.14,380.58Z" transform="translate(-140.07 -25.82)"/><path class="cls-2" d="M532.83,375a4.07,4.07,0,0,1-3.18-4.43C532.15,371,533.38,372.39,532.83,375Z" transform="translate(-140.07 -25.82)"/><path class="cls-2" d="M463.29,528.09a2.33,2.33,0,0,1,2.1,3.09C463.52,530.94,462.88,529.88,463.29,528.09Z" transform="translate(-140.07 -25.82)"/><path class="cls-2" d="M491.07,188.37c-1.64.36-2.56-.34-2.87-1.94C489.91,186,490.89,186.58,491.07,188.37Z" transform="translate(-140.07 -25.82)"/><path class="cls-1" d="M454.57,308.21l1.3.94a9.57,9.57,0,0,0,6.66,6.43c1,1.25,1.62,2.58.9,4.2-1.81.64-2.06,1.79-1.1,3.35a13.76,13.76,0,0,1-5.35,6.64,108.38,108.38,0,0,0-25,25,14.7,14.7,0,0,1-5.66,4.83,2,2,0,0,0-3,1.43l-2.89.55c-2.55-1.53-5.37-2.74-7.62-4.63-11.91-10-23.65-20.18-35.52-30.22-2.33-2-3.16-4.45-3.55-7.26l2.38-3.84c1.73-.12,2.35-1.09,2.05-2.74l3.12-3.1c1.67.28,2.63-.36,2.7-2.13l1.31-.9c1.75.54,2.76,0,2.9-1.92l1.4-.81,21.27-7.19a24.49,24.49,0,0,1,11.07,0c2,2.65,4.38,2.23,6.9.93l2.92.64c5.74,3.5,12.13,5.28,18.55,7l1.37.81C451.82,308.08,452.81,308.7,454.57,308.21Z" transform="translate(-140.07 -25.82)"/><path class="cls-1" d="M311.74,299.49c1.17-15.06,5.84-28,18.22-36.86,16-11.4,37-4.76,44,13.62,1.51,4,2.27,8.05-2.2,10.48s-7.54-.27-10-3.76c-7.12-9.93-7.36-9.94-17.42-2.87s-18.77,14.78-22.11,27.14a5.16,5.16,0,0,1-5.08,4.14c-3,.05-3.87-2.33-4.36-4.67C312.21,304.21,312,301.63,311.74,299.49Z" transform="translate(-140.07 -25.82)"/><path class="cls-1" d="M515.63,295.73c-.19,1.69-.31,3.57-.63,5.41-.51,3-.64,6.68-4.69,6.73s-6.41-2.73-6.81-6.7A35.94,35.94,0,0,0,495.45,282c-8.47-10.57-18-11.55-28.42-2.87-3.46,2.89-6.8,8.2-11.78,4.25-5.31-4.22-2.65-9.78.17-14.63,10.39-17.9,31.67-20.7,46.44-6.15C511.05,271.68,514.82,283,515.63,295.73Z" transform="translate(-140.07 -25.82)"/><path class="cls-2" d="M373.76,319.49c.39,2.81,1.22,5.29,3.55,7.26,11.87,10,23.61,20.23,35.52,30.22,2.25,1.89,5.07,3.1,7.62,4.63-4.05,3.74-9,5.07-13.31,1.67-10.1-7.91-21.54-14.17-30.26-23.75-3.91-4.3-7.49-9.19-6.17-15.69C371.07,322.06,371.59,320.12,373.76,319.49Z" transform="translate(-140.07 -25.82)"/><path class="cls-2" d="M432,354.79a108.38,108.38,0,0,1,25-25A105.54,105.54,0,0,1,432,354.79Z" transform="translate(-140.07 -25.82)"/><path class="cls-2" d="M410.89,296.86l-21.27,7.19A25.4,25.4,0,0,1,410.89,296.86Z" transform="translate(-140.07 -25.82)"/><path class="cls-2" d="M450.33,305.4c-6.42-1.68-12.81-3.46-18.55-7A26.08,26.08,0,0,1,450.33,305.4Z" transform="translate(-140.07 -25.82)"/><path class="cls-2" d="M462.53,315.58a9.57,9.57,0,0,1-6.66-6.43C459.5,309.83,461.88,311.81,462.53,315.58Z" transform="translate(-140.07 -25.82)"/><path class="cls-2" d="M428.86,297.8c-2.52,1.3-4.92,1.72-6.9-.93C424.45,295.73,426.83,295.5,428.86,297.8Z" transform="translate(-140.07 -25.82)"/><path class="cls-2" d="M423.34,361.05a2,2,0,0,1,3-1.43C425.94,361.39,425,362,423.34,361.05Z" transform="translate(-140.07 -25.82)"/><path class="cls-2" d="M388.22,304.86c-.14,1.88-1.15,2.46-2.9,1.92C385.62,305.13,386.53,304.4,388.22,304.86Z" transform="translate(-140.07 -25.82)"/><path class="cls-2" d="M454.57,308.21c-1.76.49-2.75-.13-2.87-2C453.41,305.81,454.32,306.53,454.57,308.21Z" transform="translate(-140.07 -25.82)"/><path class="cls-2" d="M384,307.68c-.07,1.77-1,2.41-2.7,2.13C381.4,308.07,382.29,307.34,384,307.68Z" transform="translate(-140.07 -25.82)"/><path class="cls-2" d="M378.19,312.91c.3,1.65-.32,2.62-2.05,2.74C375.74,313.93,376.44,313,378.19,312.91Z" transform="translate(-140.07 -25.82)"/><path class="cls-2" d="M462.33,323.13c-1-1.56-.71-2.71,1.1-3.35C464.62,321.41,463.83,322.38,462.33,323.13Z" transform="translate(-140.07 -25.82)"/></g></svg>