<svg id="Layer_20" data-name="Layer 20" xmlns="http://www.w3.org/2000/svg" viewBox="0 0 57.94 535.48"><defs><style>.cls-1{fill:#fffffe;}.cls-2{fill:#9fb256;}.cls-3{fill:#4d6d35;}</style></defs><title>Oval_Left</title><g id="gvnUrk.tif"><path class="cls-1" d="M45.06,121.76c0,2.38-.06,4.76-.06,7.13q.24,132.56.49,265.09.1,57.81.19,115.6,0,31.94.12,63.86a20.12,20.12,0,0,0,.41,2.77c0,.08-.08.17-.12.26l.19,0c2.25-4.8,4.5-9.64,6.78-14.46a456.64,456.64,0,0,0,29.74-84.2A643,643,0,0,0,97.32,397.3c2.25-18.63,4-37.3,4.58-56,1-33,.31-66-3.2-99C96.23,219.18,93,196.17,88.31,173.4a636.92,636.92,0,0,0-32-107.79C53,57.38,49.63,49.2,45.55,41c-1.18,1.89-.78,3.58-.78,5.17q0,36.41,0,72.81A26.54,26.54,0,0,0,45.06,121.76Z" transform="translate(-44.36 -40.98)"/><path class="cls-2" d="M45.06,121.76a26.54,26.54,0,0,1-.28-2.8q0-36.4,0-72.81c0-1.59-.4-3.28.78-5.17C49.63,49.2,53,57.38,56.32,65.61a636.92,636.92,0,0,1,32,107.79c4.67,22.77,7.92,45.78,10.39,68.92,3.51,32.92,4.17,65.93,3.2,99-.55,18.72-2.33,37.39-4.58,56A643,643,0,0,1,82.8,477.77,456.64,456.64,0,0,1,53.06,562c-2.28,4.82-4.53,9.66-6.78,14.46l-.19,0c0-.09.13-.18.12-.26a20.12,20.12,0,0,1-.41-2.77q-.09-31.92-.12-63.86c2-.52,2-2.56,2.5-3.95,4.89-13.36,9.5-26.84,13.08-40.63a628.13,628.13,0,0,0,17.37-96q2.46-24.6,3.24-49.27c.58-18,0-36.07-1.09-54.11-1-16.2-2.4-32.33-4.38-48.44-1.64-13.39-3.78-26.69-6.25-39.95a648.22,648.22,0,0,0-16.83-69c-2.18-7.2-4.73-14.28-7.12-21.42-.69,9.27-.64,18.4-.72,27.53C45.46,116.84,46,119.35,45.06,121.76Z" transform="translate(-44.36 -40.98)"/><path class="cls-3" d="M44.53,116c.08-9.13-.52-24.75.18-34,2.38,7.13,6.43,19.11,8.61,26.31a648.22,648.22,0,0,1,16.83,69c2.47,13.26,4.61,26.56,6.25,39.95,2,16.11,3.36,32.24,4.38,48.44,1.12,18,1.67,36.08,1.09,54.11q-.8,24.66-3.24,49.27a628.13,628.13,0,0,1-17.37,96c-3.58,13.79-8.19,27.27-13.08,40.63-.51,1.39-.45,3.43-2.5,3.95q-.09-57.79-.19-115.6Q45.25,261.44,45,128.89C45,126.52,44.5,118.43,44.53,116Z" transform="translate(-44.36 -40.98)"/></g></svg>